<?xml version="1.0" encoding="UTF-8"?>
<svg id="Layer_1" xmlns="http://www.w3.org/2000/svg" version="1.1" viewBox="0 0 1170 14">
  <!-- Generator: Adobe Illustrator 29.8.2, SVG Export Plug-In . SVG Version: 2.1.1 Build 3)  -->
  <defs>
    <style>
      .st0 {
        fill: none;
        stroke: #231f20;
        stroke-linecap: square;
        stroke-miterlimit: 10;
        stroke-width: .7px;
      }
    </style>
  </defs>
  <path class="st0" d="M1170,10.5c-3.4,0-6.7-1.2-10.8-3.5-8.2-4.7-13.5-4.7-21.7,0s-13.5,4.7-21.7,0c-8.2-4.7-13.5-4.7-21.7,0-8.2,4.7-13.5,4.7-21.7,0-8.2-4.7-13.5-4.7-21.7,0-8.2,4.7-13.5,4.7-21.7,0-8.2-4.7-13.5-4.7-21.7,0-8.2,4.7-13.5,4.7-21.7,0s-13.5-4.7-21.7,0c-8.2,4.7-13.5,4.7-21.7,0-8.2-4.7-13.5-4.7-21.7,0-8.2,4.7-13.5,4.7-21.7,0-8.2-4.7-13.5-4.7-21.7,0-8.2,4.7-13.5,4.7-21.7,0-8.2-4.7-13.5-4.7-21.7,0-4.1,2.3-7.5,3.5-10.8,3.5s-6.7-1.2-10.8-3.5c-8.2-4.7-13.5-4.7-21.7,0s-13.5,4.7-21.7,0-13.5-4.7-21.7,0-13.5,4.7-21.7,0c-8.2-4.7-13.5-4.7-21.7,0s-13.5,4.7-21.7,0-13.5-4.7-21.7,0c-8.2,4.7-13.5,4.7-21.7,0-8.2-4.7-13.5-4.7-21.7,0-8.2,4.7-13.5,4.7-21.7,0-8.2-4.7-13.5-4.7-21.7,0s-13.5,4.7-21.7,0c-8.2-4.7-13.5-4.7-21.7,0-8.2,4.7-13.5,4.7-21.7,0-8.2-4.7-13.5-4.7-21.7,0-8.2,4.7-13.5,4.7-21.7,0s-13.5-4.7-21.7,0c-8.2,4.7-13.5,4.7-21.7,0s-13.5-4.7-21.7,0c-8.2,4.7-13.5,4.7-21.7,0-8.2-4.7-13.5-4.7-21.7,0s-13.5,4.7-21.7,0c-8.2-4.7-13.5-4.7-21.7,0s-13.5,4.7-21.7,0c-8.2-4.7-13.5-4.7-21.7,0-8.2,4.7-13.5,4.7-21.7,0-8.2-4.7-13.5-4.7-21.7,0-8.2,4.7-13.5,4.7-21.7,0-8.2-4.7-13.5-4.7-21.7,0-8.2,4.7-13.5,4.7-21.7,0s-13.5-4.7-21.7,0-13.5,4.7-21.7,0c-8.2-4.7-13.5-4.7-21.7,0-8.2,4.7-13.5,4.7-21.7,0-8.2-4.7-13.5-4.7-21.7,0s-13.5,4.7-21.7,0c-8.2-4.7-13.5-4.7-21.7,0C6.7,9.3,3.4,10.5,0,10.5"/>
</svg>