<?xml version="1.0" encoding="UTF-8"?>
<svg id="Layer_1" xmlns="http://www.w3.org/2000/svg" version="1.1" viewBox="0 0 1170 14">
  <!-- Generator: Adobe Illustrator 29.8.2, SVG Export Plug-In . SVG Version: 2.1.1 Build 3)  -->
  <defs>
    <style>
      .st0 {
        fill: none;
        stroke: #231f20;
        stroke-linecap: square;
        stroke-miterlimit: 10;
      }
    </style>
  </defs>
  <path class="st0" d="M1170,12c-4.8,0-9.6-1.7-15.4-5-11.7-6.7-19.1-6.7-30.8,0-11.7,6.7-19.1,6.7-30.8,0-11.7-6.7-19.1-6.7-30.8,0-11.7,6.7-19.1,6.7-30.8,0-11.7-6.7-19.1-6.7-30.8,0-11.7,6.7-19.1,6.7-30.8,0-11.7-6.7-19.1-6.7-30.8,0-11.7,6.7-19.1,6.7-30.8,0-11.7-6.7-19.1-6.7-30.8,0-11.7,6.7-19.1,6.7-30.8,0-11.7-6.7-19.1-6.7-30.8,0-11.7,6.7-19.1,6.7-30.8,0-11.7-6.7-19.1-6.7-30.8,0-11.7,6.7-19.1,6.7-30.8,0-11.7-6.7-19.1-6.7-30.8,0-11.7,6.7-19.1,6.7-30.8,0-11.7-6.7-19.1-6.7-30.8,0-11.7,6.7-19.1,6.7-30.8,0-11.7-6.7-19.1-6.7-30.8,0-11.7,6.7-19.1,6.7-30.8,0-11.7-6.7-19.1-6.7-30.8,0-11.7,6.7-19.1,6.7-30.8,0-11.7-6.7-19.1-6.7-30.8,0-11.7,6.7-19.1,6.7-30.8,0-11.7-6.7-19.1-6.7-30.8,0-11.7,6.7-19.1,6.7-30.8,0-11.7-6.7-19.1-6.7-30.8,0-11.7,6.7-19.1,6.7-30.8,0-11.7-6.7-19.1-6.7-30.8,0-11.7,6.7-19.1,6.7-30.8,0s-19.1-6.7-30.8,0c-11.7,6.7-19.1,6.7-30.8,0-11.7-6.7-19.1-6.7-30.8,0-11.7,6.7-19.1,6.7-30.8,0-11.7-6.7-19.1-6.7-30.8,0-11.7,6.7-19.1,6.7-30.8,0C34.5.3,27.1.3,15.4,7,9.6,10.3,4.8,12,0,12"/>
</svg>