<?xml version="1.0" standalone="no"?>
<!DOCTYPE svg PUBLIC "-//W3C//DTD SVG 1.1//EN" "http://www.w3.org/Graphics/SVG/1.1/DTD/svg11.dtd">
<svg version="1.1" xmlns="http://www.w3.org/2000/svg" xmlns:xlink="http://www.w3.org/1999/xlink"><metadata>This SVG WebFont was generated by YouWorkForThem.
Copyright Â© 2025 by Zarma Type.  All rights reserved.</metadata><defs><font horiz-adv-x="320" id="ywftsvg"><font-face ascent="800" bbox="-122 -250 1452 971" cap-height="700" descent="-200" font-family="" font-stretch="normal" font-weight="400" panose-1="0 0 0 0 0 0 0 0 0 0" underline-position="0" underline-thickness="0" unicode-range="U+000D-FB04" units-per-em="1000" x-height="500"/><missing-glyph d="M20 0v700h283v-700h-283zM76 632h67v-13h-67v-39h170v39h-66v13h66v39h-170v-39zM165 422h81v39h-81l-81 25h162v39h-63l-40 -9v3q33 7 33 30q0 15 -11 21t-39 6t-39 -10t-11 -35v-82l48 -6v-2l-48 -7v-39zM126 525h-15v6q0 9 15 9q16 0 16 -7q0 -8 -16 -8zM246 416h-34 v-32h-136v-39h170v71zM146 284h-16q-21 0 -21 8q0 9 21 9h8v37h-18q-46 0 -46 -46q0 -45 46 -45h79q50 0 50 29q0 22 -37 29v2l34 -4v35h-100v-54zM177 284v15h11q26 0 26 -8t-24 -8zM74 172q0 -45 46 -45h83q46 0 46 45q0 46 -46 46h-83q-46 0 -46 -46zM193 180q21 0 21 -8 q0 -7 -21 -7h-63q-21 0 -21 7q0 8 21 8h63zM76 73v-44h170v34l-97 -2v2l97 13v44h-170v-34l96 2v-2z" horiz-adv-x="323"/><glyph d="M332 730h60q30 0 30 -30v-130q0 -30 -30 -30h-42q-20 0 -20 -20t20 -20h23q59 0 78 31.5t23 108.5q2 30 31 30h147q30 0 30 -30v-110q0 -30 30 -30h37q30 0 30 -30v-40q0 -30 -30 -30h-37q-30 0 -30 -30v-110q0 -39 9 -49.5t44 -10.5h14q30 0 30 -30v-140q0 -30 -30 -30 h-123q-128 0 -176 63t-48 216v91q0 13 -8 21.5t-20 8.5h-14q-30 0 -30 -30v-340q0 -30 -30 -30h-220q-30 0 -30 30v340q0 24 -20 29q-30 7 -30 31v40q0 26 30 31q21 3 26 29q17 106 77.5 153t198.5 47z" glyph-name="uniE01C" horiz-adv-x="784" unicode="ft"/><glyph d="M332 730h50q30 0 30 -30v-130q0 -30 -30 -30h-32q-20 0 -20 -20t20 -20h34q28 0 34 30q17 106 77.5 153t198.5 47h80q30 0 30 -30v-130q0 -30 -30 -30h-62q-20 0 -20 -20t20 -20h62q30 0 30 -30v-40q0 -30 -30 -30h-52q-30 0 -30 -30v-340q0 -30 -30 -30h-220 q-30 0 -30 30v340q0 30 -28 30h-24q-30 0 -30 -30v-340q0 -30 -30 -30h-220q-30 0 -30 30v340q0 24 -20 29q-30 7 -30 31v40q0 26 30 31q21 3 26 29q17 106 77.5 153t198.5 47z" glyph-name="uniFB00" horiz-adv-x="804" unicode="ff"/><glyph d="M544 522q-90 15 -161 15q-53 0 -53 -21q0 -16 24 -16h308q30 0 30 -30v-440q0 -30 -30 -30h-220q-30 0 -30 30v340q0 30 -30 30h-22q-30 0 -30 -30v-340q0 -30 -30 -30h-220q-30 0 -30 30v340q0 24 -20 29q-30 7 -30 31v40q0 24 30 31q20 4 24 29q15 104 84 157t202 53 q98 0 215 -16q30 -3 28 -34l-8 -144q-1 -28 -31 -24z" glyph-name="uniFB01" horiz-adv-x="707" unicode="fi"/><glyph d="M350 500h62q30 0 30 -30v-40q0 -30 -30 -30h-52q-30 0 -30 -30v-340q0 -30 -30 -30h-220q-30 0 -30 30v340q0 24 -20 29q-30 7 -30 31v40q0 26 30 31q21 3 26 29q12 71 39.5 115t85.5 69.5t151 25.5q200 0 380 -30q30 -4 30 -36v-644q0 -30 -30 -30h-220q-30 0 -30 30 v480q0 30 -30 30h-82q-20 0 -20 -20t20 -20z" glyph-name="uniFB02" horiz-adv-x="762" unicode="fl"/><glyph d="M384 500q27 0 32 30q15 104 84 157t202 53q98 0 215 -16q30 -3 28 -34l-8 -144q-1 -28 -31 -24q-90 15 -161 15q-53 0 -53 -21q0 -16 24 -16h308q30 0 30 -30v-440q0 -30 -30 -30h-220q-30 0 -30 30v340q0 30 -30 30h-22q-30 0 -30 -30v-340q0 -30 -30 -30h-220 q-30 0 -30 30v340q0 30 -28 30h-24q-30 0 -30 -30v-340q0 -30 -30 -30h-220q-30 0 -30 30v340q0 24 -20 29q-30 7 -30 31v40q0 26 30 31q21 3 26 29q17 106 77.5 153t198.5 47h50q30 0 30 -30v-130q0 -30 -30 -30h-32q-20 0 -20 -20t20 -20h34z" glyph-name="uniFB03" horiz-adv-x="1069" unicode="ffi"/><glyph d="M384 400h-24q-30 0 -30 -30v-340q0 -30 -30 -30h-220q-30 0 -30 30v340q0 24 -20 29q-30 7 -30 31v40q0 26 30 31q21 3 26 29q17 106 77.5 153t198.5 47h50q30 0 30 -30v-130q0 -30 -30 -30h-32q-20 0 -20 -20t20 -20h34q29 0 34 30q12 71 39.5 115t85.5 69.5t151 25.5 q200 0 380 -30q30 -4 30 -36v-644q0 -30 -30 -30h-220q-30 0 -30 30v480q0 30 -30 30h-82q-20 0 -20 -20t20 -20h62q30 0 30 -30v-40q0 -30 -30 -30h-52q-30 0 -30 -30v-340q0 -30 -30 -30h-220q-30 0 -30 30v340q0 30 -28 30z" glyph-name="uniFB04" horiz-adv-x="1124" unicode="ffl"/><glyph d="M20 0v700h283v-700h-283zM76 632h67v-13h-67v-39h170v39h-66v13h66v39h-170v-39zM165 422h81v39h-81l-81 25h162v39h-63l-40 -9v3q33 7 33 30q0 15 -11 21t-39 6t-39 -10t-11 -35v-82l48 -6v-2l-48 -7v-39zM126 525h-15v6q0 9 15 9q16 0 16 -7q0 -8 -16 -8zM246 416h-34 v-32h-136v-39h170v71zM146 284h-16q-21 0 -21 8q0 9 21 9h8v37h-18q-46 0 -46 -46q0 -45 46 -45h79q50 0 50 29q0 22 -37 29v2l34 -4v35h-100v-54zM177 284v15h11q26 0 26 -8t-24 -8zM74 172q0 -45 46 -45h83q46 0 46 45q0 46 -46 46h-83q-46 0 -46 -46zM193 180q21 0 21 -8 q0 -7 -21 -7h-63q-21 0 -21 7q0 8 21 8h63zM76 73v-44h170v34l-97 -2v2l97 13v44h-170v-34l96 2v-2z" glyph-name=".notdef" horiz-adv-x="323"/><glyph glyph-name="glyph1" horiz-adv-x="0"/><glyph glyph-name="glyph1" horiz-adv-x="0"/><glyph glyph-name="space" horiz-adv-x="200" unicode=" "/><glyph d="M28 86q0 42 27 69t80 27t79.5 -27t26.5 -69t-26.5 -69t-79.5 -27t-80 27t-27 69zM77 261q-43 165 -60 409q-1 30 28 30h180q29 0 28 -30q-17 -244 -60 -409q-8 -29 -38 -29h-40q-30 0 -38 29z" glyph-name="exclam" horiz-adv-x="270" unicode="!"/><glyph d="M38 460l-26 220q-3 20 18 20h110q21 0 18 -20l-26 -220q-3 -20 -22 -20h-50q-19 0 -22 20zM198 460l-26 220q-3 20 18 20h110q21 0 18 -20l-26 -220q-3 -20 -22 -20h-50q-19 0 -22 20z" glyph-name="quotedbl" horiz-adv-x="330" unicode="&quot;"/><glyph d="M324 20l28 151q6 29 -24 29h-14q-30 0 -36 -29l-28 -151q-3 -20 -24 -20h-164q-19 0 -16 20l28 151q6 29 -24 29h-30q-21 0 -16 20l12 60q5 20 24 20h29q30 0 36 29l7 42q6 29 -24 29h-30q-21 0 -16 20l12 60q5 20 24 20h29q30 0 36 29l28 151q3 20 24 20h164 q19 0 16 -20l-28 -151q-6 -29 24 -29h14q30 0 36 29l28 151q3 20 24 20h164q19 0 16 -20l-28 -151q-6 -29 24 -29h30q21 0 16 -20l-12 -60q-5 -20 -24 -20h-29q-30 0 -36 -29l-7 -42q-6 -29 24 -29h30q21 0 16 -20l-12 -60q-5 -20 -24 -20h-29q-30 0 -36 -29l-28 -151 q-3 -20 -24 -20h-164q-19 0 -16 20zM333 300h14q30 0 36 29l7 42q6 29 -24 29h-14q-30 0 -36 -29l-7 -42q-6 -29 24 -29z" glyph-name="numbersign" horiz-adv-x="699" unicode="#"/><glyph d="M400 426q-10 34 -43 34q-31 0 -31 -23q0 -19 37.5 -29t91 -18.5t107 -24t91 -57t37.5 -107.5q0 -82 -60 -134.5t-169 -69.5q-30 -5 -30 -34v-23q0 -20 -20 -20h-110q-20 0 -20 20v25q0 29 -30 35q-219 43 -239 274q-2 20 19 20h246q18 0 24 -20q11 -34 49 -34q35 0 35 23 q0 19 -37.5 29t-91 18.5t-107 24t-91 57t-37.5 107.5q0 83 60.5 136.5t169.5 68.5q30 5 30 33v23q0 20 20 20h110q20 0 20 -20v-26q0 -29 30 -35q108 -23 163 -90.5t65 -182.5q2 -20 -19 -20h-246q-18 0 -24 20z" glyph-name="dollar" horiz-adv-x="700" unicode="$"/><glyph d="M274 18l338 664q9 18 29 18h73q20 0 11 -18l-338 -664q-9 -18 -29 -18h-73q-20 0 -11 18zM538 228q0 117 63 177t164 60q100 0 162.5 -60t62.5 -177q0 -118 -62.5 -178t-162.5 -60q-101 0 -164 60t-63 178zM733 228q0 -43 32 -43q31 0 31 43q0 42 -31 42q-32 0 -32 -42z M10 473q0 117 63 177t164 60q100 0 162.5 -60t62.5 -177q0 -118 -62.5 -178t-162.5 -60q-101 0 -164 60t-63 178zM205 473q0 -43 32 -43q31 0 31 43q0 42 -31 42q-32 0 -32 -42z" glyph-name="percent" horiz-adv-x="1000" unicode="%"/><glyph d="M687 436q3 -30 -28 -30h-208q-34 0 -60 27q-15 17 -51 17q-45 0 -45 -30q0 -24 30 -24h23q30 0 30 -30v-40q0 -30 -30 -30h-23q-30 0 -30 -25q0 -35 61 -31q35 2 54.5 19.5t27.5 53.5q8 30 35 30h243q30 0 30 -30v-40q0 -26 -30 -30q-23 -3 -23 -30v-183q0 -30 -30 -30 h-180q-29 0 -32 30l-7 84q-2 24 -21 24q-17 0 -28 -22q-30 -66 -76 -96t-119 -30q-80 0 -135 46t-55 141q0 97 98 148q11 6 11 15t-12 14q-97 39 -97 126q0 100 85.5 165t249.5 65q314 0 342 -274z" glyph-name="ampersand" horiz-adv-x="746" unicode="&amp;"/><glyph d="M38 460l-26 220q-3 20 18 20h110q21 0 18 -20l-26 -220q-3 -20 -22 -20h-50q-19 0 -22 20z" glyph-name="quotesingle" horiz-adv-x="170" unicode="'"/><glyph d="M319 730q20 0 20 -19q0 -16 -14 -32q-85 -92 -85 -351q0 -258 85 -354q14 -15 14 -34q0 -20 -21 -20h-103q-34 0 -55 18q-68 54 -109 154.5t-41 234.5t40.5 234t108.5 152q22 17 56 17h104z" glyph-name="parenleft" horiz-adv-x="319" unicode="("/><glyph d="M104 730q34 0 56 -17q68 -52 108.5 -152t40.5 -234t-41 -234.5t-109 -154.5q-21 -18 -55 -18h-103q-21 0 -21 20q0 19 14 34q85 96 85 354q0 259 -85 351q-14 16 -14 32q0 19 20 19h104z" glyph-name="parenright" horiz-adv-x="319" unicode=")"/><glyph d="M305 681l-26 -105q-4 -13 2 -19q5 -5 18 5l91 68q15 13 23 -7l40 -102q7 -19 -13 -22l-115 -19q-12 -2 -14 -9q-2 -11 7 -17l97 -67q17 -11 1 -25l-85 -70q-15 -13 -24 5l-53 101q-8 15 -19 15t-19 -15l-53 -101q-9 -18 -24 -5l-85 70q-16 14 1 25l97 67q9 6 7 17 q-2 7 -14 9l-115 19q-20 3 -13 22l40 102q8 20 23 7l91 -68q13 -10 19 -4q5 5 1 18l-26 105q-4 19 15 19h110q19 0 15 -19z" glyph-name="asterisk" horiz-adv-x="470" unicode="*"/><glyph d="M171 159v106q0 35 -35 35h-106q-20 0 -20 20v60q0 20 20 20h106q35 0 35 35v106q0 20 20 20h60q20 0 20 -20v-106q0 -35 35 -35h106q20 0 20 -20v-60q0 -20 -20 -20h-106q-35 0 -35 -35v-106q0 -20 -20 -20h-60q-20 0 -20 20z" glyph-name="plus" horiz-adv-x="442" unicode="+"/><glyph d="M44 -40q18 10 26 16q11 8 9 18q-1 10 -18 19q-51 29 -51 93q0 44 30 75t77 31q49 0 77.5 -28t28.5 -82q0 -60 -25.5 -112t-87.5 -114q-22 -22 -40 3l-35 45q-18 22 9 36z" glyph-name="comma" horiz-adv-x="233" unicode=","/><glyph d="M10 228v60q0 20 20 20h255q20 0 20 -20v-60q0 -20 -20 -20h-255q-20 0 -20 20z" glyph-name="hyphen" horiz-adv-x="315" unicode="-"/><glyph d="M10 106q0 47 29.5 76.5t77.5 29.5t77 -29.5t29 -76.5t-29 -76.5t-77 -29.5t-77.5 29.5t-29.5 76.5z" glyph-name="period" horiz-adv-x="233" unicode="."/><glyph d="M6 -11l222 722q6 19 26 19h65q20 0 14 -19l-222 -722q-6 -19 -26 -19h-65q-20 0 -14 19z" glyph-name="slash" horiz-adv-x="339" unicode="/"/><glyph d="M10 350q0 178 91.5 269t236.5 91t236 -91t91 -269t-91 -269t-236 -91t-236.5 91t-91.5 269zM290 351q0 -81 49 -81q21 0 33.5 20.5t12.5 60.5q0 39 -12.5 59t-33.5 20q-49 0 -49 -79z" glyph-name="zero" horiz-adv-x="675" unicode="0"/><glyph d="M74 30v233q0 37 -37 37h-7q-30 0 -30 30v340q0 30 30 30h294q30 0 30 -30v-640q0 -30 -30 -30h-220q-30 0 -30 30z" glyph-name="one" horiz-adv-x="374" unicode="1"/><glyph d="M389 241l220 17q30 3 30 -28v-200q0 -30 -30 -30h-569q-32 0 -29 30q5 67 33.5 123.5t67.5 92.5t83.5 67t82 50t62 38.5t24.5 35.5q0 23 -25 23q-23 0 -35 -25q-14 -29 -38 -29h-226q-31 0 -28 30q27 274 332 274q140 0 222.5 -53.5t82.5 -141.5q0 -50 -12.5 -83.5 t-50.5 -60t-67.5 -40t-103.5 -40.5q-24 -9 -37 -14q-17 -7 -13 -23q4 -15 24 -13z" glyph-name="two" horiz-adv-x="659" unicode="2"/><glyph d="M12 426q15 158 107 221t254 63q49 0 99.5 -9.5t102 -30.5t84 -63t32.5 -99q0 -91 -69 -141q-13 -10 -13 -19q0 -11 12 -19q70 -52 70 -141q0 -45 -22 -81t-56 -57.5t-78.5 -35.5t-84 -19t-78.5 -5q-161 0 -253 63t-107 221q-3 30 28 30h226q25 0 37 -29q14 -35 54 -35 q59 0 59 34q0 11 -7.5 18.5t-22.5 7.5h-30q-30 0 -30 30v40q0 30 30 30h30q15 0 22.5 7.5t7.5 17.5q0 35 -56 35q-41 0 -57 -35q-14 -29 -37 -29h-226q-31 0 -28 30z" glyph-name="three" horiz-adv-x="701" unicode="3"/><glyph d="M326 30v73q0 37 -37 37h-259q-30 0 -30 30v140q0 30 16 55l192 310q16 25 46 25h322q30 0 30 -30v-640q0 -30 -30 -30h-220q-30 0 -30 30zM244 340h45q38 0 39 37l7 119q2 22 -19 22q-19 0 -30 -19l-64 -104q-13 -20 -7 -38q5 -17 29 -17z" glyph-name="four" horiz-adv-x="626" unicode="4"/><glyph d="M17 244q-3 30 28 30h226q10 0 41 -28q6 -6 18 -6q19 0 19 25q0 36 -32.5 45.5t-138.5 9.5h-123q-31 0 -26 30l49 320q4 30 34 30h468q30 0 30 -30v-180q0 -30 -30 -30h-364q-24 0 -27 -21q-3 -23 22 -23h79q183 0 263.5 -46t80.5 -157q0 -107 -78.5 -165t-216.5 -58 q-150 0 -230 61.5t-92 192.5z" glyph-name="five" horiz-adv-x="649" unicode="5"/><glyph d="M417 482q-15 28 -46 28q-37 0 -48 -47q-3 -14 3 -20.5t21 -5.5h22q152 0 239.5 -60t87.5 -164t-88 -163.5t-242 -59.5q-176 0 -266 83t-90 244q0 188 92 290.5t269 102.5q138 0 223 -60t100 -167q5 -30 -27 -30h-213q-22 0 -37 29zM321 295q0 -23 14 -39t35 -16 q19 0 32.5 16t13.5 39t-13 38.5t-33 15.5q-22 0 -35.5 -15.5t-13.5 -38.5z" glyph-name="six" horiz-adv-x="707" unicode="6"/><glyph d="M223 300h-188q-30 0 -30 30v340q0 30 30 30h579q20 0 20 -20t-12 -36q-215 -290 -228 -614q-2 -30 -31 -30h-200q-32 0 -29 30q11 134 122 223q17 14 3 34q-9 13 -36 13z" glyph-name="seven" horiz-adv-x="614" unicode="7"/><glyph d="M627 339q78 -54 78 -141q0 -103 -97 -155.5t-250 -52.5t-250.5 52.5t-97.5 155.5q0 88 78 141q11 8 11 18q0 12 -10 20q-59 50 -59 129q0 101 91.5 152.5t236.5 51.5t236 -51.5t91 -152.5q0 -76 -60 -128q-10 -8 -10 -19q0 -12 12 -20zM310 432q0 -12 14 -20t35 -8 q19 0 32.5 8.5t13.5 19.5t-13.5 19.5t-32.5 8.5q-21 0 -35 -8t-14 -20zM280 272q0 -13 22.5 -22.5t56.5 -9.5q32 0 54 9.5t22 22.5t-22 22.5t-54 9.5q-34 0 -56.5 -9.5t-22.5 -22.5z" glyph-name="eight" horiz-adv-x="715" unicode="8"/><glyph d="M290 218q15 -28 46 -28q30 0 45 41q6 16 -1 24.5t-26 7.5h-16q-152 0 -239.5 60t-87.5 164t88 163.5t242 59.5q176 0 266 -83t90 -244q0 -188 -92 -290.5t-269 -102.5q-138 0 -223 60t-100 167q-5 30 27 30h213q22 0 37 -29zM386 405q0 23 -14 39t-35 16q-19 0 -32.5 -16 t-13.5 -39t13 -38.5t33 -15.5q22 0 35.5 15.5t13.5 38.5z" glyph-name="nine" horiz-adv-x="707" unicode="9"/><glyph d="M10 106q0 47 29.5 76.5t77.5 29.5t77 -29.5t29 -76.5t-29 -76.5t-77 -29.5t-77.5 29.5t-29.5 76.5zM10 454q0 47 29.5 76.5t77.5 29.5t77 -29.5t29 -76.5t-29 -76.5t-77 -29.5t-77.5 29.5t-29.5 76.5z" glyph-name="colon" horiz-adv-x="233" unicode=":"/><glyph d="M10 454q0 47 29.5 76.5t77.5 29.5t77 -29.5t29 -76.5t-29 -76.5t-77 -29.5t-77.5 29.5t-29.5 76.5zM44 -40q18 10 26 16q11 8 9 18q-1 10 -18 19q-51 29 -51 93q0 44 30 75t77 31q49 0 77.5 -28t28.5 -82q0 -60 -25.5 -112t-87.5 -114q-22 -22 -40 3l-35 45q-18 22 9 36z " glyph-name="semicolon" horiz-adv-x="233" unicode=";"/><glyph d="M403 433l-281 -72q-24 -6 -24 -25t24 -25l281 -71q19 -4 19 -25v-85q0 -20 -19 -14l-374 119q-19 6 -19 26v151q0 20 19 26l374 119q19 6 19 -14v-85q0 -21 -19 -25z" glyph-name="less" horiz-adv-x="432" unicode="&lt;"/><glyph d="M10 410v60q0 20 20 20h382q20 0 20 -20v-60q0 -20 -20 -20h-382q-20 0 -20 20zM10 230v60q0 20 20 20h382q20 0 20 -20v-60q0 -20 -20 -20h-382q-20 0 -20 20z" glyph-name="equal" horiz-adv-x="442" unicode="="/><glyph d="M29 240l281 72q24 6 24 25t-24 25l-281 71q-19 4 -19 25v85q0 20 19 14l374 -119q19 -6 19 -26v-151q0 -20 -19 -26l-374 -119q-19 -6 -19 14v85q0 21 19 25z" glyph-name="greater" horiz-adv-x="432" unicode=">"/><glyph d="M255 254q3 39 14.5 66t23.5 38t21.5 25.5t9.5 31.5q0 34 -22 34q-20 0 -25 -41q-3 -30 -31 -30h-206q-31 0 -28 30q26 302 334 302q130 0 201.5 -58t71.5 -158q0 -49 -21 -86t-53.5 -59t-66 -37.5t-66.5 -30.5t-46 -29q-27 -28 -42 -28h-40q-30 0 -29 30zM197 86 q0 42 27 69t80 27t79.5 -27t26.5 -69t-26.5 -69t-79.5 -27t-80 27t-27 69z" glyph-name="question" horiz-adv-x="629" unicode="?"/><glyph d="M467 170l-6 41q-1 12 -11 12q-8 0 -14 -11q-33 -69 -111 -69q-61 0 -100.5 55t-39.5 157q0 107 54.5 163.5t154.5 56.5q86 0 227 -46q19 -6 19 -26v-333q0 -20 -20 -20h-130q-20 0 -23 20zM414 316q11 0 18.5 9t7.5 23v22q0 14 -7.5 23t-18.5 9q-25 0 -25 -43t25 -43z M30 351q0 191 107 295t291 104q183 0 287.5 -104t104.5 -295q0 -196 -104 -298.5t-288 -102.5q-185 0 -291.5 103t-106.5 298zM150 350q0 -145 68.5 -214t209.5 -69q140 0 209 69t69 214q0 137 -70.5 210.5t-207.5 73.5q-138 0 -208 -73.5t-70 -210.5z" glyph-name="at" horiz-adv-x="850" unicode="@"/><glyph d="M409 30l-7 95q-2 30 -32 30h-8q-30 0 -32 -30l-7 -95q-1 -30 -32 -30h-261q-30 0 -24 29l135 642q6 29 36 29h378q30 0 36 -29l135 -642q6 -29 -24 -29h-261q-31 0 -32 30zM390 281l-8 114q-2 15 -16 15t-16 -15l-8 -114q-2 -26 24 -26t24 26z" glyph-name="A" horiz-adv-x="732" unicode="A"/><glyph d="M50 700h341q305 0 305 -200q0 -87 -77 -132q-12 -7 -12 -17q0 -11 13 -18q86 -47 86 -133q0 -101 -82.5 -150.5t-232.5 -49.5h-341q-30 0 -30 30v640q0 30 30 30zM325 400h56q15 0 22.5 7.5t7.5 18.5q0 24 -30 24h-56q-25 0 -25 -25t25 -25zM325 250h66q30 0 30 24 q0 11 -7.5 18.5t-22.5 7.5h-66q-25 0 -25 -25t25 -25z" glyph-name="B" horiz-adv-x="711" unicode="B"/><glyph d="M387 405q-11 35 -43 35q-22 0 -35.5 -24t-13.5 -65q0 -42 17.5 -66.5t47.5 -24.5q43 0 57 37q11 29 37 29h226q31 0 28 -30q-15 -155 -105 -230.5t-243 -75.5q-160 0 -255 90t-95 270q0 179 91 269.5t244 90.5q146 0 232 -75.5t100 -228.5q3 -30 -28 -30h-226 q-26 0 -36 29z" glyph-name="C" horiz-adv-x="710" unicode="C"/><glyph d="M20 30v640q0 30 30 30h311q146 0 225.5 -86.5t79.5 -263.5q0 -178 -79.5 -264t-225.5 -86h-311q-30 0 -30 30zM325 250h6q50 0 50 102q0 98 -50 98h-6q-25 0 -25 -25v-150q0 -25 25 -25z" glyph-name="D" horiz-adv-x="676" unicode="D"/><glyph d="M500 260h-175q-25 0 -25 -25t25 -25h205q30 0 30 -30v-150q0 -30 -30 -30h-480q-30 0 -30 30v640q0 30 30 30h480q30 0 30 -30v-150q0 -30 -30 -30h-205q-25 0 -25 -25t25 -25h175q30 0 30 -30v-120q0 -30 -30 -30z" glyph-name="E" horiz-adv-x="577" unicode="E"/><glyph d="M510 150h-180q-30 0 -30 -30v-90q0 -30 -30 -30h-220q-30 0 -30 30v640q0 30 30 30h460q30 0 30 -30v-200q0 -30 -30 -30h-180q-30 0 -30 -25t30 -25h180q30 0 30 -30v-180q0 -30 -30 -30z" glyph-name="F" horiz-adv-x="550" unicode="F"/><glyph d="M464 30l-6 72q-2 17 -16 17t-19 -16q-20 -60 -54.5 -86.5t-96.5 -26.5q-110 0 -186 92t-76 268q0 179 92.5 269.5t247.5 90.5q148 0 235.5 -75.5t101.5 -228.5q3 -30 -28 -30h-226q-26 0 -36 29q-11 35 -43 35q-24 0 -36.5 -23t-12.5 -57q0 -80 66 -80q39 0 51 25 q10 21 32 21h236q30 0 30 -30v-266q0 -30 -30 -30h-193q-30 0 -33 30z" glyph-name="G" horiz-adv-x="725" unicode="G"/><glyph d="M365 30v160q0 30 -30 30t-30 -30v-160q0 -30 -30 -30h-225q-30 0 -30 30v640q0 30 30 30h225q30 0 30 -30v-160q0 -30 30 -30t30 30v160q0 30 30 30h225q30 0 30 -30v-640q0 -30 -30 -30h-225q-30 0 -30 30z" glyph-name="H" horiz-adv-x="670" unicode="H"/><glyph d="M20 30v640q0 30 30 30h220q30 0 30 -30v-640q0 -30 -30 -30h-220q-30 0 -30 30z" glyph-name="I" unicode="I"/><glyph d="M145 0h-110q-30 0 -30 30v390q0 30 30 30h39q73 0 73 87v133q0 30 30 30h220q30 0 30 -30v-399q0 -145 -65.5 -208t-216.5 -63z" glyph-name="J" horiz-adv-x="442" unicode="J"/><glyph d="M332 505l32 166q6 29 36 29h241q29 0 19 -28l-105 -274q-10 -26 17 -40q50 -27 73.5 -97t25.5 -231q0 -30 -31 -30h-260q-29 0 -26 30q17 138 -15 195q-9 16 -23 16q-17 0 -17 -26l1 -185q0 -30 -30 -30h-220q-30 0 -30 30v640q0 30 30 30h220q30 0 30 -30v-165 q0 -18 13 -18q16 0 19 18z" glyph-name="K" horiz-adv-x="681" unicode="K"/><glyph d="M300 670v-190q0 -30 30 -30h160q30 0 30 -30v-390q0 -30 -30 -30h-440q-30 0 -30 30v640q0 30 30 30h220q30 0 30 -30z" glyph-name="L" horiz-adv-x="525" unicode="L"/><glyph d="M536 173l-67 -146q-12 -27 -42 -27h-27q-30 0 -42 27l-67 146q-9 22 -30 22q-18 0 -16 -24l12 -141q3 -30 -27 -30h-180q-30 0 -30 30v640q0 30 30 30h193q28 0 45 -26l96 -148q12 -19 30 -19t30 19l95 148q17 26 45 26h193q30 0 30 -30v-640q0 -30 -30 -30h-180 q-30 0 -27 30l12 141q2 24 -16 24q-21 0 -30 -22z" glyph-name="M" horiz-adv-x="827" unicode="M"/><glyph d="M277 149l10 -119q3 -30 -27 -30h-210q-30 0 -30 30v640q0 30 30 30h159q27 0 48 -24l118 -141q18 -20 30 -20q22 0 20 25l-11 130q-3 30 28 30h210q30 0 30 -30v-640q0 -30 -30 -30h-159q-28 0 -49 23l-116 132q-15 19 -30 19q-23 0 -21 -25z" glyph-name="N" horiz-adv-x="702" unicode="N"/><glyph d="M10 350q0 179 96.5 269.5t258.5 90.5t258.5 -90.5t96.5 -269.5q0 -180 -96 -270t-259 -90t-259 90t-96 270zM295 351q0 -40 19 -60.5t51 -20.5t51 20.5t19 60.5q0 39 -19.5 59t-50.5 20t-50.5 -20t-19.5 -59z" glyph-name="O" horiz-adv-x="730" unicode="O"/><glyph d="M50 700h301q150 0 232.5 -68t82.5 -207q0 -140 -82.5 -207.5t-232.5 -67.5h-21q-30 0 -30 -30v-90q0 -30 -30 -30h-220q-30 0 -30 30v640q0 30 30 30zM325 400h26q15 0 22.5 7.5t7.5 18.5q0 24 -30 24h-26q-25 0 -25 -25t25 -25z" glyph-name="P" horiz-adv-x="671" unicode="P"/><glyph d="M295 356q0 -38 19 -57t51 -19t51 19t19 57q0 37 -19 55.5t-51 18.5t-51 -18.5t-19 -55.5zM698 0h-333q-163 0 -259 88.5t-96 266.5q0 177 96 266t259 89t259 -66.5t96 -199.5q0 -85 -34 -134t-116 -79q-22 -8 -16 -27t28 -12l107 34q27 9 29 -22l10 -174q2 -30 -30 -30z " glyph-name="Q" horiz-adv-x="740" unicode="Q"/><glyph d="M325 400h26q15 0 22.5 7.5t7.5 18.5q0 24 -30 24h-26q-25 0 -25 -25t25 -25zM460 298q28 -18 66 -18q54 0 103 20q27 11 32 -18l32 -221q6 -35 -22 -45q-72 -26 -139 -26q-113 0 -159 62t-48 189q0 18 -19 18q-17 0 -17 -18l10 -211q1 -30 -29 -30h-220q-30 0 -30 30v640 q0 30 30 30h301q150 0 232.5 -48t82.5 -147q0 -86 -47.5 -125.5t-152.5 -55.5q-13 -1 -16 -9t10 -17z" glyph-name="R" horiz-adv-x="695" unicode="R"/><glyph d="M395 435q-12 25 -39 25q-31 0 -31 -23q0 -19 37.5 -29t91 -18.5t107 -24t91 -57t37.5 -107.5q0 -99 -87 -155t-238 -56q-323 0 -352 274q-3 30 28 30h226q23 0 38 -29q13 -25 45 -25q35 0 35 23q0 19 -37.5 29t-91 18.5t-107 24t-91 57t-37.5 107.5q0 99 85.5 155 t233.5 56q165 0 249.5 -68t98.5 -206q3 -30 -28 -30h-226q-24 0 -38 29z" glyph-name="S" horiz-adv-x="699" unicode="S"/><glyph d="M535 250h-73q-37 0 -37 -37v-183q0 -30 -30 -30h-220q-30 0 -30 30v183q0 37 -37 37h-73q-30 0 -30 30v390q0 30 30 30h500q30 0 30 -30v-390q0 -30 -30 -30z" glyph-name="T" horiz-adv-x="570" unicode="T"/><glyph d="M15 293v377q0 30 30 30h220q30 0 30 -30v-166q0 -38 10.5 -51t29.5 -13q20 0 30 12.5t10 51.5v166q0 30 30 30h220q30 0 30 -30v-377q0 -73 -16.5 -127t-44.5 -87.5t-70.5 -53.5t-87 -27.5t-101.5 -7.5t-101.5 7.5t-87 27.5t-70.5 53.5t-44.5 87.5t-16.5 127z" glyph-name="U" horiz-adv-x="670" unicode="U"/><glyph d="M304 670l39 -340q2 -17 7 -23.5t16 -6.5q19 0 23 30l39 340q3 30 33 30h241q31 0 25 -30l-117 -640q-6 -30 -35 -30h-418q-29 0 -35 30l-117 640q-6 30 25 30h241q30 0 33 -30z" glyph-name="V" horiz-adv-x="732" unicode="V"/><glyph d="M477 162l-35 -133q-7 -29 -37 -29h-268q-31 0 -35 30l-97 640q-4 30 25 30h211q29 0 34 -30l23 -160q4 -23 23 -23t23 23l23 160q5 30 34 30h201q30 0 34 -30l23 -160q4 -23 23 -23t23 23l23 160q5 30 34 30h211q29 0 25 -30l-97 -640q-5 -30 -35 -30h-268q-30 0 -37 29 l-35 133q-5 22 -24 22q-20 0 -25 -22z" glyph-name="W" horiz-adv-x="1003" unicode="W"/><glyph d="M704 671l-79 -285q-11 -36 0 -72l79 -285q8 -29 -22 -29h-251q-30 0 -33 30l-15 175q-2 25 -22 25t-22 -25l-15 -175q-3 -30 -33 -30h-251q-30 0 -22 29l79 285q11 36 0 72l-79 285q-8 29 22 29h251q30 0 33 -30l15 -175q2 -25 22 -25t22 25l15 175q3 30 33 30h251 q30 0 22 -29z" glyph-name="X" horiz-adv-x="722" unicode="X"/><glyph d="M206 30v128q0 35 -14 71l-181 443q-12 28 19 28h251q29 0 32 -30l11 -135q2 -25 22 -25t22 25l11 135q3 30 32 30h251q31 0 19 -28l-181 -443q-14 -36 -14 -71v-128q0 -30 -30 -30h-220q-30 0 -30 30z" glyph-name="Y" horiz-adv-x="692" unicode="Y"/><glyph d="M40 700h503q29 0 29 -23q0 -18 -15 -42l-163 -247q-13 -20 -9 -40q4 -18 29 -18h129q30 0 30 -30v-270q0 -30 -30 -30h-503q-29 0 -29 23q0 18 15 42l163 247q13 21 9 40q-4 18 -29 18h-129q-30 0 -30 30v270q0 30 30 30z" glyph-name="Z" horiz-adv-x="583" unicode="Z"/><glyph d="M269 680h-4q-35 0 -35 -35v-630q0 -35 35 -35h4q20 0 20 -20v-10q0 -20 -20 -20h-229q-20 0 -20 20v760q0 20 20 20h229q20 0 20 -20v-10q0 -20 -20 -20z" glyph-name="bracketleft" horiz-adv-x="269" unicode="["/><glyph d="M319 -30h-65q-20 0 -26 19l-222 722q-6 19 14 19h65q20 0 26 -19l222 -722q6 -19 -14 -19z" glyph-name="backslash" horiz-adv-x="339" unicode="\"/><glyph d="M4 680h-4q-20 0 -20 20v10q0 20 20 20h229q20 0 20 -20v-760q0 -20 -20 -20h-229q-20 0 -20 20v10q0 20 20 20h4q35 0 35 35v630q0 35 -35 35z" glyph-name="bracketright" horiz-adv-x="269" unicode="]"/><glyph d="M337 681l103 -265q7 -19 -13 -19h-140q-20 0 -23 20l-20 123q-2 14 -15 14q-12 0 -15 -14l-21 -123q-3 -20 -23 -20h-140q-20 0 -13 19l103 265q7 19 27 19h163q20 0 27 -19z" glyph-name="asciicircum" horiz-adv-x="457" unicode="^"/><glyph d="M10 -90v60q0 20 20 20h324q20 0 20 -20v-60q0 -20 -20 -20h-324q-20 0 -20 20z" glyph-name="underscore" horiz-adv-x="384" unicode="_"/><glyph d="M230 831l62 -114q8 -17 -10 -17h-78q-21 0 -35 13l-144 122q-14 13 5 13h170q22 0 30 -17z" glyph-name="grave" horiz-adv-x="312" unicode="`"/><glyph d="M391 30l-4 29q-2 18 -17 18q-13 0 -22 -16q-22 -36 -49 -53.5t-77 -17.5q-98 0 -155 66.5t-57 194.5q0 130 56 194.5t154 64.5q71 0 119 -51q8 -9 18 -7q8 2 8 14v4q0 30 30 30h220q30 0 30 -30v-440q0 -30 -30 -30h-190q-29 0 -34 30zM329 191q17 0 26.5 13t9.5 33v26 q0 20 -9.5 33t-26.5 13q-34 0 -34 -59t34 -59z" glyph-name="a" horiz-adv-x="665" unicode="a"/><glyph d="M300 700v-234q0 -13 7 -15q10 -2 19 8q48 51 119 51q98 0 154 -64.5t56 -194.5q0 -128 -56.5 -194.5t-155.5 -66.5q-50 0 -77 17.5t-49 53.5q-9 16 -22 16q-15 0 -17 -18l-4 -29q-4 -30 -34 -30h-190q-30 0 -30 30v670q0 30 30 30h220q30 0 30 -30zM336 191q34 0 34 59 t-34 59q-17 0 -26.5 -13t-9.5 -33v-26q0 -20 9.5 -33t26.5 -13z" glyph-name="b" horiz-adv-x="665" unicode="b"/><glyph d="M393 225h216q32 0 26 -30q-19 -102 -103.5 -153.5t-206.5 -51.5q-139 0 -227 66t-88 194t85.5 194t219.5 66q118 0 200 -52t100 -153q5 -30 -26 -30h-216q-24 0 -36 29q-7 16 -21 16q-31 0 -31 -70t40 -70q19 0 29 16q18 29 39 29z" glyph-name="c" horiz-adv-x="639" unicode="c"/><glyph d="M395 730h220q30 0 30 -30v-670q0 -30 -30 -30h-190q-29 0 -34 30l-4 29q-2 18 -17 18q-13 0 -22 -16q-22 -36 -49 -53.5t-77 -17.5q-98 0 -155 66.5t-57 194.5q0 130 56 194.5t154 64.5q71 0 119 -51q9 -10 19 -8q7 2 7 15v234q0 30 30 30zM329 191q17 0 26.5 13t9.5 33 v26q0 20 -9.5 33t-26.5 13q-34 0 -34 -59t34 -59z" glyph-name="d" horiz-adv-x="665" unicode="d"/><glyph d="M356 196q12 19 27 19h226q32 0 26 -30q-19 -98 -103 -146.5t-207 -48.5q-139 0 -227 66t-88 194t85.5 194t219.5 66q128 0 211 -59.5t93 -180.5q3 -30 -29 -30h-275q-16 0 -23 -8t-2 -22q10 -30 35 -30q21 0 31 16zM326 340q-14 0 -22.5 -8t-8.5 -20q0 -22 30 -22 q31 0 31 22q0 28 -30 28z" glyph-name="e" horiz-adv-x="639" unicode="e"/><glyph d="M332 730h80q30 0 30 -30v-130q0 -30 -30 -30h-62q-20 0 -20 -20t20 -20h62q30 0 30 -30v-40q0 -30 -30 -30h-52q-30 0 -30 -30v-340q0 -30 -30 -30h-220q-30 0 -30 30v340q0 24 -20 29q-30 7 -30 31v40q0 26 30 31q21 3 26 29q17 106 77.5 153t198.5 47z" glyph-name="f" horiz-adv-x="442" unicode="f"/><glyph d="M108 -50h184q38 0 55.5 19.5t17.5 64.5q0 13 -8 15q-9 2 -18 -8q-48 -51 -119 -51q-98 0 -154 64.5t-56 194.5q0 128 57 194.5t155 66.5q50 0 77 -17.5t49 -53.5q9 -16 22 -16q15 0 17 18l4 29q5 30 34 30h190q30 0 30 -30v-449q0 -145 -65.5 -208t-216.5 -63h-255 q-30 0 -30 30v140q0 30 30 30zM329 309q-34 0 -34 -59t34 -59q17 0 26.5 13t9.5 33v26q0 20 -9.5 33t-26.5 13z" glyph-name="g" horiz-adv-x="665" unicode="g"/><glyph d="M300 700v-274q0 -18 17 -18q13 0 22 16q26 41 56 63.5t83 22.5q162 0 162 -161v-319q0 -30 -30 -30h-220q-30 0 -30 30v239q0 40 -28 40q-32 0 -32 -46v-233q0 -30 -30 -30h-220q-30 0 -30 30v670q0 30 30 30h220q30 0 30 -30z" glyph-name="h" horiz-adv-x="657" unicode="h"/><glyph d="M50 496l32 -4q18 -3 22 11q4 15 -11 20q-79 28 -79 100q0 50 40 83.5t106 33.5t106 -33.5t40 -83.5q0 -72 -79 -100q-15 -5 -11 -20q5 -14 22 -11l32 4q30 4 30 -26v-440q0 -30 -30 -30h-220q-30 0 -30 30v440q0 30 30 26z" glyph-name="i" unicode="i"/><glyph d="M50 496l32 -4q18 -3 22 11q4 15 -11 20q-79 28 -79 100q0 50 40 83.5t106 33.5t106 -33.5t40 -83.5q0 -72 -79 -100q-15 -5 -11 -20q5 -14 22 -11l32 4q30 4 30 -26v-441q0 -150 -65.5 -214.5t-216.5 -64.5h-110q-30 0 -30 30v140q0 30 30 30h39q73 0 73 90v430 q0 30 30 26z" glyph-name="j" unicode="j"/><glyph d="M363 30q5 98 -34 126q-11 8 -21 2q-8 -5 -8 -23v-105q0 -30 -30 -30h-220q-30 0 -30 30v670q0 30 30 30h220q30 0 30 -30v-325q0 -11 9 -14q11 -3 15 8l36 103q10 28 40 28h231q29 0 14 -26l-105 -174q-8 -13 -6 -24q3 -12 19 -17q53 -17 79 -70t29 -159q1 -30 -30 -30 h-241q-28 0 -27 30z" glyph-name="k" horiz-adv-x="671" unicode="k"/><glyph d="M20 30v670q0 30 30 30h220q30 0 30 -30v-670q0 -30 -30 -30h-220q-30 0 -30 30z" glyph-name="l" unicode="l"/><glyph d="M960 349v-319q0 -30 -30 -30h-220q-30 0 -30 30v239q0 40 -23 40q-27 0 -27 -46v-233q0 -30 -30 -30h-220q-30 0 -30 30v239q0 40 -23 40q-27 0 -27 -46v-233q0 -30 -30 -30h-220q-30 0 -30 30v440q0 30 30 30h190q30 0 33 -30l5 -44q2 -18 16 -18q13 0 22 16 q52 86 149 86q117 0 147 -84q7 -18 20 -18q10 0 19 16q52 86 149 86q160 0 160 -161z" glyph-name="m" horiz-adv-x="977" unicode="m"/><glyph d="M273 470l5 -44q2 -18 17 -18q13 0 22 16q54 86 155 86q168 0 168 -161v-319q0 -30 -30 -30h-220q-30 0 -30 30v239q0 40 -28 40q-32 0 -32 -46v-233q0 -30 -30 -30h-220q-30 0 -30 30v440q0 30 30 30h190q30 0 33 -30z" glyph-name="n" horiz-adv-x="657" unicode="n"/><glyph d="M10 250q0 128 87 194t223 66t223 -66t87 -194t-87 -194t-223 -66t-223 66t-87 194zM285 250q0 -70 35 -70t35 70t-35 70t-35 -70z" glyph-name="o" horiz-adv-x="640" unicode="o"/><glyph d="M270 -220h-220q-30 0 -30 30v660q0 30 30 30h190q30 0 34 -30l4 -29q2 -18 17 -18q13 0 22 16q22 36 49 53.5t77 17.5q99 0 155.5 -66.5t56.5 -194.5q0 -130 -56 -194.5t-154 -64.5q-71 0 -119 51q-9 10 -19 8q-7 -2 -7 -15v-224q0 -30 -30 -30zM336 309q-17 0 -26.5 -13 t-9.5 -33v-26q0 -20 9.5 -33t26.5 -13q34 0 34 59t-34 59z" glyph-name="p" horiz-adv-x="665" unicode="p"/><glyph d="M425 500h190q30 0 30 -30v-660q0 -30 -30 -30h-220q-30 0 -30 30v224q0 13 -7 15q-10 2 -19 -8q-48 -51 -119 -51q-98 0 -154 64.5t-56 194.5q0 128 57 194.5t155 66.5q50 0 77 -17.5t49 -53.5q9 -16 22 -16q15 0 17 18l4 29q5 30 34 30zM329 309q-34 0 -34 -59t34 -59 q17 0 26.5 13t9.5 33v26q0 20 -9.5 33t-26.5 13z" glyph-name="q" horiz-adv-x="665" unicode="q"/><glyph d="M273 470l5 -64q2 -18 17 -18q16 0 22 16q18 51 36 74.5t55 29.5q30 5 30 -28v-191q0 -29 -30 -26q-68 8 -88 -7.5t-20 -70.5v-155q0 -30 -30 -30h-220q-30 0 -30 30v440q0 30 30 30h190q30 0 33 -30z" glyph-name="r" horiz-adv-x="443" unicode="r"/><glyph d="M331 322q-10 8 -21 8q-30 0 -30 -22q0 -19 34 -25.5t82 -9t96.5 -10t82.5 -36.5t34 -81q0 -77 -72.5 -116.5t-211.5 -39.5q-146 0 -220 44t-91 141q-5 30 26 30h185q17 0 29 -4t17 -7.5t18 -15.5q8 -8 23 -8q13 0 22.5 6t9.5 16q0 19 -34 25.5t-82 9t-96.5 10t-82.5 36.5 t-34 81q0 77 72 116.5t210 39.5q145 0 218 -44t90 -141q5 -30 -26 -30h-183q-38 0 -65 27z" glyph-name="s" horiz-adv-x="619" unicode="s"/><glyph d="M397 0h-123q-128 0 -176 63t-48 216v91q0 24 -20 29q-30 7 -30 31v40q0 28 30 32q44 7 66 39.5t26 98.5q2 30 31 30h147q30 0 30 -30v-110q0 -30 30 -30h37q30 0 30 -30v-40q0 -30 -30 -30h-37q-30 0 -30 -30v-110q0 -39 9 -49.5t44 -10.5h14q30 0 30 -30v-140 q0 -30 -30 -30z" glyph-name="t" horiz-adv-x="432" unicode="t"/><glyph d="M379 30l-5 44q-2 18 -17 18q-12 0 -21 -16q-54 -86 -153 -86q-166 0 -166 161v319q0 30 30 30h220q30 0 30 -30v-239q0 -40 26 -40q29 0 29 46v233q0 30 30 30h220q30 0 30 -30v-440q0 -30 -30 -30h-190q-30 0 -33 30z" glyph-name="u" horiz-adv-x="652" unicode="u"/><glyph d="M293 470l17 -255q2 -19 16 -19t16 19l17 255q1 30 32 30h231q30 0 24 -29l-95 -442q-6 -29 -36 -29h-378q-30 0 -36 29l-95 442q-6 29 24 29h231q31 0 32 -30z" glyph-name="v" horiz-adv-x="652" unicode="v"/><glyph d="M431 129l-28 -100q-8 -29 -38 -29h-198q-30 0 -37 29l-103 442q-7 29 23 29h181q31 0 35 -30l21 -124q3 -14 17 -14t17 14l24 125q6 29 36 29h151q30 0 36 -29l23 -125q3 -14 18 -14q13 0 16 14l21 124q4 30 35 30h181q30 0 23 -29l-103 -442q-7 -29 -37 -29h-198 q-30 0 -38 29l-28 100q-6 19 -25 19t-25 -19z" glyph-name="w" horiz-adv-x="912" unicode="w"/><glyph d="M367 30l-14 105q-3 18 -17 18t-17 -18l-14 -105q-5 -30 -34 -30h-231q-30 0 -20 28l67 194q10 28 0 56l-67 194q-10 28 20 28h231q29 0 34 -30l14 -105q3 -18 17 -18t17 18l14 105q5 30 34 30h231q30 0 20 -28l-67 -194q-10 -28 0 -56l67 -194q10 -28 -20 -28h-231 q-29 0 -34 30z" glyph-name="x" horiz-adv-x="672" unicode="x"/><glyph d="M95 -20h154q58 0 81.5 28.5t23.5 95.5q0 18 -17 18q-12 0 -21 -16q-54 -86 -144 -86q-155 0 -155 161v289q0 30 30 30h220q30 0 30 -30v-209q0 -40 26 -40q29 0 29 46v203q0 30 30 30h220q30 0 30 -30v-419q0 -145 -65.5 -208t-216.5 -63h-255q-30 0 -30 30v140 q0 30 30 30z" glyph-name="y" horiz-adv-x="652" unicode="y"/><glyph d="M27 35l150 204q12 16 7 30q-3 11 -28 11h-116q-30 0 -30 30v160q0 30 30 30h459q16 0 19 -13q3 -10 -6 -22l-150 -204q-11 -16 -6 -28q6 -13 27 -13h116q30 0 30 -30v-160q0 -30 -30 -30h-459q-16 0 -19 13q-2 13 6 22z" glyph-name="z" horiz-adv-x="539" unicode="z"/><glyph d="M300 730h68q22 0 22 -19t-19 -27q-13 -5 -23 -12t-17 -13t-12 -17t-7.5 -17t-4.5 -22t-2.5 -22t-2 -26.5t-1.5 -27.5q-5 -84 -21 -119.5t-72 -57.5q-18 -7 -18 -20t18 -20q56 -22 72 -57.5t21 -119.5q0 -7 1.5 -27.5t2 -26.5t2.5 -22t4.5 -22t7.5 -17t12 -17t17 -13 t23 -12q19 -8 19 -27t-22 -19h-68q-100 0 -151 46.5t-58 171.5q-4 82 -15 119t-41 46q-15 4 -15 17t15 17q30 9 41 46t15 119q7 125 58 171.5t151 46.5z" glyph-name="braceleft" horiz-adv-x="370" unicode="{"/><glyph d="M20 -40v740q0 30 30 30h90q30 0 30 -30v-740q0 -30 -30 -30h-90q-30 0 -30 30z" glyph-name="bar" horiz-adv-x="190" unicode="|"/><glyph d="M70 730q100 0 151 -46.5t58 -171.5q4 -82 15 -119t41 -46q15 -4 15 -17t-15 -17q-30 -9 -41 -46t-15 -119q-7 -125 -58 -171.5t-151 -46.5h-68q-22 0 -22 19t19 27q13 5 23 12t17 13t12 17t7.5 17t4.5 22t2.5 22t2 26.5t1.5 27.5q5 84 21 119.5t72 57.5q18 7 18 20 t-18 20q-56 22 -72 57.5t-21 119.5q0 7 -1.5 27.5t-2 26.5t-2.5 22t-4.5 22t-7.5 17t-12 17t-17 13t-23 12q-19 8 -19 27t22 19h68z" glyph-name="braceright" horiz-adv-x="350" unicode="}"/><glyph d="M508 390q-7 -73 -48 -116.5t-108 -43.5q-41 0 -99.5 24.5t-76.5 24.5q-17 0 -25 -13q-18 -29 -37 -29h-74q-32 0 -29 30q8 73 49 117t107 44q41 0 100.5 -24.5t77.5 -24.5q15 0 24 12q20 29 37 29h73q32 0 29 -30z" glyph-name="asciitilde" horiz-adv-x="519" unicode="~"/><glyph d="M242 414q0 -42 -27 -69t-80 -27t-79.5 27t-26.5 69t26.5 69t79.5 27t80 -27t27 -69zM193 239q43 -165 60 -409q1 -30 -28 -30h-180q-29 0 -28 30q17 244 60 409q8 29 38 29h40q30 0 38 -29z" glyph-name="exclamdown" horiz-adv-x="270" unicode="¡"/><glyph d="M487 702l-24 -59q-10 -26 14 -45q84 -68 96 -206q2 -20 -19 -20h-201q-18 0 -24 20q-9 34 -37 34q-19 0 -30.5 -20.5t-11.5 -54.5q0 -35 15 -56t40 -21q39 0 50 36q6 20 24 20h201q21 0 19 -20q-11 -133 -87.5 -198t-206.5 -65q-23 0 -34 1q-30 3 -41 -24l-10 -25 q-8 -19 -28 -19h-68q-20 0 -12 19l22 55q10 26 -15 44q-109 77 -109 252q0 151 77 227t206 76q13 0 35 -2q30 -3 41 25l10 25q8 19 28 19h68q19 0 12 -18z" glyph-name="cent" horiz-adv-x="610" unicode="¢"/><glyph d="M434 265h-64q-25 0 -49 -23q-21 -21 -56 -36q-15 -6 -10 -22q5 -15 21 -14l343 28q20 2 20 -18v-160q0 -20 -20 -20h-563q-20 0 -20 20v160q0 20 14 34q13 13 22 25q7 10 3 18t-18 8h-37q-20 0 -20 20v60q0 20 20 20h22q14 0 18 7q5 8 -2 20q-32 66 -32 123 q0 88 81 141.5t218 53.5q306 0 329 -284q2 -20 -19 -20h-246q-18 0 -23 20q-7 34 -29 34q-26 0 -26 -36q0 -17 6 -32q11 -27 43 -27h74q20 0 20 -20v-60q0 -20 -20 -20z" glyph-name="sterling" horiz-adv-x="665" unicode="£"/><glyph d="M24 219l32 32q17 17 10 42q-7 30 -7 58q0 27 7 57q7 25 -10 42l-32 32q-14 14 0 28l43 43q14 14 28 0l33 -33q17 -17 42 -10q32 8 68 8t66 -8q25 -7 42 10l33 33q14 14 28 0l43 -43q14 -14 0 -28l-33 -33q-17 -17 -10 -42q7 -30 7 -56q0 -27 -7 -57q-7 -25 10 -42l33 -33 q14 -14 0 -28l-43 -43q-14 -14 -28 0l-33 33q-17 17 -42 10q-30 -8 -66 -8t-68 8q-25 7 -42 -10l-33 -33q-14 -14 -28 0l-43 43q-14 14 0 28zM160 350q0 -68 78 -68q77 0 77 68t-77 68q-78 0 -78 -68z" glyph-name="currency" horiz-adv-x="474" unicode="¤"/><glyph d="M144 183h43q19 0 17 18t-21 18h-39q-30 0 -30 30v40q0 13 6.5 19.5t23.5 11.5q15 5 7 23l-140 329q-12 28 18 28h251q29 0 32 -30l11 -135q2 -25 22 -25t22 25l11 135q3 30 32 30h251q30 0 18 -28l-140 -329q-8 -18 7 -23q17 -5 23.5 -11.5t6.5 -19.5v-40q0 -30 -30 -30 h-39q-19 0 -21 -18t17 -18h43q30 0 30 -30v-40q0 -30 -30 -30h-35q-26 0 -26 -26v-27q0 -30 -30 -30h-220q-30 0 -30 30v27q0 26 -26 26h-35q-30 0 -30 30v40q0 30 30 30z" glyph-name="yen" horiz-adv-x="690" unicode="¥"/><glyph d="M140 371h-90q-30 0 -30 30v299q0 30 30 30h90q30 0 30 -30v-299q0 -30 -30 -30zM140 -70h-90q-30 0 -30 30v299q0 30 30 30h90q30 0 30 -30v-299q0 -30 -30 -30z" glyph-name="brokenbar" horiz-adv-x="190" unicode="¦"/><glyph d="M394 435q-12 25 -45 25q-19 0 -29 -8.5t-10 -20.5q0 -24 39 -37t94.5 -21t111.5 -19.5t95 -41t39 -76.5q0 -53 -51 -82q-11 -6 -11 -15q0 -8 8 -15q44 -37 44 -103q0 -91 -85 -141t-234 -50q-165 0 -249.5 68t-98.5 206q-3 30 28 30h226q22 0 39 -29q13 -25 45 -25 q19 0 29 8.5t10 20.5q0 24 -39 37t-94.5 21t-111.5 19.5t-95 41t-39 76.5q0 53 51 82q11 6 11 15q0 8 -8 15q-44 37 -44 103q0 91 85 141t234 50q165 0 249.5 -68t98.5 -206q3 -30 -28 -30h-226q-22 0 -39 29zM384 264q0 17 -11.5 29t-29.5 12q-11 0 -19.5 -7.5t-8.5 -21.5 q0 -18 12 -29.5t29 -11.5q11 0 19.5 8t8.5 21z" glyph-name="section" horiz-adv-x="699" unicode="§"/><glyph d="M10 800q0 41 29.5 71t71.5 30t71 -30t29 -71t-29 -70.5t-71 -29.5t-71.5 29.5t-29.5 70.5zM238 800q0 41 30 71t71 30q42 0 71 -30t29 -71t-29 -70.5t-71 -29.5q-41 0 -71 29.5t-30 70.5z" glyph-name="dieresis" horiz-adv-x="449" unicode="¨"/><glyph d="M10 351q0 191 107 295t291 104q183 0 287.5 -104t104.5 -295q0 -196 -104 -298.5t-288 -102.5q-185 0 -291.5 103t-106.5 298zM130 350q0 -145 68.5 -214t209.5 -69q140 0 209 69t69 214q0 137 -70.5 210.5t-207.5 73.5q-138 0 -208 -73.5t-70 -210.5zM428 387 q-8 22 -27 22q-32 0 -32 -58q0 -27 11 -43.5t31 -16.5q25 0 35 23q8 19 25 19h157q21 0 19 -20q-10 -100 -71 -149t-165 -49q-109 0 -173.5 59t-64.5 176t62 176t166 59q99 0 158 -49t69 -148q2 -20 -19 -20h-156q-18 0 -25 19z" glyph-name="copyright" horiz-adv-x="810" unicode="©"/><glyph d="M238 393l-5 31q-2 12 -12 12q-9 0 -14 -11q-9 -19 -15 -28.5t-23 -19t-41 -9.5q-49 0 -83.5 44.5t-34.5 124.5q0 85 48 127t133 42q79 0 177 -5q20 -2 20 -21v-287q0 -20 -20 -20h-107q-20 0 -23 20zM200 506q21 0 21 28v16q0 26 -21 26t-21 -35t21 -35z" glyph-name="ordfeminine" horiz-adv-x="398" unicode="ª"/><glyph d="M284 406l-113 -113q-10 -10 -10 -21t10 -21l113 -113q14 -14 0 -28l-42 -42q-14 -14 -28 0l-190 190q-14 14 0 28l190 190q14 14 28 0l42 -42q14 -14 0 -28zM478 406l-113 -113q-10 -10 -10 -21t10 -21l113 -113q14 -14 0 -28l-42 -42q-14 -14 -28 0l-190 190 q-14 14 0 28l190 190q14 14 28 0l42 -42q14 -14 0 -28z" glyph-name="guillemotleft" horiz-adv-x="502" unicode="«"/><glyph d="M278 162v65q0 26 -26 26h-222q-20 0 -20 20v60q0 20 20 20h328q20 0 20 -20l1 -171q0 -20 -20 -20h-61q-20 0 -20 20z" glyph-name="logicalnot" horiz-adv-x="389" unicode="¬"/><glyph d="M30 494q0 116 69.5 181t178.5 65t177 -65t68 -181q0 -119 -67.5 -183t-177.5 -64t-179 64.5t-69 182.5zM104 494q0 -174 174 -174t174 174q0 84 -44.5 129.5t-129.5 45.5t-129.5 -45.5t-44.5 -129.5zM385 361h-18q-80 0 -93 107q-2 9 -9 9q-8 0 -8 -9l6 -87 q2 -20 -19 -20h-67q-20 0 -20 20v228q0 20 20 20h107q54 0 87.5 -17.5t33.5 -53.5q0 -54 -74 -67q-13 -2 -16 -9q-4 -9 5 -12q12 -2 25 -2h40q20 0 20 -20v-67q0 -20 -20 -20zM273 514h11q12 0 12 10q0 9 -12 9h-11q-11 0 -11 -10q0 -9 11 -9z" glyph-name="registered" horiz-adv-x="553" unicode="®"/><glyph d="M10 750v60q0 20 20 20h304q20 0 20 -20v-60q0 -20 -20 -20h-304q-20 0 -20 20z" glyph-name="macron" horiz-adv-x="364" unicode="¯"/><glyph d="M10 543q0 83 53 125.5t136 42.5q84 0 136.5 -42.5t52.5 -125.5t-53 -125.5t-136 -42.5t-136 43t-53 125zM163 543q0 -38 36 -38t36 38q0 39 -36 39t-36 -39z" glyph-name="degree" horiz-adv-x="398" unicode="°"/><glyph d="M30 133h111q30 0 30 30v87q0 30 -30 30h-111q-20 0 -20 20v60q0 20 20 20h111q30 0 30 30v111q0 20 20 20h60q20 0 20 -20v-111q0 -30 30 -30h111q20 0 20 -20v-60q0 -20 -20 -20h-111q-30 0 -30 -30v-87q0 -30 30 -30h111q20 0 20 -20v-60q0 -20 -20 -20h-382 q-20 0 -20 20v60q0 20 20 20z" glyph-name="plusminus" horiz-adv-x="442" unicode="±"/><glyph d="M200 476l105 8q20 2 20 -19v-90q0 -20 -20 -20h-275q-21 0 -19 20q4 38 23.5 69.5t44.5 50t49.5 33t41.5 26t17 20.5q0 11 -12 11q-10 0 -15 -8q-13 -19 -27 -19h-103q-21 0 -18 20q16 132 165 132q70 0 111.5 -26.5t41.5 -70.5q0 -33 -16 -54.5t-34.5 -30.5t-67.5 -27 q-12 -5 -18 -7q-9 -4 -6 -12q1 -6 12 -6z" glyph-name="uni00B2" horiz-adv-x="340" unicode="²"/><glyph d="M12 573q8 77 54 107t126 30q35 0 68 -7.5t62 -32t29 -61.5q0 -46 -35 -70q-6 -5 -6 -10t6 -9q35 -27 35 -71q0 -37 -29 -60.5t-62.5 -31t-68.5 -7.5q-79 0 -124.5 30.5t-54.5 106.5q-3 20 18 20h103q15 0 26 -19q8 -13 25 -13q29 0 29 17q0 13 -15 13h-10q-20 0 -20 20 v10q0 20 20 20h10q15 0 15 13q0 17 -28 17q-17 0 -26 -13q-14 -19 -26 -19h-103q-20 0 -18 20z" glyph-name="uni00B3" horiz-adv-x="361" unicode="³"/><glyph d="M20 717l62 114q8 17 30 17h170q19 0 5 -13l-144 -122q-14 -13 -35 -13h-78q-18 0 -10 17z" glyph-name="acute" horiz-adv-x="312" unicode="´"/><glyph d="M263 700h249q30 0 30 -30v-790q0 -30 -30 -30h-40q-30 0 -30 30v695q0 25 -20 25t-20 -25v-695q0 -30 -30 -30h-40q-30 0 -30 30v379q0 30 -30 30h-9q-112 0 -182.5 51.5t-70.5 154.5q0 101 71 153t182 52z" glyph-name="paragraph" horiz-adv-x="562" unicode="¶"/><glyph d="M10 350q0 47 29.5 76.5t77.5 29.5t77 -29.5t29 -76.5t-29 -76.5t-77 -29.5t-77.5 29.5t-29.5 76.5z" glyph-name="periodcentered" horiz-adv-x="233" unicode="·"/><glyph d="M186 -9l-6 -18q-4 -10 0 -20q5 -8 20 -11q64 -12 64 -78q0 -47 -41.5 -71.5t-107.5 -24.5q-44 0 -85 7q-20 3 -14 22l26 84q6 17 25 13q12 -3 24 -3q32 0 32 16q0 12 -11.5 15.5t-42.5 4.5q-20 0 -13 19l16 45q7 19 27 19h74q19 0 13 -19z" glyph-name="cedilla" horiz-adv-x="274" unicode="¸"/><glyph d="M47 370v112q0 18 -17 18q-20 0 -20 20v160q0 20 20 20h137q20 0 20 -20v-310q0 -20 -20 -20h-100q-20 0 -20 20z" glyph-name="uni00B9" horiz-adv-x="197" unicode="¹"/><glyph d="M10 530q0 89 46 134.5t118 45.5t118 -45.5t46 -134.5t-46 -134.5t-118 -45.5t-118 45.5t-46 134.5zM150 531q0 -41 25 -41q23 0 23 41q0 39 -23 39q-25 0 -25 -39z" glyph-name="ordmasculine" horiz-adv-x="348" unicode="º"/><glyph d="M218 138l113 113q11 11 11 21t-11 21l-113 113q-14 14 0 28l42 42q14 14 28 0l190 -190q14 -14 0 -28l-190 -190q-14 -14 -28 0l-42 42q-14 14 0 28zM24 138l113 113q11 11 11 21t-11 21l-113 113q-14 14 0 28l42 42q14 14 28 0l190 -190q14 -14 0 -28l-190 -190 q-14 -14 -28 0l-42 42q-14 14 0 28z" glyph-name="guillemotright" horiz-adv-x="502" unicode="»"/><glyph d="M54 18l338 664q9 18 29 18h73q20 0 11 -18l-338 -664q-9 -18 -29 -18h-73q-20 0 -11 18zM459 20v32q0 18 -18 18h-125q-20 0 -20 20v60q0 20 11 37l90 146q11 17 31 17h161q20 0 20 -20v-310q0 -20 -20 -20h-110q-20 0 -20 20zM418 170h23q18 0 19 19l4 59q0 11 -10 11 q-9 0 -15 -9l-32 -52q-6 -9 -3 -19q3 -9 14 -9zM47 370v112q0 18 -17 18q-20 0 -20 20v160q0 20 20 20h137q20 0 20 -20v-310q0 -20 -20 -20h-100q-20 0 -20 20z" glyph-name="onequarter" horiz-adv-x="619" unicode="¼"/><glyph d="M54 18l338 664q9 18 29 18h73q20 0 11 -18l-338 -664q-9 -18 -29 -18h-73q-20 0 -11 18zM47 370v112q0 18 -17 18q-20 0 -20 20v160q0 20 20 20h137q20 0 20 -20v-310q0 -20 -20 -20h-100q-20 0 -20 20zM623 129l-105 -8q-11 0 -12 6q-3 8 6 12q82 31 101 44q35 25 35 75 q0 44 -41.5 70.5t-111.5 26.5q-149 0 -165 -132q-3 -20 18 -20h103q14 0 27 19q5 8 15 8q12 0 12 -11q0 -9 -17 -20.5t-41.5 -26t-49.5 -33t-44.5 -50t-23.5 -69.5q-2 -20 19 -20h275q20 0 20 20v90q0 21 -20 19z" glyph-name="onehalf" horiz-adv-x="658" unicode="½"/><glyph d="M176 18l338 664q9 18 29 18h73q20 0 11 -18l-338 -664q-9 -18 -29 -18h-73q-20 0 -11 18zM581 20v32q0 18 -18 18h-125q-20 0 -20 20v60q0 20 11 37l90 146q11 17 31 17h161q20 0 20 -20v-310q0 -20 -20 -20h-110q-20 0 -20 20zM542 170h21q18 0 19 19l4 59q0 11 -10 11 q-9 0 -15 -9l-30 -52q-6 -9 -3 -19q3 -9 14 -9zM12 573q8 77 54 107t126 30q35 0 68 -7.5t62 -32t29 -61.5q0 -46 -35 -70q-6 -5 -6 -10t6 -9q35 -27 35 -71q0 -37 -29 -60.5t-62.5 -31t-68.5 -7.5q-79 0 -124.5 30.5t-54.5 106.5q-3 20 18 20h103q15 0 26 -19q8 -13 25 -13 q29 0 29 17q0 13 -15 13h-10q-20 0 -20 20v10q0 20 20 20h10q15 0 15 13q0 17 -28 17q-17 0 -26 -13q-14 -19 -26 -19h-103q-20 0 -18 20z" glyph-name="threequarters" horiz-adv-x="741" unicode="¾"/><glyph d="M374 246q-3 -39 -14.5 -66t-23.5 -38t-21.5 -25.5t-9.5 -31.5q0 -34 22 -34q20 0 25 41q3 30 31 30h206q31 0 28 -30q-26 -302 -334 -302q-130 0 -201.5 58t-71.5 158q0 49 21 86t53.5 59t66 37.5t66.5 30.5t46 29q27 28 42 28h40q31 0 29 -30zM432 414q0 -42 -27 -69 t-80 -27t-79.5 27t-26.5 69t26.5 69t79.5 27t80 -27t27 -69z" glyph-name="questiondown" horiz-adv-x="629" unicode="¿"/><glyph d="M409 30l-7 95q-2 30 -32 30h-8q-30 0 -32 -30l-7 -95q-1 -30 -32 -30h-261q-30 0 -24 29l135 642q6 29 36 29h378q30 0 36 -29l135 -642q6 -29 -24 -29h-261q-31 0 -32 30zM390 281l-8 114q-2 15 -16 15t-16 -15l-8 -114q-2 -26 24 -26t24 26zM422 871l62 -114 q8 -17 -10 -17h-78q-21 0 -35 13l-144 122q-14 13 5 13h170q22 0 30 -17z" glyph-name="Agrave" horiz-adv-x="732" unicode="À"/><glyph d="M409 30l-7 95q-2 30 -32 30h-8q-30 0 -32 -30l-7 -95q-1 -30 -32 -30h-261q-30 0 -24 29l135 642q6 29 36 29h378q30 0 36 -29l135 -642q6 -29 -24 -29h-261q-31 0 -32 30zM390 281l-8 114q-2 15 -16 15t-16 -15l-8 -114q-2 -26 24 -26t24 26zM248 757l62 114q8 17 30 17 h170q19 0 5 -13l-144 -122q-14 -13 -35 -13h-78q-18 0 -10 17z" glyph-name="Aacute" horiz-adv-x="732" unicode="Á"/><glyph d="M409 30l-7 95q-2 30 -32 30h-8q-30 0 -32 -30l-7 -95q-1 -30 -32 -30h-261q-30 0 -24 29l135 642q6 29 36 29h378q30 0 36 -29l135 -642q6 -29 -24 -29h-261q-31 0 -32 30zM390 281l-8 114q-2 15 -16 15t-16 -15l-8 -114q-2 -26 24 -26t24 26zM460 885l111 -130 q13 -15 -7 -15h-140q-19 0 -28 18l-15 31q-5 12 -15 12t-15 -11l-15 -32q-9 -18 -29 -18h-140q-20 0 -7 15l111 130q13 15 33 15h123q19 0 33 -15z" glyph-name="Acircumflex" horiz-adv-x="732" unicode="Â"/><glyph d="M409 30l-7 95q-2 30 -32 30h-8q-30 0 -32 -30l-7 -95q-1 -30 -32 -30h-261q-30 0 -24 29l135 642q6 29 36 29h378q30 0 36 -29l135 -642q6 -29 -24 -29h-261q-31 0 -32 30zM390 281l-8 114q-2 15 -16 15t-16 -15l-8 -114q-2 -26 24 -26t24 26zM548 873q-4 -63 -33 -98 t-75 -35q-29 0 -48.5 10t-33 20.5t-27.5 10.5q-17 0 -21 -21q-3 -20 -21 -20h-86q-21 0 -19 20q4 63 33 98t75 35q29 0 48.5 -10.5t33 -20.5t27.5 -10q17 0 21 21q3 20 21 20h86q21 0 19 -20z" glyph-name="Atilde" horiz-adv-x="732" unicode="Ã"/><glyph d="M409 30l-7 95q-2 30 -32 30h-8q-30 0 -32 -30l-7 -95q-1 -30 -32 -30h-261q-30 0 -24 29l135 642q6 29 36 29h378q30 0 36 -29l135 -642q6 -29 -24 -29h-261q-31 0 -32 30zM390 281l-8 114q-2 15 -16 15t-16 -15l-8 -114q-2 -26 24 -26t24 26zM151 840q0 41 29.5 71 t71.5 30t71 -30t29 -71t-29 -70.5t-71 -29.5t-71.5 29.5t-29.5 70.5zM379 840q0 41 30 71t71 30q42 0 71 -30t29 -71t-29 -70.5t-71 -29.5q-41 0 -71 29.5t-30 70.5z" glyph-name="Adieresis" horiz-adv-x="732" unicode="Ä"/><glyph d="M409 30l-7 95q-2 30 -32 30h-8q-30 0 -32 -30l-7 -95q-1 -30 -32 -30h-261q-30 0 -24 29l135 642q6 29 36 29h378q30 0 36 -29l135 -642q6 -29 -24 -29h-261q-31 0 -32 30zM390 281l-8 114q-2 15 -16 15t-16 -15l-8 -114q-2 -26 24 -26t24 26zM246 851q0 55 33.5 87.5 t87.5 32.5t87 -32.5t33 -87.5q0 -56 -32.5 -88.5t-87.5 -32.5t-88 32.5t-33 88.5zM343 851q0 -24 24 -24t24 24t-24 24t-24 -24z" glyph-name="Aring" horiz-adv-x="732" unicode="Å"/><glyph d="M329 97l-13 -68q-6 -29 -35 -29h-271q-30 0 -20 28l237 644q10 28 40 28h654q30 0 30 -30v-150q0 -30 -30 -30h-205q-25 0 -25 -25t25 -25h175q30 0 30 -30v-120q0 -30 -30 -30h-175q-25 0 -25 -25t25 -25h205q30 0 30 -30v-150q0 -30 -30 -30h-480q-31 0 -29 30l2 67 q2 30 -29 30h-21q-29 0 -35 -30zM420 257l4 125q0 24 -19 24q-20 0 -24 -23l-23 -126q-6 -30 25 -30h6q29 0 31 30z" glyph-name="AE" horiz-adv-x="968" unicode="Æ"/><glyph d="M387 405q-11 35 -43 35q-22 0 -35.5 -24t-13.5 -65q0 -42 17.5 -66.5t47.5 -24.5q43 0 57 37q11 29 37 29h226q31 0 28 -30q-15 -155 -105 -230.5t-243 -75.5q-160 0 -255 90t-95 270q0 179 91 269.5t244 90.5q146 0 232 -75.5t100 -228.5q3 -30 -28 -30h-226 q-26 0 -36 29zM408 -9l-6 -18q-4 -10 0 -20q5 -8 20 -11q64 -12 64 -78q0 -47 -41.5 -71.5t-107.5 -24.5q-44 0 -85 7q-20 3 -14 22l26 84q6 17 25 13q12 -3 24 -3q32 0 32 16q0 12 -11.5 15.5t-42.5 4.5q-20 0 -13 19l16 45q7 19 27 19h74q19 0 13 -19z" glyph-name="Ccedilla" horiz-adv-x="710" unicode="Ç"/><glyph d="M500 260h-175q-25 0 -25 -25t25 -25h205q30 0 30 -30v-150q0 -30 -30 -30h-480q-30 0 -30 30v640q0 30 30 30h480q30 0 30 -30v-150q0 -30 -30 -30h-205q-25 0 -25 -25t25 -25h175q30 0 30 -30v-120q0 -30 -30 -30zM346 871l62 -114q8 -17 -10 -17h-78q-21 0 -35 13 l-144 122q-14 13 5 13h170q22 0 30 -17z" glyph-name="Egrave" horiz-adv-x="577" unicode="È"/><glyph d="M500 260h-175q-25 0 -25 -25t25 -25h205q30 0 30 -30v-150q0 -30 -30 -30h-480q-30 0 -30 30v640q0 30 30 30h480q30 0 30 -30v-150q0 -30 -30 -30h-205q-25 0 -25 -25t25 -25h175q30 0 30 -30v-120q0 -30 -30 -30zM172 757l62 114q8 17 30 17h170q19 0 5 -13l-144 -122 q-14 -13 -35 -13h-78q-18 0 -10 17z" glyph-name="Eacute" horiz-adv-x="577" unicode="É"/><glyph d="M500 260h-175q-25 0 -25 -25t25 -25h205q30 0 30 -30v-150q0 -30 -30 -30h-480q-30 0 -30 30v640q0 30 30 30h480q30 0 30 -30v-150q0 -30 -30 -30h-205q-25 0 -25 -25t25 -25h175q30 0 30 -30v-120q0 -30 -30 -30zM384 885l111 -130q13 -15 -7 -15h-140q-19 0 -28 18 l-15 31q-5 12 -15 12t-15 -11l-15 -32q-9 -18 -29 -18h-140q-20 0 -7 15l111 130q13 15 33 15h123q19 0 33 -15z" glyph-name="Ecircumflex" horiz-adv-x="577" unicode="Ê"/><glyph d="M500 260h-175q-25 0 -25 -25t25 -25h205q30 0 30 -30v-150q0 -30 -30 -30h-480q-30 0 -30 30v640q0 30 30 30h480q30 0 30 -30v-150q0 -30 -30 -30h-205q-25 0 -25 -25t25 -25h175q30 0 30 -30v-120q0 -30 -30 -30zM75 840q0 41 29.5 71t71.5 30t71 -30t29 -71t-29 -70.5 t-71 -29.5t-71.5 29.5t-29.5 70.5zM303 840q0 41 30 71t71 30q42 0 71 -30t29 -71t-29 -70.5t-71 -29.5q-41 0 -71 29.5t-30 70.5z" glyph-name="Edieresis" horiz-adv-x="577" unicode="Ë"/><glyph d="M20 30v640q0 30 30 30h220q30 0 30 -30v-640q0 -30 -30 -30h-220q-30 0 -30 30zM216 871l62 -114q8 -17 -10 -17h-78q-21 0 -35 13l-144 122q-14 13 5 13h170q22 0 30 -17z" glyph-name="Igrave" unicode="Ì"/><glyph d="M20 30v640q0 30 30 30h220q30 0 30 -30v-640q0 -30 -30 -30h-220q-30 0 -30 30zM42 757l62 114q8 17 30 17h170q19 0 5 -13l-144 -122q-14 -13 -35 -13h-78q-18 0 -10 17z" glyph-name="Iacute" unicode="Í"/><glyph d="M20 30v640q0 30 30 30h220q30 0 30 -30v-640q0 -30 -30 -30h-220q-30 0 -30 30zM254 885l111 -130q14 -15 -7 -15h-140q-19 0 -28 18l-15 31q-5 12 -15 12t-15 -11l-15 -32q-9 -18 -29 -18h-140q-20 0 -7 15l111 130q13 15 33 15h123q19 0 33 -15z" glyph-name="Icircumflex" unicode="Î"/><glyph d="M20 30v640q0 30 30 30h220q30 0 30 -30v-640q0 -30 -30 -30h-220q-30 0 -30 30zM-55 840q0 41 29.5 71t71.5 30t71 -30t29 -71t-29 -70.5t-71 -29.5t-71.5 29.5t-29.5 70.5zM173 840q0 41 30 71t71 30q42 0 71 -30t29 -71t-29 -70.5t-71 -29.5q-41 0 -71 29.5t-30 70.5z " glyph-name="Idieresis" unicode="Ï"/><glyph d="M10 401q20 5 20 29v240q0 30 30 30h311q146 0 225.5 -86.5t79.5 -263.5q0 -178 -79.5 -264t-225.5 -86h-311q-30 0 -30 30v240q0 24 -20 29q-30 7 -30 31v40q0 24 30 31zM338 300q-31 -2 -28 -30q1 -20 25 -20h6q50 0 50 102q0 98 -50 98h-6q-24 0 -25 -20q-3 -28 28 -30 q30 -2 30 -30v-40q0 -28 -30 -30z" glyph-name="Eth" horiz-adv-x="686" unicode="Ð"/><glyph d="M277 149l10 -119q3 -30 -27 -30h-210q-30 0 -30 30v640q0 30 30 30h159q27 0 48 -24l118 -141q18 -20 30 -20q22 0 20 25l-11 130q-3 30 28 30h210q30 0 30 -30v-640q0 -30 -30 -30h-159q-28 0 -49 23l-116 132q-15 19 -30 19q-23 0 -21 -25zM538 873q-4 -63 -33 -98 t-75 -35q-29 0 -48.5 10t-33 20.5t-27.5 10.5q-17 0 -21 -21q-3 -20 -21 -20h-86q-21 0 -19 20q4 63 33 98t75 35q29 0 48.5 -10.5t33 -20.5t27.5 -10q17 0 21 21q3 20 21 20h86q21 0 19 -20z" glyph-name="Ntilde" horiz-adv-x="712" unicode="Ñ"/><glyph d="M10 350q0 179 96.5 269.5t258.5 90.5t258.5 -90.5t96.5 -269.5q0 -180 -96 -270t-259 -90t-259 90t-96 270zM295 351q0 -40 19 -60.5t51 -20.5t51 20.5t19 60.5q0 39 -19.5 59t-50.5 20t-50.5 -20t-19.5 -59zM421 871l62 -114q9 -17 -10 -17h-78q-21 0 -35 13l-144 122 q-14 13 5 13h170q21 0 30 -17z" glyph-name="Ograve" horiz-adv-x="730" unicode="Ò"/><glyph d="M10 350q0 179 96.5 269.5t258.5 90.5t258.5 -90.5t96.5 -269.5q0 -180 -96 -270t-259 -90t-259 90t-96 270zM295 351q0 -40 19 -60.5t51 -20.5t51 20.5t19 60.5q0 39 -19.5 59t-50.5 20t-50.5 -20t-19.5 -59zM247 757l62 114q9 17 30 17h170q19 0 5 -13l-144 -122 q-14 -13 -35 -13h-78q-19 0 -10 17z" glyph-name="Oacute" horiz-adv-x="730" unicode="Ó"/><glyph d="M10 350q0 179 96.5 269.5t258.5 90.5t258.5 -90.5t96.5 -269.5q0 -180 -96 -270t-259 -90t-259 90t-96 270zM295 351q0 -40 19 -60.5t51 -20.5t51 20.5t19 60.5q0 39 -19.5 59t-50.5 20t-50.5 -20t-19.5 -59zM459 885l111 -130q14 -15 -7 -15h-140q-19 0 -28 18l-15 31 q-5 12 -15 12t-15 -11l-15 -32q-9 -18 -29 -18h-140q-20 0 -7 15l111 130q14 15 33 15h123q20 0 33 -15z" glyph-name="Ocircumflex" horiz-adv-x="730" unicode="Ô"/><glyph d="M10 350q0 179 96.5 269.5t258.5 90.5t258.5 -90.5t96.5 -269.5q0 -180 -96 -270t-259 -90t-259 90t-96 270zM295 351q0 -40 19 -60.5t51 -20.5t51 20.5t19 60.5q0 39 -19.5 59t-50.5 20t-50.5 -20t-19.5 -59zM547 873q-4 -63 -33 -98t-75 -35q-37 0 -66 20.5t-43 20.5 q-18 0 -21 -21q-3 -20 -21 -20h-86q-21 0 -19 20q4 63 33 98t75 35q37 0 66 -20.5t43 -20.5q18 0 21 21q3 20 21 20h86q21 0 19 -20z" glyph-name="Otilde" horiz-adv-x="730" unicode="Õ"/><glyph d="M10 350q0 179 96.5 269.5t258.5 90.5t258.5 -90.5t96.5 -269.5q0 -180 -96 -270t-259 -90t-259 90t-96 270zM295 351q0 -40 19 -60.5t51 -20.5t51 20.5t19 60.5q0 39 -19.5 59t-50.5 20t-50.5 -20t-19.5 -59zM150 840q0 41 29.5 71t71.5 30t71 -30t29 -71t-29 -70.5 t-71 -29.5t-71.5 29.5t-29.5 70.5zM378 840q0 41 30 71t71 30q42 0 71 -30t29 -71t-29 -70.5t-71 -29.5q-41 0 -71 29.5t-30 70.5z" glyph-name="Odieresis" horiz-adv-x="730" unicode="Ö"/><glyph d="M287 161l-74 94q-8 11 -18 11t-18 -11l-74 -94q-12 -17 -27 -3l-51 45q-15 14 -2 28l82 96q10 11 10 23q0 10 -10 23l-82 96q-13 14 2 28l51 45q15 14 27 -3l74 -94q8 -11 18 -11t18 11l74 94q12 17 27 3l51 -45q15 -14 2 -28l-82 -96q-10 -12 -10 -23q0 -12 10 -23 l82 -96q13 -14 -2 -28l-51 -45q-15 -14 -27 3z" glyph-name="multiply" horiz-adv-x="390" unicode="×"/><glyph d="M166 -23l11 20q14 24 -12 39q-155 87 -155 314q0 179 96.5 269.5t258.5 90.5q27 0 53 -3t41 16q13 17 31 17h65q20 0 9 -17l-12 -20q-14 -24 12 -39q156 -88 156 -314q0 -180 -96 -270t-259 -90q-27 0 -53 3q-27 3 -41 -16q-13 -17 -30 -17h-65q-20 0 -10 17zM295 351 q0 -40 19 -60.5t51 -20.5t51 20.5t19 60.5q0 39 -19.5 59t-50.5 20t-50.5 -20t-19.5 -59z" glyph-name="Oslash" horiz-adv-x="730" unicode="Ø"/><glyph d="M15 293v377q0 30 30 30h220q30 0 30 -30v-166q0 -38 10.5 -51t29.5 -13q20 0 30 12.5t10 51.5v166q0 30 30 30h220q30 0 30 -30v-377q0 -73 -16.5 -127t-44.5 -87.5t-70.5 -53.5t-87 -27.5t-101.5 -7.5t-101.5 7.5t-87 27.5t-70.5 53.5t-44.5 87.5t-16.5 127zM391 871 l62 -114q9 -17 -10 -17h-78q-21 0 -35 13l-144 122q-14 13 5 13h170q21 0 30 -17z" glyph-name="Ugrave" horiz-adv-x="670" unicode="Ù"/><glyph d="M15 293v377q0 30 30 30h220q30 0 30 -30v-166q0 -38 10.5 -51t29.5 -13q20 0 30 12.5t10 51.5v166q0 30 30 30h220q30 0 30 -30v-377q0 -73 -16.5 -127t-44.5 -87.5t-70.5 -53.5t-87 -27.5t-101.5 -7.5t-101.5 7.5t-87 27.5t-70.5 53.5t-44.5 87.5t-16.5 127zM217 757 l62 114q9 17 30 17h170q19 0 5 -13l-144 -122q-14 -13 -35 -13h-78q-19 0 -10 17z" glyph-name="Uacute" horiz-adv-x="670" unicode="Ú"/><glyph d="M15 293v377q0 30 30 30h220q30 0 30 -30v-166q0 -38 10.5 -51t29.5 -13q20 0 30 12.5t10 51.5v166q0 30 30 30h220q30 0 30 -30v-377q0 -73 -16.5 -127t-44.5 -87.5t-70.5 -53.5t-87 -27.5t-101.5 -7.5t-101.5 7.5t-87 27.5t-70.5 53.5t-44.5 87.5t-16.5 127zM429 885 l111 -130q14 -15 -7 -15h-140q-19 0 -28 18l-15 31q-5 12 -15 12t-15 -11l-15 -32q-9 -18 -29 -18h-140q-20 0 -7 15l111 130q14 15 33 15h123q20 0 33 -15z" glyph-name="Ucircumflex" horiz-adv-x="670" unicode="Û"/><glyph d="M15 293v377q0 30 30 30h220q30 0 30 -30v-166q0 -38 10.5 -51t29.5 -13q20 0 30 12.5t10 51.5v166q0 30 30 30h220q30 0 30 -30v-377q0 -73 -16.5 -127t-44.5 -87.5t-70.5 -53.5t-87 -27.5t-101.5 -7.5t-101.5 7.5t-87 27.5t-70.5 53.5t-44.5 87.5t-16.5 127zM120 840 q0 41 29.5 71t71.5 30t71 -30t29 -71t-29 -70.5t-71 -29.5t-71.5 29.5t-29.5 70.5zM348 840q0 41 30 71t71 30q42 0 71 -30t29 -71t-29 -70.5t-71 -29.5q-41 0 -71 29.5t-30 70.5z" glyph-name="Udieresis" horiz-adv-x="670" unicode="Ü"/><glyph d="M206 30v128q0 35 -14 71l-181 443q-12 28 19 28h251q29 0 32 -30l11 -135q2 -25 22 -25t22 25l11 135q3 30 32 30h251q31 0 19 -28l-181 -443q-14 -36 -14 -71v-128q0 -30 -30 -30h-220q-30 0 -30 30zM225 757l62 114q9 17 30 17h170q19 0 5 -13l-144 -122 q-14 -13 -35 -13h-78q-19 0 -10 17z" glyph-name="Yacute" horiz-adv-x="692" unicode="Ý"/><glyph d="M300 670v-15q0 -30 30 -30h21q139 0 227 -69.5t88 -205.5q0 -137 -88 -206t-227 -69h-21q-30 0 -30 -30v-15q0 -30 -30 -30h-220q-30 0 -30 30v640q0 30 30 30h220q30 0 30 -30zM325 325h26q15 0 22.5 7.5t7.5 18.5q0 24 -30 24h-26q-25 0 -25 -25t25 -25z" glyph-name="Thorn" horiz-adv-x="676" unicode="Þ"/><glyph d="M17 30v436q0 115 79.5 174.5t231.5 59.5q147 0 216 -46t69 -149q0 -43 -19.5 -70.5t-62.5 -50.5q-15 -8 -14 -21q2 -15 16 -16q170 -14 170 -147q0 -103 -73.5 -151.5t-221.5 -48.5h-36q-30 0 -30 30v190q0 28 30 30q24 1 35 12.5t11 28.5q0 38 -40 44q-23 3 -23 19 t23 25q20 8 20 34q0 17 -12 29.5t-36 12.5q-53 0 -53 -76v-349q0 -30 -30 -30h-220q-30 0 -30 30z" glyph-name="germandbls" horiz-adv-x="703" unicode="ß"/><glyph d="M391 30l-4 29q-2 18 -17 18q-13 0 -22 -16q-22 -36 -49 -53.5t-77 -17.5q-98 0 -155 66.5t-57 194.5q0 130 56 194.5t154 64.5q71 0 119 -51q8 -9 18 -7q8 2 8 14v4q0 30 30 30h220q30 0 30 -30v-440q0 -30 -30 -30h-190q-29 0 -34 30zM329 191q17 0 26.5 13t9.5 33v26 q0 20 -9.5 33t-26.5 13q-34 0 -34 -59t34 -59zM395 671l62 -114q9 -17 -10 -17h-78q-21 0 -35 13l-144 122q-14 13 5 13h170q21 0 30 -17z" glyph-name="agrave" horiz-adv-x="665" unicode="à"/><glyph d="M391 30l-4 29q-2 18 -17 18q-13 0 -22 -16q-22 -36 -49 -53.5t-77 -17.5q-98 0 -155 66.5t-57 194.5q0 130 56 194.5t154 64.5q71 0 119 -51q8 -9 18 -7q8 2 8 14v4q0 30 30 30h220q30 0 30 -30v-440q0 -30 -30 -30h-190q-29 0 -34 30zM329 191q17 0 26.5 13t9.5 33v26 q0 20 -9.5 33t-26.5 13q-34 0 -34 -59t34 -59zM221 557l62 114q9 17 30 17h170q19 0 5 -13l-144 -122q-14 -13 -35 -13h-78q-19 0 -10 17z" glyph-name="aacute" horiz-adv-x="665" unicode="á"/><glyph d="M391 30l-4 29q-2 18 -17 18q-13 0 -22 -16q-22 -36 -49 -53.5t-77 -17.5q-98 0 -155 66.5t-57 194.5q0 130 56 194.5t154 64.5q71 0 119 -51q8 -9 18 -7q8 2 8 14v4q0 30 30 30h220q30 0 30 -30v-440q0 -30 -30 -30h-190q-29 0 -34 30zM329 191q17 0 26.5 13t9.5 33v26 q0 20 -9.5 33t-26.5 13q-34 0 -34 -59t34 -59zM433 685l111 -130q13 -15 -7 -15h-140q-19 0 -28 18l-15 31q-5 12 -15 12t-15 -11l-15 -32q-9 -18 -29 -18h-140q-21 0 -7 15l111 130q14 15 33 15h123q20 0 33 -15z" glyph-name="acircumflex" horiz-adv-x="665" unicode="â"/><glyph d="M391 30l-4 29q-2 18 -17 18q-13 0 -22 -16q-22 -36 -49 -53.5t-77 -17.5q-98 0 -155 66.5t-57 194.5q0 130 56 194.5t154 64.5q71 0 119 -51q8 -9 18 -7q8 2 8 14v4q0 30 30 30h220q30 0 30 -30v-440q0 -30 -30 -30h-190q-29 0 -34 30zM329 191q17 0 26.5 13t9.5 33v26 q0 20 -9.5 33t-26.5 13q-34 0 -34 -59t34 -59zM521 673q-4 -63 -33 -98t-75 -35q-37 0 -66 20.5t-43 20.5q-18 0 -21 -21q-3 -20 -21 -20h-86q-21 0 -19 20q4 63 33 98t75 35q37 0 66 -20.5t43 -20.5q18 0 21 21q3 20 21 20h86q21 0 19 -20z" glyph-name="atilde" horiz-adv-x="665" unicode="ã"/><glyph d="M391 30l-4 29q-2 18 -17 18q-13 0 -22 -16q-22 -36 -49 -53.5t-77 -17.5q-98 0 -155 66.5t-57 194.5q0 130 56 194.5t154 64.5q71 0 119 -51q8 -9 18 -7q8 2 8 14v4q0 30 30 30h220q30 0 30 -30v-440q0 -30 -30 -30h-190q-29 0 -34 30zM329 191q17 0 26.5 13t9.5 33v26 q0 20 -9.5 33t-26.5 13q-34 0 -34 -59t34 -59zM124 640q0 41 29.5 71t71.5 30t71 -30t29 -71t-29 -70.5t-71 -29.5t-71.5 29.5t-29.5 70.5zM352 640q0 41 30 71t71 30q42 0 71 -30t29 -71t-29 -70.5t-71 -29.5q-41 0 -71 29.5t-30 70.5z" glyph-name="adieresis" horiz-adv-x="665" unicode="ä"/><glyph d="M391 30l-4 29q-2 18 -17 18q-13 0 -22 -16q-22 -36 -49 -53.5t-77 -17.5q-98 0 -155 66.5t-57 194.5q0 130 56 194.5t154 64.5q71 0 119 -51q8 -9 18 -7q8 2 8 14v4q0 30 30 30h220q30 0 30 -30v-440q0 -30 -30 -30h-190q-29 0 -34 30zM329 191q17 0 26.5 13t9.5 33v26 q0 20 -9.5 33t-26.5 13q-34 0 -34 -59t34 -59zM219 651q0 55 33.5 87.5t87.5 32.5t87 -32.5t33 -87.5q0 -56 -32.5 -88.5t-87.5 -32.5t-88 32.5t-33 88.5zM316 651q0 -24 24 -24t24 24t-24 24t-24 -24z" glyph-name="aring" horiz-adv-x="665" unicode="å"/><glyph d="M991 185q-19 -98 -103 -146.5t-207 -48.5q-32 0 -70 5q-35 5 -60 5h-126q-29 0 -34 30l-4 29q-2 18 -17 18q-13 0 -22 -16q-22 -36 -49 -53.5t-77 -17.5q-98 0 -155 66.5t-57 194.5q0 130 56 194.5t154 64.5q71 0 119 -51q8 -9 18 -7q8 2 8 14v4q0 30 30 30h149 q17 0 59 6q29 4 68 4q128 0 211 -59.5t93 -180.5q3 -30 -29 -30h-275q-11 0 -18.5 -8t-7.5 -21q0 -31 36 -31q16 0 24 8q32 27 44 27h216q32 0 26 -30zM682 340q-14 0 -22.5 -8t-8.5 -20q0 -22 30 -22q31 0 31 22q0 28 -30 28zM329 191q17 0 26.5 13t9.5 33v26q0 20 -9.5 33 t-26.5 13q-34 0 -34 -59t34 -59z" glyph-name="ae" horiz-adv-x="995" unicode="æ"/><glyph d="M393 225h216q32 0 26 -30q-19 -102 -103.5 -153.5t-206.5 -51.5q-139 0 -227 66t-88 194t85.5 194t219.5 66q118 0 200 -52t100 -153q5 -30 -26 -30h-216q-24 0 -36 29q-7 16 -21 16q-31 0 -31 -70t40 -70q19 0 29 16q18 29 39 29zM365 -9l-6 -18q-4 -10 0 -20 q5 -8 20 -11q64 -12 64 -78q0 -47 -41.5 -71.5t-107.5 -24.5q-44 0 -85 7q-20 3 -14 22l26 84q6 17 25 13q12 -3 24 -3q32 0 32 16q0 12 -11.5 15.5t-42.5 4.5q-20 0 -13 19l16 45q7 19 27 19h74q19 0 13 -19z" glyph-name="ccedilla" horiz-adv-x="639" unicode="ç"/><glyph d="M356 196q12 19 27 19h226q32 0 26 -30q-19 -98 -103 -146.5t-207 -48.5q-139 0 -227 66t-88 194t85.5 194t219.5 66q128 0 211 -59.5t93 -180.5q3 -30 -29 -30h-275q-16 0 -23 -8t-2 -22q10 -30 35 -30q21 0 31 16zM326 340q-14 0 -22.5 -8t-8.5 -20q0 -22 30 -22 q31 0 31 22q0 28 -30 28zM372 671l62 -114q8 -17 -10 -17h-78q-21 0 -35 13l-144 122q-14 13 5 13h170q22 0 30 -17z" glyph-name="egrave" horiz-adv-x="639" unicode="è"/><glyph d="M356 196q12 19 27 19h226q32 0 26 -30q-19 -98 -103 -146.5t-207 -48.5q-139 0 -227 66t-88 194t85.5 194t219.5 66q128 0 211 -59.5t93 -180.5q3 -30 -29 -30h-275q-16 0 -23 -8t-2 -22q10 -30 35 -30q21 0 31 16zM326 340q-14 0 -22.5 -8t-8.5 -20q0 -22 30 -22 q31 0 31 22q0 28 -30 28zM198 557l62 114q8 17 30 17h170q19 0 5 -13l-144 -122q-14 -13 -35 -13h-78q-18 0 -10 17z" glyph-name="eacute" horiz-adv-x="639" unicode="é"/><glyph d="M356 196q12 19 27 19h226q32 0 26 -30q-19 -98 -103 -146.5t-207 -48.5q-139 0 -227 66t-88 194t85.5 194t219.5 66q128 0 211 -59.5t93 -180.5q3 -30 -29 -30h-275q-16 0 -23 -8t-2 -22q10 -30 35 -30q21 0 31 16zM326 340q-14 0 -22.5 -8t-8.5 -20q0 -22 30 -22 q31 0 31 22q0 28 -30 28zM410 685l111 -130q13 -15 -7 -15h-140q-19 0 -28 18l-15 31q-5 12 -15 12t-15 -11l-15 -32q-9 -18 -29 -18h-140q-21 0 -7 15l111 130q13 15 33 15h123q19 0 33 -15z" glyph-name="ecircumflex" horiz-adv-x="639" unicode="ê"/><glyph d="M356 196q12 19 27 19h226q32 0 26 -30q-19 -98 -103 -146.5t-207 -48.5q-139 0 -227 66t-88 194t85.5 194t219.5 66q128 0 211 -59.5t93 -180.5q3 -30 -29 -30h-275q-16 0 -23 -8t-2 -22q10 -30 35 -30q21 0 31 16zM326 340q-14 0 -22.5 -8t-8.5 -20q0 -22 30 -22 q31 0 31 22q0 28 -30 28zM101 640q0 41 29.5 71t71.5 30t71 -30t29 -71t-29 -70.5t-71 -29.5t-71.5 29.5t-29.5 70.5zM329 640q0 41 30 71t71 30q42 0 71 -30t29 -71t-29 -70.5t-71 -29.5q-41 0 -71 29.5t-30 70.5z" glyph-name="edieresis" horiz-adv-x="639" unicode="ë"/><glyph d="M20 30v440q0 30 30 30h220q30 0 30 -30v-440q0 -30 -30 -30h-220q-30 0 -30 30zM216 691l62 -114q8 -17 -10 -17h-78q-21 0 -35 13l-144 122q-14 13 5 13h170q22 0 30 -17z" glyph-name="igrave" unicode="ì"/><glyph d="M20 30v440q0 30 30 30h220q30 0 30 -30v-440q0 -30 -30 -30h-220q-30 0 -30 30zM42 577l62 114q8 17 30 17h170q19 0 5 -13l-144 -122q-14 -13 -35 -13h-78q-18 0 -10 17z" glyph-name="iacute" unicode="í"/><glyph d="M20 30v440q0 30 30 30h220q30 0 30 -30v-440q0 -30 -30 -30h-220q-30 0 -30 30zM254 705l111 -130q14 -15 -7 -15h-140q-19 0 -28 18l-15 31q-5 12 -15 12t-15 -11l-15 -32q-9 -18 -29 -18h-140q-20 0 -7 15l111 130q13 15 33 15h123q19 0 33 -15z" glyph-name="icircumflex" unicode="î"/><glyph d="M20 30v440q0 30 30 30h220q30 0 30 -30v-440q0 -30 -30 -30h-220q-30 0 -30 30zM-55 660q0 41 29.5 71t71.5 30t71 -30t29 -71t-29 -70.5t-71 -29.5t-71.5 29.5t-29.5 70.5zM173 660q0 41 30 71t71 30q42 0 71 -30t29 -71t-29 -70.5t-71 -29.5q-41 0 -71 29.5t-30 70.5z " glyph-name="idieresis" unicode="ï"/><glyph d="M534 654l35 35q21 21 42 0l64 -65q21 -21 0 -42l-24 -24q-20 -20 -4 -46q49 -80 49 -195q0 -161 -90 -244t-266 -83q-154 0 -242 59.5t-88 163.5t87.5 164t239.5 60h21q16 -1 22 7t-4 18q-12 18 -69 17.5t-174 -24.5q-29 -6 -29 24v201q0 30 30 30q218 -5 352 -64 q28 -12 48 8zM385 295q0 23 -13.5 38.5t-35.5 15.5q-20 0 -33 -15.5t-13 -38.5t13.5 -39t32.5 -16q21 0 35 16t14 39z" glyph-name="eth" horiz-adv-x="706" unicode="ð"/><glyph d="M273 470l5 -44q2 -18 17 -18q13 0 22 16q54 86 155 86q168 0 168 -161v-319q0 -30 -30 -30h-220q-30 0 -30 30v239q0 40 -28 40q-32 0 -32 -46v-233q0 -30 -30 -30h-220q-30 0 -30 30v440q0 30 30 30h190q30 0 33 -30zM512 673q-4 -63 -33 -98t-75 -35q-29 0 -48.5 10 t-33 20.5t-27.5 10.5q-17 0 -21 -21q-3 -20 -21 -20h-86q-21 0 -19 20q4 63 33 98t75 35q29 0 48.5 -10.5t33 -20.5t27.5 -10q17 0 21 21q3 20 21 20h86q21 0 19 -20z" glyph-name="ntilde" horiz-adv-x="657" unicode="ñ"/><glyph d="M10 250q0 128 87 194t223 66t223 -66t87 -194t-87 -194t-223 -66t-223 66t-87 194zM285 250q0 -70 35 -70t35 70t-35 70t-35 -70zM376 671l62 -114q8 -17 -10 -17h-78q-21 0 -35 13l-144 122q-14 13 5 13h170q22 0 30 -17z" glyph-name="ograve" horiz-adv-x="640" unicode="ò"/><glyph d="M10 250q0 128 87 194t223 66t223 -66t87 -194t-87 -194t-223 -66t-223 66t-87 194zM285 250q0 -70 35 -70t35 70t-35 70t-35 -70zM202 557l62 114q8 17 30 17h170q19 0 5 -13l-144 -122q-14 -13 -35 -13h-78q-18 0 -10 17z" glyph-name="oacute" horiz-adv-x="640" unicode="ó"/><glyph d="M10 250q0 128 87 194t223 66t223 -66t87 -194t-87 -194t-223 -66t-223 66t-87 194zM285 250q0 -70 35 -70t35 70t-35 70t-35 -70zM414 685l111 -130q14 -15 -7 -15h-140q-19 0 -28 18l-15 31q-5 12 -15 12t-15 -11l-15 -32q-9 -18 -29 -18h-140q-20 0 -7 15l111 130 q13 15 33 15h123q19 0 33 -15z" glyph-name="ocircumflex" horiz-adv-x="640" unicode="ô"/><glyph d="M10 250q0 128 87 194t223 66t223 -66t87 -194t-87 -194t-223 -66t-223 66t-87 194zM285 250q0 -70 35 -70t35 70t-35 70t-35 -70zM502 673q-4 -63 -33 -98t-75 -35q-29 0 -48.5 10t-33 20.5t-27.5 10.5q-17 0 -21 -21q-3 -20 -21 -20h-86q-21 0 -19 20q4 63 33 98t75 35 q29 0 48.5 -10.5t33 -20.5t27.5 -10q17 0 21 21q3 20 21 20h86q21 0 19 -20z" glyph-name="otilde" horiz-adv-x="640" unicode="õ"/><glyph d="M10 250q0 128 87 194t223 66t223 -66t87 -194t-87 -194t-223 -66t-223 66t-87 194zM285 250q0 -70 35 -70t35 70t-35 70t-35 -70zM105 640q0 41 29.5 71t71.5 30t71 -30t29 -71t-29 -70.5t-71 -29.5t-71.5 29.5t-29.5 70.5zM333 640q0 41 30 71t71 30q42 0 71 -30t29 -71 t-29 -70.5t-71 -29.5q-41 0 -71 29.5t-30 70.5z" glyph-name="odieresis" horiz-adv-x="640" unicode="ö"/><glyph d="M10 320v60q0 20 20 20h382q20 0 20 -20v-60q0 -20 -20 -20h-382q-20 0 -20 20zM138 184q0 38 23 60.5t61 22.5t60.5 -22.5t22.5 -60.5t-22.5 -60.5t-60.5 -22.5t-61 22.5t-23 60.5zM138 516q0 38 23 60.5t61 22.5t60.5 -22.5t22.5 -60.5t-22.5 -60.5t-60.5 -22.5 t-61 22.5t-23 60.5z" glyph-name="divide" horiz-adv-x="442" unicode="÷"/><glyph d="M146 -23l7 13q15 25 -12 38q-131 66 -131 222q0 128 87 194t223 66q34 0 50 -2q26 -3 41 15q14 17 31 17h65q20 0 9 -17l-12 -20q-14 -24 12 -40q114 -68 114 -213q0 -128 -87 -194t-223 -66q-20 0 -30 1q-26 2 -39 -14q-14 -17 -30 -17h-65q-20 0 -10 17zM285 250 q0 -70 35 -70t35 70t-35 70t-35 -70z" glyph-name="oslash" horiz-adv-x="640" unicode="ø"/><glyph d="M379 30l-5 44q-2 18 -17 18q-12 0 -21 -16q-54 -86 -153 -86q-166 0 -166 161v319q0 30 30 30h220q30 0 30 -30v-239q0 -40 26 -40q29 0 29 46v233q0 30 30 30h220q30 0 30 -30v-440q0 -30 -30 -30h-190q-30 0 -33 30zM382 671l62 -114q8 -17 -10 -17h-78q-21 0 -35 13 l-144 122q-14 13 5 13h170q22 0 30 -17z" glyph-name="ugrave" horiz-adv-x="652" unicode="ù"/><glyph d="M379 30l-5 44q-2 18 -17 18q-12 0 -21 -16q-54 -86 -153 -86q-166 0 -166 161v319q0 30 30 30h220q30 0 30 -30v-239q0 -40 26 -40q29 0 29 46v233q0 30 30 30h220q30 0 30 -30v-440q0 -30 -30 -30h-190q-30 0 -33 30zM208 557l62 114q8 17 30 17h170q19 0 5 -13 l-144 -122q-14 -13 -35 -13h-78q-18 0 -10 17z" glyph-name="uacute" horiz-adv-x="652" unicode="ú"/><glyph d="M379 30l-5 44q-2 18 -17 18q-12 0 -21 -16q-54 -86 -153 -86q-166 0 -166 161v319q0 30 30 30h220q30 0 30 -30v-239q0 -40 26 -40q29 0 29 46v233q0 30 30 30h220q30 0 30 -30v-440q0 -30 -30 -30h-190q-30 0 -33 30zM420 685l111 -130q13 -15 -7 -15h-140q-19 0 -28 18 l-15 31q-5 12 -15 12t-15 -11l-15 -32q-9 -18 -29 -18h-140q-20 0 -7 15l111 130q13 15 33 15h123q19 0 33 -15z" glyph-name="ucircumflex" horiz-adv-x="652" unicode="û"/><glyph d="M379 30l-5 44q-2 18 -17 18q-12 0 -21 -16q-54 -86 -153 -86q-166 0 -166 161v319q0 30 30 30h220q30 0 30 -30v-239q0 -40 26 -40q29 0 29 46v233q0 30 30 30h220q30 0 30 -30v-440q0 -30 -30 -30h-190q-30 0 -33 30zM111 640q0 41 29.5 71t71.5 30t71 -30t29 -71 t-29 -70.5t-71 -29.5t-71.5 29.5t-29.5 70.5zM339 640q0 41 30 71t71 30q42 0 71 -30t29 -71t-29 -70.5t-71 -29.5q-41 0 -71 29.5t-30 70.5z" glyph-name="udieresis" horiz-adv-x="652" unicode="ü"/><glyph d="M95 -20h154q58 0 81.5 28.5t23.5 95.5q0 18 -17 18q-12 0 -21 -16q-54 -86 -144 -86q-155 0 -155 161v289q0 30 30 30h220q30 0 30 -30v-209q0 -40 26 -40q29 0 29 46v203q0 30 30 30h220q30 0 30 -30v-419q0 -145 -65.5 -208t-216.5 -63h-255q-30 0 -30 30v140 q0 30 30 30zM205 557l62 114q9 17 30 17h170q19 0 5 -13l-144 -122q-14 -13 -35 -13h-78q-19 0 -10 17z" glyph-name="yacute" horiz-adv-x="652" unicode="ý"/><glyph d="M336 191q34 0 34 59t-34 59q-17 0 -26.5 -13t-9.5 -33v-26q0 -20 9.5 -33t26.5 -13zM20 -188v888q0 30 30 30h220q30 0 30 -30v-234q0 -13 7 -15q10 -2 19 8q48 51 119 51q98 0 154 -64.5t56 -194.5t-56 -194.5t-154 -64.5q-71 0 -119 51q-9 10 -19 8q-7 -2 -7 -15v-224 q0 -30 -30 -30h-220q-30 0 -30 30z" glyph-name="thorn" horiz-adv-x="665" unicode="þ"/><glyph d="M95 -20h154q58 0 81.5 28.5t23.5 95.5q0 18 -17 18q-12 0 -21 -16q-54 -86 -144 -86q-155 0 -155 161v289q0 30 30 30h220q30 0 30 -30v-209q0 -40 26 -40q29 0 29 46v203q0 30 30 30h220q30 0 30 -30v-419q0 -145 -65.5 -208t-216.5 -63h-255q-30 0 -30 30v140 q0 30 30 30zM108 640q0 41 29.5 71t71.5 30t71 -30t29 -71t-29 -70.5t-71 -29.5t-71.5 29.5t-29.5 70.5zM336 640q0 41 30 71t71 30q42 0 71 -30t29 -71t-29 -70.5t-71 -29.5q-41 0 -71 29.5t-30 70.5z" glyph-name="ydieresis" horiz-adv-x="652" unicode="ÿ"/><glyph d="M409 30l-7 95q-2 30 -32 30h-8q-30 0 -32 -30l-7 -95q-1 -30 -32 -30h-261q-30 0 -24 29l135 642q6 29 36 29h378q30 0 36 -29l135 -642q6 -29 -24 -29h-261q-31 0 -32 30zM390 281l-8 114q-2 15 -16 15t-16 -15l-8 -114q-2 -26 24 -26t24 26zM194 791v60q0 20 20 20h304 q20 0 20 -20v-60q0 -20 -20 -20h-304q-20 0 -20 20z" glyph-name="Amacron" horiz-adv-x="732" unicode="Ā"/><glyph d="M391 30l-4 29q-2 18 -17 18q-13 0 -22 -16q-22 -36 -49 -53.5t-77 -17.5q-98 0 -155 66.5t-57 194.5q0 130 56 194.5t154 64.5q71 0 119 -51q8 -9 18 -7q8 2 8 14v4q0 30 30 30h220q30 0 30 -30v-440q0 -30 -30 -30h-190q-29 0 -34 30zM329 191q17 0 26.5 13t9.5 33v26 q0 20 -9.5 33t-26.5 13q-34 0 -34 -59t34 -59zM167 591v60q0 20 20 20h304q20 0 20 -20v-60q0 -20 -20 -20h-304q-20 0 -20 20z" glyph-name="amacron" horiz-adv-x="665" unicode="ā"/><glyph d="M409 30l-7 95q-2 30 -32 30h-8q-30 0 -32 -30l-7 -95q-1 -30 -32 -30h-261q-30 0 -24 29l135 642q6 29 36 29h378q30 0 36 -29l135 -642q6 -29 -24 -29h-261q-31 0 -32 30zM390 281l-8 114q-2 15 -16 15t-16 -15l-8 -114q-2 -26 24 -26t24 26zM435 902h96q21 0 19 -20 q-11 -141 -184 -141q-172 0 -185 141q-2 20 19 20h97q18 0 22 -20q7 -29 47 -29t47 29q4 20 22 20z" glyph-name="Abreve" horiz-adv-x="732" unicode="Ă"/><glyph d="M391 30l-4 29q-2 18 -17 18q-13 0 -22 -16q-22 -36 -49 -53.5t-77 -17.5q-98 0 -155 66.5t-57 194.5q0 130 56 194.5t154 64.5q71 0 119 -51q8 -9 18 -7q8 2 8 14v4q0 30 30 30h220q30 0 30 -30v-440q0 -30 -30 -30h-190q-29 0 -34 30zM329 191q17 0 26.5 13t9.5 33v26 q0 20 -9.5 33t-26.5 13q-34 0 -34 -59t34 -59zM408 702h96q21 0 19 -20q-11 -141 -184 -141q-172 0 -185 141q-2 20 19 20h97q18 0 22 -20q7 -29 47 -29t47 29q4 20 22 20z" glyph-name="abreve" horiz-adv-x="665" unicode="ă"/><glyph d="M409 30l-7 95q-2 30 -32 30h-8q-30 0 -32 -30l-7 -95q-1 -30 -32 -30h-261q-30 0 -24 29l135 642q6 29 36 29h378q30 0 36 -29l135 -642q6 -29 -24 -29h-261q-31 0 -32 30zM390 281l-8 114q-2 15 -16 15t-16 -15l-8 -114q-2 -26 24 -26t24 26zM629 -9q-34 -20 -34 -48 q0 -34 44 -39q20 -3 20 -21v-85q0 -20 -20 -20h-30q-71 0 -114.5 29t-43.5 92q0 87 98 124q19 6 38 -1l41 -15q17 -7 1 -16z" glyph-name="Aogonek" horiz-adv-x="732" unicode="Ą"/><glyph d="M391 30l-4 29q-2 18 -17 18q-13 0 -22 -16q-22 -36 -49 -53.5t-77 -17.5q-98 0 -155 66.5t-57 194.5q0 130 56 194.5t154 64.5q71 0 119 -51q8 -9 18 -7q8 2 8 14v4q0 30 30 30h220q30 0 30 -30v-440q0 -30 -30 -30h-190q-29 0 -34 30zM329 191q17 0 26.5 13t9.5 33v26 q0 20 -9.5 33t-26.5 13q-34 0 -34 -59t34 -59zM572 -9q-34 -20 -34 -48q0 -34 44 -39q20 -3 20 -21v-85q0 -20 -20 -20h-30q-71 0 -114.5 29t-43.5 92q0 87 98 124q19 6 38 -1l41 -15q17 -7 1 -16z" glyph-name="aogonek" horiz-adv-x="665" unicode="ą"/><glyph d="M387 405q-11 35 -43 35q-22 0 -35.5 -24t-13.5 -65q0 -42 17.5 -66.5t47.5 -24.5q43 0 57 37q11 29 37 29h226q31 0 28 -30q-15 -155 -105 -230.5t-243 -75.5q-160 0 -255 90t-95 270q0 179 91 269.5t244 90.5q146 0 232 -75.5t100 -228.5q3 -30 -28 -30h-226 q-26 0 -36 29zM227 757l62 114q9 17 30 17h170q19 0 5 -13l-144 -122q-14 -13 -35 -13h-78q-19 0 -10 17z" glyph-name="Cacute" horiz-adv-x="710" unicode="Ć"/><glyph d="M393 225h216q32 0 26 -30q-19 -102 -103.5 -153.5t-206.5 -51.5q-139 0 -227 66t-88 194t85.5 194t219.5 66q118 0 200 -52t100 -153q5 -30 -26 -30h-216q-24 0 -36 29q-7 16 -21 16q-31 0 -31 -70t40 -70q19 0 29 16q18 29 39 29zM198 557l62 114q8 17 30 17h170 q19 0 5 -13l-144 -122q-14 -13 -35 -13h-78q-18 0 -10 17z" glyph-name="cacute" horiz-adv-x="639" unicode="ć"/><glyph d="M387 405q-11 35 -43 35q-22 0 -35.5 -24t-13.5 -65q0 -42 17.5 -66.5t47.5 -24.5q43 0 57 37q11 29 37 29h226q31 0 28 -30q-15 -155 -105 -230.5t-243 -75.5q-160 0 -255 90t-95 270q0 179 91 269.5t244 90.5q146 0 232 -75.5t100 -228.5q3 -30 -28 -30h-226 q-26 0 -36 29zM439 885l111 -130q14 -15 -7 -15h-140q-19 0 -28 18l-15 31q-5 12 -15 12t-15 -11l-15 -32q-9 -18 -29 -18h-140q-20 0 -7 15l111 130q14 15 33 15h123q20 0 33 -15z" glyph-name="Ccircumflex" horiz-adv-x="710" unicode="Ĉ"/><glyph d="M393 225h216q32 0 26 -30q-19 -102 -103.5 -153.5t-206.5 -51.5q-139 0 -227 66t-88 194t85.5 194t219.5 66q118 0 200 -52t100 -153q5 -30 -26 -30h-216q-24 0 -36 29q-7 16 -21 16q-31 0 -31 -70t40 -70q19 0 29 16q18 29 39 29zM410 685l111 -130q13 -15 -7 -15h-140 q-19 0 -28 18l-15 31q-5 12 -15 12t-15 -11l-15 -32q-9 -18 -29 -18h-140q-21 0 -7 15l111 130q13 15 33 15h123q19 0 33 -15z" glyph-name="ccircumflex" horiz-adv-x="639" unicode="ĉ"/><glyph d="M387 405q-11 35 -43 35q-22 0 -35.5 -24t-13.5 -65q0 -42 17.5 -66.5t47.5 -24.5q43 0 57 37q11 29 37 29h226q31 0 28 -30q-15 -155 -105 -230.5t-243 -75.5q-160 0 -255 90t-95 270q0 179 91 269.5t244 90.5q146 0 232 -75.5t100 -228.5q3 -30 -28 -30h-226 q-26 0 -36 29zM243 840q0 41 29.5 71t71.5 30t71 -30t29 -71t-29 -70.5t-71 -29.5t-71.5 29.5t-29.5 70.5z" glyph-name="Cdotaccent" horiz-adv-x="710" unicode="Ċ"/><glyph d="M393 225h216q32 0 26 -30q-19 -102 -103.5 -153.5t-206.5 -51.5q-139 0 -227 66t-88 194t85.5 194t219.5 66q118 0 200 -52t100 -153q5 -30 -26 -30h-216q-24 0 -36 29q-7 16 -21 16q-31 0 -31 -70t40 -70q19 0 29 16q18 29 39 29zM214 640q0 41 29.5 71t71.5 30t71 -30 t29 -71t-29 -70.5t-71 -29.5t-71.5 29.5t-29.5 70.5z" glyph-name="cdotaccent" horiz-adv-x="639" unicode="ċ"/><glyph d="M387 405q-11 35 -43 35q-22 0 -35.5 -24t-13.5 -65q0 -42 17.5 -66.5t47.5 -24.5q43 0 57 37q11 29 37 29h226q31 0 28 -30q-15 -155 -105 -230.5t-243 -75.5q-160 0 -255 90t-95 270q0 179 91 269.5t244 90.5q146 0 232 -75.5t100 -228.5q3 -30 -28 -30h-226 q-26 0 -36 29zM251 755l-111 130q-13 15 7 15h140q19 0 28 -18l15 -31q5 -12 15 -12t15 11l15 32q9 18 29 18h140q20 0 7 -15l-111 -130q-14 -15 -33 -15h-123q-20 0 -33 15z" glyph-name="Ccaron" horiz-adv-x="710" unicode="Č"/><glyph d="M393 225h216q32 0 26 -30q-19 -102 -103.5 -153.5t-206.5 -51.5q-139 0 -227 66t-88 194t85.5 194t219.5 66q118 0 200 -52t100 -153q5 -30 -26 -30h-216q-24 0 -36 29q-7 16 -21 16q-31 0 -31 -70t40 -70q19 0 29 16q18 29 39 29zM222 555l-111 130q-13 15 7 15h140 q19 0 28 -18l15 -31q5 -12 15 -12t15 11l15 32q9 18 29 18h140q21 0 7 -15l-111 -130q-13 -15 -33 -15h-123q-19 0 -33 15z" glyph-name="ccaron" horiz-adv-x="639" unicode="č"/><glyph d="M20 30v640q0 30 30 30h311q146 0 225.5 -86.5t79.5 -263.5q0 -178 -79.5 -264t-225.5 -86h-311q-30 0 -30 30zM325 250h6q50 0 50 102q0 98 -50 98h-6q-25 0 -25 -25v-150q0 -25 25 -25zM183 755l-111 130q-14 15 7 15h140q19 0 28 -18l15 -31q5 -12 15 -12t15 11l15 32 q9 18 29 18h140q21 0 7 -15l-111 -130q-14 -15 -33 -15h-123q-20 0 -33 15z" glyph-name="Dcaron" horiz-adv-x="676" unicode="Ď"/><glyph d="M395 730h220q30 0 30 -30v-670q0 -30 -30 -30h-190q-29 0 -34 30l-4 29q-2 18 -17 18q-13 0 -22 -16q-22 -36 -49 -53.5t-77 -17.5q-98 0 -155 66.5t-57 194.5q0 130 56 194.5t154 64.5q71 0 119 -51q9 -10 19 -8q7 2 7 15v234q0 30 30 30zM329 191q17 0 26.5 13t9.5 33 v26q0 20 -9.5 33t-26.5 13q-34 0 -34 -59t34 -59zM668 608l52 96q14 26 45 26h150q29 0 7 -19l-128 -110q-22 -19 -53 -19h-58q-29 0 -15 26z" glyph-name="dcaron" horiz-adv-x="898" unicode="ď"/><glyph d="M10 401q20 5 20 29v240q0 30 30 30h311q146 0 225.5 -86.5t79.5 -263.5q0 -178 -79.5 -264t-225.5 -86h-311q-30 0 -30 30v240q0 24 -20 29q-30 7 -30 31v40q0 24 30 31zM338 300q-31 -2 -28 -30q1 -20 25 -20h6q50 0 50 102q0 98 -50 98h-6q-24 0 -25 -20q-3 -28 28 -30 q30 -2 30 -30v-40q0 -28 -30 -30z" glyph-name="Dcroat" horiz-adv-x="686" unicode="Đ"/><glyph d="M291 637h44q30 0 30 30v33q0 30 30 30h220q30 0 30 -30v-33q0 -24 20 -29q30 -7 30 -31v-40q0 -24 -30 -31q-20 -5 -20 -29v-477q0 -30 -30 -30h-190q-29 0 -34 30l-4 29q-2 18 -17 18q-13 0 -22 -16q-22 -36 -49 -53.5t-77 -17.5q-98 0 -155 66.5t-57 194.5 q0 130 56 194.5t154 64.5q71 0 119 -51q9 -10 19 -8q7 2 7 15v41q0 30 -30 30h-44q-30 0 -30 30v40q0 30 30 30zM329 191q17 0 26.5 13t9.5 33v26q0 20 -9.5 33t-26.5 13q-34 0 -34 -59t34 -59z" glyph-name="dcroat" horiz-adv-x="675" unicode="đ"/><glyph d="M500 260h-175q-25 0 -25 -25t25 -25h205q30 0 30 -30v-150q0 -30 -30 -30h-480q-30 0 -30 30v640q0 30 30 30h480q30 0 30 -30v-150q0 -30 -30 -30h-205q-25 0 -25 -25t25 -25h175q30 0 30 -30v-120q0 -30 -30 -30zM118 791v60q0 20 20 20h304q20 0 20 -20v-60 q0 -20 -20 -20h-304q-20 0 -20 20z" glyph-name="Emacron" horiz-adv-x="577" unicode="Ē"/><glyph d="M356 196q12 19 27 19h226q32 0 26 -30q-19 -98 -103 -146.5t-207 -48.5q-139 0 -227 66t-88 194t85.5 194t219.5 66q128 0 211 -59.5t93 -180.5q3 -30 -29 -30h-275q-16 0 -23 -8t-2 -22q10 -30 35 -30q21 0 31 16zM326 340q-14 0 -22.5 -8t-8.5 -20q0 -22 30 -22 q31 0 31 22q0 28 -30 28zM144 591v60q0 20 20 20h304q20 0 20 -20v-60q0 -20 -20 -20h-304q-20 0 -20 20z" glyph-name="emacron" horiz-adv-x="639" unicode="ē"/><glyph d="M500 260h-175q-25 0 -25 -25t25 -25h205q30 0 30 -30v-150q0 -30 -30 -30h-480q-30 0 -30 30v640q0 30 30 30h480q30 0 30 -30v-150q0 -30 -30 -30h-205q-25 0 -25 -25t25 -25h175q30 0 30 -30v-120q0 -30 -30 -30zM359 902h96q21 0 19 -20q-11 -141 -184 -141 q-172 0 -185 141q-2 20 19 20h97q18 0 22 -20q7 -29 47 -29t47 29q4 20 22 20z" glyph-name="Ebreve" horiz-adv-x="577" unicode="Ĕ"/><glyph d="M356 196q12 19 27 19h226q32 0 26 -30q-19 -98 -103 -146.5t-207 -48.5q-139 0 -227 66t-88 194t85.5 194t219.5 66q128 0 211 -59.5t93 -180.5q3 -30 -29 -30h-275q-16 0 -23 -8t-2 -22q10 -30 35 -30q21 0 31 16zM326 340q-14 0 -22.5 -8t-8.5 -20q0 -22 30 -22 q31 0 31 22q0 28 -30 28zM385 702h96q21 0 19 -20q-11 -141 -184 -141q-172 0 -185 141q-2 20 19 20h97q18 0 22 -20q7 -29 47 -29t47 29q4 20 22 20z" glyph-name="ebreve" horiz-adv-x="639" unicode="ĕ"/><glyph d="M500 260h-175q-25 0 -25 -25t25 -25h205q30 0 30 -30v-150q0 -30 -30 -30h-480q-30 0 -30 30v640q0 30 30 30h480q30 0 30 -30v-150q0 -30 -30 -30h-205q-25 0 -25 -25t25 -25h175q30 0 30 -30v-120q0 -30 -30 -30zM188 840q0 41 29.5 71t71.5 30t71 -30t29 -71 t-29 -70.5t-71 -29.5t-71.5 29.5t-29.5 70.5z" glyph-name="Edotaccent" horiz-adv-x="577" unicode="Ė"/><glyph d="M356 196q12 19 27 19h226q32 0 26 -30q-19 -98 -103 -146.5t-207 -48.5q-139 0 -227 66t-88 194t85.5 194t219.5 66q128 0 211 -59.5t93 -180.5q3 -30 -29 -30h-275q-16 0 -23 -8t-2 -22q10 -30 35 -30q21 0 31 16zM326 340q-14 0 -22.5 -8t-8.5 -20q0 -22 30 -22 q31 0 31 22q0 28 -30 28zM214 640q0 41 29.5 71t71.5 30t71 -30t29 -71t-29 -70.5t-71 -29.5t-71.5 29.5t-29.5 70.5z" glyph-name="edotaccent" horiz-adv-x="639" unicode="ė"/><glyph d="M500 260h-175q-25 0 -25 -25t25 -25h205q30 0 30 -30v-150q0 -30 -30 -30h-480q-30 0 -30 30v640q0 30 30 30h480q30 0 30 -30v-150q0 -30 -30 -30h-205q-25 0 -25 -25t25 -25h175q30 0 30 -30v-120q0 -30 -30 -30zM439 -9q-34 -20 -34 -48q0 -34 44 -39q20 -3 20 -21 v-85q0 -20 -20 -20h-30q-71 0 -114.5 29t-43.5 92q0 87 98 124q19 6 38 -1l41 -15q17 -7 1 -16z" glyph-name="Eogonek" horiz-adv-x="577" unicode="Ę"/><glyph d="M356 196q12 19 27 19h226q32 0 26 -30q-19 -98 -103 -146.5t-207 -48.5q-139 0 -227 66t-88 194t85.5 194t219.5 66q128 0 211 -59.5t93 -180.5q3 -30 -29 -30h-275q-16 0 -23 -8t-2 -22q10 -30 35 -30q21 0 31 16zM326 340q-14 0 -22.5 -8t-8.5 -20q0 -22 30 -22 q31 0 31 22q0 28 -30 28zM359 -9q-34 -20 -34 -48q0 -34 44 -39q20 -3 20 -21v-85q0 -20 -20 -20h-30q-71 0 -114.5 29t-43.5 92q0 87 98 124q19 6 38 -1l41 -15q17 -7 1 -16z" glyph-name="eogonek" horiz-adv-x="639" unicode="ę"/><glyph d="M500 260h-175q-25 0 -25 -25t25 -25h205q30 0 30 -30v-150q0 -30 -30 -30h-480q-30 0 -30 30v640q0 30 30 30h480q30 0 30 -30v-150q0 -30 -30 -30h-205q-25 0 -25 -25t25 -25h175q30 0 30 -30v-120q0 -30 -30 -30zM196 755l-111 130q-13 15 7 15h140q19 0 28 -18l15 -31 q5 -12 15 -12t15 11l15 32q9 18 29 18h140q20 0 7 -15l-111 -130q-13 -15 -33 -15h-123q-19 0 -33 15z" glyph-name="Ecaron" horiz-adv-x="577" unicode="Ě"/><glyph d="M356 196q12 19 27 19h226q32 0 26 -30q-19 -98 -103 -146.5t-207 -48.5q-139 0 -227 66t-88 194t85.5 194t219.5 66q128 0 211 -59.5t93 -180.5q3 -30 -29 -30h-275q-16 0 -23 -8t-2 -22q10 -30 35 -30q21 0 31 16zM326 340q-14 0 -22.5 -8t-8.5 -20q0 -22 30 -22 q31 0 31 22q0 28 -30 28zM222 555l-111 130q-13 15 7 15h140q19 0 28 -18l15 -31q5 -12 15 -12t15 11l15 32q9 18 29 18h140q21 0 7 -15l-111 -130q-13 -15 -33 -15h-123q-19 0 -33 15z" glyph-name="ecaron" horiz-adv-x="639" unicode="ě"/><glyph d="M454 30l-6 72q-2 17 -16 17t-19 -16q-20 -60 -54.5 -86.5t-96.5 -26.5q-110 0 -186 92t-76 268q0 179 92.5 269.5t247.5 90.5q148 0 235.5 -75.5t101.5 -228.5q3 -30 -28 -30h-226q-26 0 -36 29q-11 35 -43 35q-24 0 -36.5 -23t-12.5 -57q0 -80 66 -80q39 0 51 25 q10 21 32 21h236q30 0 30 -30v-266q0 -30 -30 -30h-193q-30 0 -33 30zM439 885l111 -130q14 -15 -7 -15h-140q-19 0 -28 18l-15 31q-5 12 -15 12t-15 -11l-15 -32q-9 -18 -29 -18h-140q-20 0 -7 15l111 130q14 15 33 15h123q20 0 33 -15z" glyph-name="Gcircumflex" horiz-adv-x="715" unicode="Ĝ"/><glyph d="M108 -50h184q38 0 55.5 19.5t17.5 64.5q0 13 -8 15q-9 2 -18 -8q-48 -51 -119 -51q-98 0 -154 64.5t-56 194.5q0 128 57 194.5t155 66.5q50 0 77 -17.5t49 -53.5q9 -16 22 -16q15 0 17 18l4 29q5 30 34 30h190q30 0 30 -30v-449q0 -145 -65.5 -208t-216.5 -63h-255 q-30 0 -30 30v140q0 30 30 30zM329 309q-34 0 -34 -59t34 -59q17 0 26.5 13t9.5 33v26q0 20 -9.5 33t-26.5 13zM457 685l111 -130q14 -15 -7 -15h-140q-19 0 -28 18l-15 31q-5 12 -15 12t-15 -11l-15 -32q-9 -18 -29 -18h-140q-20 0 -7 15l111 130q14 15 33 15h123 q20 0 33 -15z" glyph-name="gcircumflex" horiz-adv-x="665" unicode="ĝ"/><glyph d="M454 30l-6 72q-2 17 -16 17t-19 -16q-20 -60 -54.5 -86.5t-96.5 -26.5q-110 0 -186 92t-76 268q0 179 92.5 269.5t247.5 90.5q148 0 235.5 -75.5t101.5 -228.5q3 -30 -28 -30h-226q-26 0 -36 29q-11 35 -43 35q-24 0 -36.5 -23t-12.5 -57q0 -80 66 -80q39 0 51 25 q10 21 32 21h236q30 0 30 -30v-266q0 -30 -30 -30h-193q-30 0 -33 30zM414 902h96q21 0 19 -20q-11 -141 -184 -141q-172 0 -185 141q-2 20 19 20h97q18 0 22 -20q7 -29 47 -29t47 29q4 20 22 20z" glyph-name="Gbreve" horiz-adv-x="715" unicode="Ğ"/><glyph d="M108 -50h184q38 0 55.5 19.5t17.5 64.5q0 13 -8 15q-9 2 -18 -8q-48 -51 -119 -51q-98 0 -154 64.5t-56 194.5q0 128 57 194.5t155 66.5q50 0 77 -17.5t49 -53.5q9 -16 22 -16q15 0 17 18l4 29q5 30 34 30h190q30 0 30 -30v-449q0 -145 -65.5 -208t-216.5 -63h-255 q-30 0 -30 30v140q0 30 30 30zM329 309q-34 0 -34 -59t34 -59q17 0 26.5 13t9.5 33v26q0 20 -9.5 33t-26.5 13zM432 702h96q21 0 19 -20q-11 -141 -184 -141q-172 0 -185 141q-2 20 19 20h97q18 0 22 -20q7 -29 47 -29t47 29q4 20 22 20z" glyph-name="gbreve" horiz-adv-x="665" unicode="ğ"/><glyph d="M454 30l-6 72q-2 17 -16 17t-19 -16q-20 -60 -54.5 -86.5t-96.5 -26.5q-110 0 -186 92t-76 268q0 179 92.5 269.5t247.5 90.5q148 0 235.5 -75.5t101.5 -228.5q3 -30 -28 -30h-226q-26 0 -36 29q-11 35 -43 35q-24 0 -36.5 -23t-12.5 -57q0 -80 66 -80q39 0 51 25 q10 21 32 21h236q30 0 30 -30v-266q0 -30 -30 -30h-193q-30 0 -33 30zM243 840q0 41 29.5 71t71.5 30t71 -30t29 -71t-29 -70.5t-71 -29.5t-71.5 29.5t-29.5 70.5z" glyph-name="Gdotaccent" horiz-adv-x="715" unicode="Ġ"/><glyph d="M108 -50h184q38 0 55.5 19.5t17.5 64.5q0 13 -8 15q-9 2 -18 -8q-48 -51 -119 -51q-98 0 -154 64.5t-56 194.5q0 128 57 194.5t155 66.5q50 0 77 -17.5t49 -53.5q9 -16 22 -16q15 0 17 18l4 29q5 30 34 30h190q30 0 30 -30v-449q0 -145 -65.5 -208t-216.5 -63h-255 q-30 0 -30 30v140q0 30 30 30zM329 309q-34 0 -34 -59t34 -59q17 0 26.5 13t9.5 33v26q0 20 -9.5 33t-26.5 13zM261 640q0 41 29.5 71t71.5 30t71 -30t29 -71t-29 -70.5t-71 -29.5t-71.5 29.5t-29.5 70.5z" glyph-name="gdotaccent" horiz-adv-x="665" unicode="ġ"/><glyph d="M454 30l-6 72q-2 17 -16 17t-19 -16q-20 -60 -54.5 -86.5t-96.5 -26.5q-110 0 -186 92t-76 268q0 179 92.5 269.5t247.5 90.5q148 0 235.5 -75.5t101.5 -228.5q3 -30 -28 -30h-226q-26 0 -36 29q-11 35 -43 35q-24 0 -36.5 -23t-12.5 -57q0 -80 66 -80q39 0 51 25 q10 21 32 21h236q30 0 30 -30v-266q0 -30 -30 -30h-193q-30 0 -33 30zM228 -202l52 96q14 26 45 26h150q29 0 7 -19l-128 -110q-22 -19 -53 -19h-58q-29 0 -15 26z" glyph-name="uni0122" horiz-adv-x="715" unicode="Ģ"/><glyph d="M108 -50h184q38 0 55.5 19.5t17.5 64.5q0 13 -8 15q-9 2 -18 -8q-48 -51 -119 -51q-98 0 -154 64.5t-56 194.5q0 128 57 194.5t155 66.5q50 0 77 -17.5t49 -53.5q9 -16 22 -16q15 0 17 18l4 29q5 30 34 30h190q30 0 30 -30v-449q0 -145 -65.5 -208t-216.5 -63h-255 q-30 0 -30 30v140q0 30 30 30zM329 309q-34 0 -34 -59t34 -59q17 0 26.5 13t9.5 33v26q0 20 -9.5 33t-26.5 13zM516 694l-52 -96q-14 -26 -45 -26h-150q-29 0 -7 19l128 110q22 19 53 19h58q29 0 15 -26z" glyph-name="uni0123" horiz-adv-x="665" unicode="ģ"/><glyph d="M365 30v160q0 30 -30 30t-30 -30v-160q0 -30 -30 -30h-225q-30 0 -30 30v640q0 30 30 30h225q30 0 30 -30v-160q0 -30 30 -30t30 30v160q0 30 30 30h225q30 0 30 -30v-640q0 -30 -30 -30h-225q-30 0 -30 30zM429 885l111 -130q14 -15 -7 -15h-140q-19 0 -28 18l-15 31 q-5 12 -15 12t-15 -11l-15 -32q-9 -18 -29 -18h-140q-20 0 -7 15l111 130q14 15 33 15h123q20 0 33 -15z" glyph-name="Hcircumflex" horiz-adv-x="670" unicode="Ĥ"/><glyph d="M300 700v-274q0 -18 17 -18q13 0 22 16q26 41 56 63.5t83 22.5q162 0 162 -161v-319q0 -30 -30 -30h-220q-30 0 -30 30v239q0 40 -28 40q-32 0 -32 -46v-233q0 -30 -30 -30h-220q-30 0 -30 30v670q0 30 30 30h220q30 0 30 -30zM259 915l111 -130q13 -15 -7 -15h-140 q-19 0 -28 18l-15 31q-5 12 -15 12t-15 -11l-15 -32q-9 -18 -29 -18h-140q-20 0 -7 15l111 130q14 15 33 15h123q20 0 33 -15z" glyph-name="hcircumflex" horiz-adv-x="675" unicode="ĥ"/><glyph d="M680 479q-20 -5 -20 -29v-420q0 -30 -30 -30h-225q-30 0 -30 30v100q0 30 -30 30t-30 -30v-100q0 -30 -30 -30h-225q-30 0 -30 30v420q0 24 -20 29q-30 7 -30 31v40q0 24 30 31q20 5 20 29v60q0 30 30 30h225q30 0 30 -30v-60q0 -30 30 -30t30 30v60q0 30 30 30h225 q30 0 30 -30v-60q0 -24 20 -29q30 -7 30 -31v-40q0 -24 -30 -31zM345 480q-30 0 -30 -30t30 -30t30 30t-30 30z" glyph-name="Hbar" horiz-adv-x="690" unicode="Ħ"/><glyph d="M0 529q-30 7 -30 31v40q0 24 30 31q20 5 20 29v40q0 30 30 30h220q30 0 30 -30v-40q0 -30 30 -30h44q30 0 30 -30v-40q0 -30 -30 -30h-44q-30 0 -30 -30v-74q0 -18 17 -18q13 0 22 16q26 41 56 63.5t83 22.5q162 0 162 -161v-319q0 -30 -30 -30h-220q-30 0 -30 30v239 q0 40 -28 40q-32 0 -32 -46v-233q0 -30 -30 -30h-220q-30 0 -30 30v470q0 24 -20 29z" glyph-name="hbar" horiz-adv-x="675" unicode="ħ"/><glyph d="M20 30v640q0 30 30 30h220q30 0 30 -30v-640q0 -30 -30 -30h-220q-30 0 -30 30zM342 873q-4 -63 -33 -98t-75 -35q-29 0 -48.5 10t-33 20.5t-27.5 10.5q-17 0 -21 -21q-3 -20 -21 -20h-86q-21 0 -19 20q4 63 33 98t75 35q29 0 48.5 -10.5t33 -20.5t27.5 -10q17 0 21 21 q3 20 21 20h86q21 0 19 -20z" glyph-name="Itilde" unicode="Ĩ"/><glyph d="M20 30v440q0 30 30 30h220q30 0 30 -30v-440q0 -30 -30 -30h-220q-30 0 -30 30zM342 693q-4 -63 -33 -98t-75 -35q-29 0 -48.5 10t-33 20.5t-27.5 10.5q-17 0 -21 -21q-3 -20 -21 -20h-86q-21 0 -19 20q4 63 33 98t75 35q29 0 48.5 -10.5t33 -20.5t27.5 -10q17 0 21 21 q3 20 21 20h86q21 0 19 -20z" glyph-name="itilde" unicode="ĩ"/><glyph d="M20 30v640q0 30 30 30h220q30 0 30 -30v-640q0 -30 -30 -30h-220q-30 0 -30 30zM-12 791v60q0 20 20 20h304q20 0 20 -20v-60q0 -20 -20 -20h-304q-20 0 -20 20z" glyph-name="Imacron" unicode="Ī"/><glyph d="M20 30v440q0 30 30 30h220q30 0 30 -30v-440q0 -30 -30 -30h-220q-30 0 -30 30zM-12 611v60q0 20 20 20h304q20 0 20 -20v-60q0 -20 -20 -20h-304q-20 0 -20 20z" glyph-name="imacron" unicode="ī"/><glyph d="M20 30v640q0 30 30 30h220q30 0 30 -30v-640q0 -30 -30 -30h-220q-30 0 -30 30zM229 902h96q21 0 19 -20q-11 -141 -184 -141q-172 0 -185 141q-2 20 19 20h97q18 0 22 -20q7 -29 47 -29t47 29q4 20 22 20z" glyph-name="Ibreve" unicode="Ĭ"/><glyph d="M20 30v440q0 30 30 30h220q30 0 30 -30v-440q0 -30 -30 -30h-220q-30 0 -30 30zM229 722h96q21 0 19 -20q-11 -141 -184 -141q-172 0 -185 141q-2 20 19 20h97q18 0 22 -20q7 -29 47 -29t47 29q4 20 22 20z" glyph-name="ibreve" unicode="ĭ"/><glyph d="M20 30v640q0 30 30 30h220q30 0 30 -30v-640q0 -30 -30 -30h-220q-30 0 -30 30zM233 -9q-34 -20 -34 -48q0 -34 44 -39q20 -3 20 -21v-85q0 -20 -20 -20h-30q-71 0 -114.5 29t-43.5 92q0 87 98 124q19 6 38 -1l41 -15q17 -7 1 -16z" glyph-name="Iogonek" unicode="Į"/><glyph d="M50 496l32 -4q18 -3 22 11q4 15 -11 20q-79 28 -79 100q0 50 40 83.5t106 33.5t106 -33.5t40 -83.5q0 -72 -79 -100q-15 -5 -11 -20q5 -14 22 -11l32 4q30 4 30 -26v-440q0 -30 -30 -30h-220q-30 0 -30 30v440q0 30 30 26zM223 -9q-34 -20 -34 -48q0 -34 44 -39 q20 -3 20 -21v-85q0 -20 -20 -20h-30q-71 0 -114.5 29t-43.5 92q0 87 98 124q19 6 38 -1l41 -15q17 -7 1 -16z" glyph-name="iogonek" unicode="į"/><glyph d="M20 30v640q0 30 30 30h220q30 0 30 -30v-640q0 -30 -30 -30h-220q-30 0 -30 30zM58 840q0 41 29.5 71t71.5 30t71 -30t29 -71t-29 -70.5t-71 -29.5t-71.5 29.5t-29.5 70.5z" glyph-name="Idotaccent" unicode="İ"/><glyph d="M20 30v440q0 30 30 30h220q30 0 30 -30v-440q0 -30 -30 -30h-220q-30 0 -30 30z" glyph-name="dotlessi" unicode="ı"/><glyph d="M30 390v280q0 30 30 30h220q30 0 30 -30v-280q0 -30 -30 -30h-220q-30 0 -30 30zM653 670v-399q0 -145 -65.5 -208t-216.5 -63h-311q-30 0 -30 30v242q0 30 30 30h240q73 0 73 87v281q0 30 30 30h220q30 0 30 -30z" glyph-name="IJ" horiz-adv-x="668" unicode="Ĳ"/><glyph d="M385 496l32 -4q18 -3 22 11q4 15 -11 20q-79 28 -79 100q0 50 40 83.5t106 33.5t106 -33.5t40 -83.5q0 -72 -79 -100q-15 -5 -11 -20q5 -14 22 -11l32 4q30 4 30 -26v-441q0 -150 -65.5 -214.5t-216.5 -64.5h-110q-30 0 -30 30v140q0 30 30 30h39q26 0 42 9t22.5 29 t7.5 34t1 42v10q0 18 -11 18q-12 0 -21 -16q-54 -86 -146 -86q-157 0 -157 161v319q0 30 30 26l32 -4q18 -3 22 11q4 15 -11 20q-79 28 -79 100q0 50 40 83.5t106 33.5t106 -33.5t40 -83.5q0 -72 -79 -100q-15 -5 -11 -20q5 -14 22 -11l32 4q30 4 30 -26v-239q0 -40 26 -40 q29 0 29 46v233q0 30 30 26z" glyph-name="ij" horiz-adv-x="655" unicode="ĳ"/><glyph d="M145 0h-110q-30 0 -30 30v390q0 30 30 30h39q73 0 73 87v133q0 30 30 30h220q30 0 30 -30v-399q0 -145 -65.5 -208t-216.5 -63zM388 885l111 -130q13 -15 -7 -15h-140q-19 0 -28 18l-15 31q-5 12 -15 12t-15 -11l-15 -32q-9 -18 -29 -18h-140q-20 0 -7 15l111 130 q13 15 33 15h123q19 0 33 -15z" glyph-name="Jcircumflex" horiz-adv-x="442" unicode="Ĵ"/><glyph d="M263 677l97 -114q20 -23 -10 -23h-120q-30 0 -43 27l-10 22q-5 12 -15 12t-15 -11l-11 -23q-14 -27 -43 -27h-120q-30 0 -10 23l97 114q20 23 50 23h103q30 0 50 -23zM50 500h220q30 0 30 -30v-441q0 -150 -65.5 -214.5t-216.5 -64.5h-110q-30 0 -30 30v140q0 30 30 30 h39q73 0 73 90v430q0 30 30 30z" glyph-name="jcircumflex" unicode="ĵ"/><glyph d="M332 505l32 166q6 29 36 29h241q29 0 19 -28l-105 -274q-10 -26 17 -40q50 -27 73.5 -97t25.5 -231q0 -30 -31 -30h-260q-29 0 -26 30q17 138 -15 195q-9 16 -23 16q-17 0 -17 -26l1 -185q0 -30 -30 -30h-220q-30 0 -30 30v640q0 30 30 30h220q30 0 30 -30v-165 q0 -18 13 -18q16 0 19 18zM200 -202l52 96q14 26 45 26h150q29 0 7 -19l-128 -110q-22 -19 -53 -19h-58q-29 0 -15 26z" glyph-name="uni0136" horiz-adv-x="681" unicode="Ķ"/><glyph d="M363 30q5 98 -34 126q-11 8 -21 2q-8 -5 -8 -23v-105q0 -30 -30 -30h-220q-30 0 -30 30v670q0 30 30 30h220q30 0 30 -30v-325q0 -11 9 -14q11 -3 15 8l36 103q10 28 40 28h231q29 0 14 -26l-105 -174q-8 -13 -6 -24q3 -12 19 -17q53 -17 79 -70t29 -159q1 -30 -30 -30 h-241q-28 0 -27 30zM171 -202l52 96q14 26 45 26h150q29 0 7 -19l-128 -110q-22 -19 -53 -19h-58q-29 0 -15 26z" glyph-name="uni0137" horiz-adv-x="671" unicode="ķ"/><glyph d="M363 30q5 98 -34 126q-11 8 -21 2q-8 -5 -8 -23v-105q0 -30 -30 -30h-220q-30 0 -30 30v440q0 30 30 30h220q30 0 30 -30v-104q0 -4 9 -5q11 -3 15 8l36 103q10 28 40 28h231q29 0 14 -26l-105 -174q-8 -13 -6 -24q3 -12 19 -17q53 -17 79 -70t29 -159q1 -30 -30 -30 h-241q-28 0 -27 30z" glyph-name="kgreenlandic" horiz-adv-x="671" unicode="ĸ"/><glyph d="M300 670v-190q0 -30 30 -30h160q30 0 30 -30v-390q0 -30 -30 -30h-440q-30 0 -30 30v640q0 30 30 30h220q30 0 30 -30zM92 757l62 114q8 17 30 17h170q19 0 5 -13l-144 -122q-14 -13 -35 -13h-78q-18 0 -10 17z" glyph-name="Lacute" horiz-adv-x="525" unicode="Ĺ"/><glyph d="M20 30v670q0 30 30 30h220q30 0 30 -30v-670q0 -30 -30 -30h-220q-30 0 -30 30zM42 787l62 114q8 17 30 17h170q19 0 5 -13l-144 -122q-14 -13 -35 -13h-78q-18 0 -10 17z" glyph-name="lacute" unicode="ĺ"/><glyph d="M300 670v-190q0 -30 30 -30h160q30 0 30 -30v-390q0 -30 -30 -30h-440q-30 0 -30 30v640q0 30 30 30h220q30 0 30 -30zM119 -202l52 96q14 26 45 26h150q29 0 7 -19l-128 -110q-22 -19 -53 -19h-58q-29 0 -15 26z" glyph-name="uni013B" horiz-adv-x="525" unicode="Ļ"/><glyph d="M20 30v670q0 30 30 30h220q30 0 30 -30v-670q0 -30 -30 -30h-220q-30 0 -30 30zM-1 -202l52 96q14 26 45 26h150q29 0 7 -19l-128 -110q-22 -19 -53 -19h-58q-29 0 -15 26z" glyph-name="uni013C" unicode="ļ"/><glyph d="M300 670v-190q0 -30 30 -30h160q30 0 30 -30v-390q0 -30 -30 -30h-440q-30 0 -30 30v640q0 30 30 30h220q30 0 30 -30zM325 578l52 96q14 26 45 26h150q29 0 7 -19l-128 -110q-22 -19 -53 -19h-58q-29 0 -15 26z" glyph-name="Lcaron" horiz-adv-x="572" unicode="Ľ"/><glyph d="M20 30v670q0 30 30 30h220q30 0 30 -30v-670q0 -30 -30 -30h-220q-30 0 -30 30zM319 578l52 96q14 26 45 26h150q29 0 7 -19l-128 -110q-22 -19 -53 -19h-58q-29 0 -15 26z" glyph-name="lcaron" horiz-adv-x="553" unicode="ľ"/><glyph d="M300 670v-190q0 -30 30 -30h160q30 0 30 -30v-390q0 -30 -30 -30h-440q-30 0 -30 30v640q0 30 30 30h220q30 0 30 -30zM318 594q0 47 29.5 76.5t77.5 29.5t77 -29.5t29 -76.5t-29 -76.5t-77 -29.5t-77.5 29.5t-29.5 76.5z" glyph-name="Ldot" horiz-adv-x="525" unicode="Ŀ"/><glyph d="M20 30v670q0 30 30 30h220q30 0 30 -30v-670q0 -30 -30 -30h-220q-30 0 -30 30zM310 350q0 47 29.5 76.5t77.5 29.5t77 -29.5t29 -76.5t-29 -76.5t-77 -29.5t-77.5 29.5t-29.5 76.5z" glyph-name="ldot" horiz-adv-x="523" unicode="ŀ"/><glyph d="M372 527l-32 -4q-30 -3 -30 -34v-9q0 -30 30 -30h160q30 0 30 -30v-390q0 -30 -30 -30h-440q-30 0 -30 30v426q0 24 -20 26q-30 3 -30 28v40q0 24 30 34q20 7 20 32v54q0 30 30 30h220q30 0 30 -30v-21q0 -29 30 -26l32 4q30 3 30 -27v-40q0 -30 -30 -33z" glyph-name="Lslash" horiz-adv-x="535" unicode="Ł"/><glyph d="M330 316q-20 -6 -20 -31v-255q0 -30 -30 -30h-220q-30 0 -30 30v225q0 24 -20 27q-17 2 -23.5 8.5t-6.5 19.5v40q0 24 30 34q20 6 20 31v285q0 30 30 30h220q30 0 30 -30v-255q0 -24 20 -27q17 -2 23.5 -8.5t6.5 -19.5v-40q0 -24 -30 -34z" glyph-name="lslash" horiz-adv-x="340" unicode="ł"/><glyph d="M277 149l10 -119q3 -30 -27 -30h-210q-30 0 -30 30v640q0 30 30 30h159q27 0 48 -24l118 -141q18 -20 30 -20q22 0 20 25l-11 130q-3 30 28 30h210q30 0 30 -30v-640q0 -30 -30 -30h-159q-28 0 -49 23l-116 132q-15 19 -30 19q-23 0 -21 -25zM238 757l62 114q8 17 30 17 h170q19 0 5 -13l-144 -122q-14 -13 -35 -13h-78q-18 0 -10 17z" glyph-name="Nacute" horiz-adv-x="712" unicode="Ń"/><glyph d="M273 470l5 -44q2 -18 17 -18q13 0 22 16q54 86 155 86q168 0 168 -161v-319q0 -30 -30 -30h-220q-30 0 -30 30v239q0 40 -28 40q-32 0 -32 -46v-233q0 -30 -30 -30h-220q-30 0 -30 30v440q0 30 30 30h190q30 0 33 -30zM212 557l62 114q8 17 30 17h170q19 0 5 -13 l-144 -122q-14 -13 -35 -13h-78q-18 0 -10 17z" glyph-name="nacute" horiz-adv-x="657" unicode="ń"/><glyph d="M277 149l10 -119q3 -30 -27 -30h-210q-30 0 -30 30v640q0 30 30 30h159q27 0 48 -24l118 -141q18 -20 30 -20q22 0 20 25l-11 130q-3 30 28 30h210q30 0 30 -30v-640q0 -30 -30 -30h-159q-28 0 -49 23l-116 132q-15 19 -30 19q-23 0 -21 -25zM225 -202l52 96q14 26 45 26 h150q29 0 7 -19l-128 -110q-22 -19 -53 -19h-58q-29 0 -15 26z" glyph-name="uni0145" horiz-adv-x="712" unicode="Ņ"/><glyph d="M273 470l5 -44q2 -18 17 -18q13 0 22 16q54 86 155 86q168 0 168 -161v-319q0 -30 -30 -30h-220q-30 0 -30 30v239q0 40 -28 40q-32 0 -32 -46v-233q0 -30 -30 -30h-220q-30 0 -30 30v440q0 30 30 30h190q30 0 33 -30zM179 -202l52 96q14 26 45 26h150q29 0 7 -19 l-128 -110q-22 -19 -53 -19h-58q-29 0 -15 26z" glyph-name="uni0146" horiz-adv-x="657" unicode="ņ"/><glyph d="M277 149l10 -119q3 -30 -27 -30h-210q-30 0 -30 30v640q0 30 30 30h159q27 0 48 -24l118 -141q18 -20 30 -20q22 0 20 25l-11 130q-3 30 28 30h210q30 0 30 -30v-640q0 -30 -30 -30h-159q-28 0 -49 23l-116 132q-15 19 -30 19q-23 0 -21 -25zM262 755l-111 130 q-13 15 7 15h140q19 0 28 -18l15 -31q5 -12 15 -12t15 11l15 32q9 18 29 18h140q21 0 7 -15l-111 -130q-13 -15 -33 -15h-123q-19 0 -33 15z" glyph-name="Ncaron" horiz-adv-x="712" unicode="Ň"/><glyph d="M273 470l5 -44q2 -18 17 -18q13 0 22 16q54 86 155 86q168 0 168 -161v-319q0 -30 -30 -30h-220q-30 0 -30 30v239q0 40 -28 40q-32 0 -32 -46v-233q0 -30 -30 -30h-220q-30 0 -30 30v440q0 30 30 30h190q30 0 33 -30zM236 555l-111 130q-13 15 7 15h140q19 0 28 -18 l15 -31q5 -12 15 -12t15 11l15 32q9 18 29 18h140q21 0 7 -15l-111 -130q-13 -15 -33 -15h-123q-19 0 -33 15z" glyph-name="ncaron" horiz-adv-x="657" unicode="ň"/><glyph d="M468 470l5 -44q1 -18 17 -18q13 0 22 16q54 86 155 86q168 0 168 -161v-319q0 -30 -30 -30h-220q-30 0 -30 30v239q0 40 -28 40q-32 0 -32 -46v-233q0 -30 -30 -30h-220q-30 0 -30 30v440q0 30 30 30h190q30 0 33 -30zM-25 378l52 96q14 26 45 26h150q29 0 7 -19 l-128 -110q-22 -19 -53 -19h-58q-29 0 -15 26z" glyph-name="napostrophe" horiz-adv-x="852" unicode="ŉ"/><glyph d="M431 38l-103 117q-17 19 -30 19q-23 0 -21 -25l10 -119q3 -30 -27 -30h-210q-30 0 -30 30v640q0 30 30 30h159q27 0 48 -24l118 -141q16 -20 30 -20q22 0 20 25l-11 130q-3 30 28 30h210q30 0 30 -30v-575q0 -145 -64 -208t-211 -63h-108q-29 0 -29 30v61q0 30 30 30h79 q42 0 60 27q8 9 7 29.5t-15 36.5z" glyph-name="Eng" horiz-adv-x="702" unicode="Ŋ"/><glyph d="M273 470l5 -44q2 -18 17 -18q13 0 22 16q54 86 155 86q168 0 168 -152v-329q0 -150 -65.5 -214.5t-216.5 -64.5h-110q-30 0 -30 30v140q0 30 30 30h39q73 0 73 90v234q0 35 -28 35q-32 0 -32 -46v-233q0 -30 -30 -30h-220q-30 0 -30 30v440q0 30 30 30h190q30 0 33 -30z " glyph-name="eng" horiz-adv-x="660" unicode="ŋ"/><glyph d="M10 350q0 179 96.5 269.5t258.5 90.5t258.5 -90.5t96.5 -269.5q0 -180 -96 -270t-259 -90t-259 90t-96 270zM295 351q0 -40 19 -60.5t51 -20.5t51 20.5t19 60.5q0 39 -19.5 59t-50.5 20t-50.5 -20t-19.5 -59zM193 791v60q0 20 20 20h304q20 0 20 -20v-60q0 -20 -20 -20 h-304q-20 0 -20 20z" glyph-name="Omacron" horiz-adv-x="730" unicode="Ō"/><glyph d="M10 250q0 128 87 194t223 66t223 -66t87 -194t-87 -194t-223 -66t-223 66t-87 194zM285 250q0 -70 35 -70t35 70t-35 70t-35 -70zM148 591v60q0 20 20 20h304q20 0 20 -20v-60q0 -20 -20 -20h-304q-20 0 -20 20z" glyph-name="omacron" horiz-adv-x="640" unicode="ō"/><glyph d="M10 350q0 179 96.5 269.5t258.5 90.5t258.5 -90.5t96.5 -269.5q0 -180 -96 -270t-259 -90t-259 90t-96 270zM295 351q0 -40 19 -60.5t51 -20.5t51 20.5t19 60.5q0 39 -19.5 59t-50.5 20t-50.5 -20t-19.5 -59zM434 902h96q21 0 19 -20q-11 -141 -184 -141q-172 0 -185 141 q-2 20 19 20h97q18 0 22 -20q7 -29 47 -29t47 29q4 20 22 20z" glyph-name="Obreve" horiz-adv-x="730" unicode="Ŏ"/><glyph d="M10 250q0 128 87 194t223 66t223 -66t87 -194t-87 -194t-223 -66t-223 66t-87 194zM285 250q0 -70 35 -70t35 70t-35 70t-35 -70zM389 702h96q21 0 19 -20q-11 -141 -184 -141q-172 0 -185 141q-2 20 19 20h97q18 0 22 -20q7 -29 47 -29t47 29q4 20 22 20z" glyph-name="obreve" horiz-adv-x="640" unicode="ŏ"/><glyph d="M10 350q0 179 96.5 269.5t258.5 90.5t258.5 -90.5t96.5 -269.5q0 -180 -96 -270t-259 -90t-259 90t-96 270zM295 351q0 -40 19 -60.5t51 -20.5t51 20.5t19 60.5q0 39 -19.5 59t-50.5 20t-50.5 -20t-19.5 -59zM177 757l62 114q9 17 30 17h170q19 0 5 -13l-144 -122 q-14 -13 -35 -13h-78q-19 0 -10 17zM407 757l62 114q9 17 30 17h170q19 0 5 -13l-144 -122q-14 -13 -35 -13h-78q-19 0 -10 17z" glyph-name="Ohungarumlaut" horiz-adv-x="730" unicode="Ő"/><glyph d="M10 250q0 128 87 194t223 66t223 -66t87 -194t-87 -194t-223 -66t-223 66t-87 194zM285 250q0 -70 35 -70t35 70t-35 70t-35 -70zM132 557l62 114q8 17 30 17h170q19 0 5 -13l-144 -122q-14 -13 -35 -13h-78q-18 0 -10 17zM362 557l62 114q8 17 30 17h170q19 0 5 -13 l-144 -122q-14 -13 -35 -13h-78q-18 0 -10 17z" glyph-name="ohungarumlaut" horiz-adv-x="640" unicode="ő"/><glyph d="M948 0h-378q-34 0 -103 -5t-104 -5q-162 1 -257.5 91t-95.5 269t95.5 269t257.5 91q35 0 104 -5t103 -5h378q30 0 30 -30v-150q0 -30 -30 -30h-205q-25 0 -25 -25t25 -25h175q30 0 30 -30v-120q0 -30 -30 -30h-175q-25 0 -25 -25t25 -25h205q30 0 30 -30v-150 q0 -30 -30 -30zM295 351q0 -40 19 -60.5t51 -20.5t51 20.5t19 60.5q0 39 -19.5 59t-50.5 20t-50.5 -20t-19.5 -59z" glyph-name="OE" horiz-adv-x="995" unicode="Œ"/><glyph d="M985 195q-16 -103 -101 -154t-211 -51q-83 0 -150 24q-28 10 -56 0q-66 -24 -147 -24q-136 0 -223 66t-87 194t87 194t223 66q83 0 145 -23q28 -10 56 0q62 23 142 23q131 0 214.5 -62t89.5 -188q2 -20 -19 -20h-285q-16 0 -23 -8t-2 -22q10 -30 35 -30q21 0 31 16 q12 19 27 19h236q21 0 18 -20zM674 340q-14 0 -22.5 -8t-8.5 -20q0 -22 30 -22q31 0 31 22q0 28 -30 28zM285 250q0 -70 35 -70t35 70t-35 70t-35 -70z" glyph-name="oe" horiz-adv-x="987" unicode="œ"/><glyph d="M325 400h26q15 0 22.5 7.5t7.5 18.5q0 24 -30 24h-26q-25 0 -25 -25t25 -25zM460 298q28 -18 66 -18q54 0 103 20q27 11 32 -18l32 -221q6 -35 -22 -45q-72 -26 -139 -26q-113 0 -159 62t-48 189q0 18 -19 18q-17 0 -17 -18l10 -211q1 -30 -29 -30h-220q-30 0 -30 30v640 q0 30 30 30h301q150 0 232.5 -48t82.5 -147q0 -86 -47.5 -125.5t-152.5 -55.5q-13 -1 -16 -9t10 -17zM182 757l62 114q8 17 30 17h170q19 0 5 -13l-144 -122q-14 -13 -35 -13h-78q-18 0 -10 17z" glyph-name="Racute" horiz-adv-x="687" unicode="Ŕ"/><glyph d="M273 470l5 -64q2 -18 17 -18q16 0 22 16q18 51 36 74.5t55 29.5q30 5 30 -28v-191q0 -29 -30 -26q-68 8 -88 -7.5t-20 -70.5v-155q0 -30 -30 -30h-220q-30 0 -30 30v440q0 30 30 30h190q30 0 33 -30zM121 557l62 114q9 17 30 17h170q19 0 5 -13l-144 -122 q-14 -13 -35 -13h-78q-19 0 -10 17z" glyph-name="racute" horiz-adv-x="443" unicode="ŕ"/><glyph d="M325 400h26q15 0 22.5 7.5t7.5 18.5q0 24 -30 24h-26q-25 0 -25 -25t25 -25zM460 298q28 -18 66 -18q54 0 103 20q27 11 32 -18l32 -221q6 -35 -22 -45q-72 -26 -139 -26q-113 0 -159 62t-48 189q0 18 -19 18q-17 0 -17 -18l10 -211q1 -30 -29 -30h-220q-30 0 -30 30v640 q0 30 30 30h301q150 0 232.5 -48t82.5 -147q0 -86 -47.5 -125.5t-152.5 -55.5q-13 -1 -16 -9t10 -17zM194 -202l52 96q14 26 45 26h150q29 0 7 -19l-128 -110q-22 -19 -53 -19h-58q-29 0 -15 26z" glyph-name="uni0156" horiz-adv-x="687" unicode="Ŗ"/><glyph d="M273 470l5 -64q2 -18 17 -18q16 0 22 16q18 51 36 74.5t55 29.5q30 5 30 -28v-191q0 -29 -30 -26q-68 8 -88 -7.5t-20 -70.5v-155q0 -30 -30 -30h-220q-30 0 -30 30v440q0 30 30 30h190q30 0 33 -30zM11 -202l52 96q14 26 45 26h150q29 0 7 -19l-128 -110 q-22 -19 -53 -19h-58q-29 0 -15 26z" glyph-name="uni0157" horiz-adv-x="443" unicode="ŗ"/><glyph d="M325 400h26q15 0 22.5 7.5t7.5 18.5q0 24 -30 24h-26q-25 0 -25 -25t25 -25zM460 298q28 -18 66 -18q54 0 103 20q27 11 32 -18l32 -221q6 -35 -22 -45q-72 -26 -139 -26q-113 0 -159 62t-48 189q0 18 -19 18q-17 0 -17 -18l10 -211q1 -30 -29 -30h-220q-30 0 -30 30v640 q0 30 30 30h301q150 0 232.5 -48t82.5 -147q0 -86 -47.5 -125.5t-152.5 -55.5q-13 -1 -16 -9t10 -17zM206 755l-111 130q-14 15 7 15h140q19 0 28 -18l15 -31q5 -12 15 -12t15 11l15 32q9 18 29 18h140q21 0 7 -15l-111 -130q-13 -15 -33 -15h-123q-19 0 -33 15z" glyph-name="Rcaron" horiz-adv-x="687" unicode="Ř"/><glyph d="M273 470l5 -64q2 -18 17 -18q16 0 22 16q18 51 36 74.5t55 29.5q30 5 30 -28v-191q0 -29 -30 -26q-68 8 -88 -7.5t-20 -70.5v-155q0 -30 -30 -30h-220q-30 0 -30 30v440q0 30 30 30h190q30 0 33 -30zM145 555l-111 130q-13 15 7 15h140q19 0 28 -18l15 -31q5 -12 15 -12 t15 11l15 32q9 18 29 18h140q20 0 7 -15l-111 -130q-14 -15 -33 -15h-123q-20 0 -33 15z" glyph-name="rcaron" horiz-adv-x="443" unicode="ř"/><glyph d="M395 435q-12 25 -39 25q-31 0 -31 -23q0 -19 37.5 -29t91 -18.5t107 -24t91 -57t37.5 -107.5q0 -99 -87 -155t-238 -56q-323 0 -352 274q-3 30 28 30h226q23 0 38 -29q13 -25 45 -25q35 0 35 23q0 19 -37.5 29t-91 18.5t-107 24t-91 57t-37.5 107.5q0 99 85.5 155 t233.5 56q165 0 249.5 -68t98.5 -206q3 -30 -28 -30h-226q-24 0 -38 29zM228 757l62 114q8 17 30 17h170q19 0 5 -13l-144 -122q-14 -13 -35 -13h-78q-18 0 -10 17z" glyph-name="Sacute" horiz-adv-x="699" unicode="Ś"/><glyph d="M331 322q-10 8 -21 8q-30 0 -30 -22q0 -19 34 -25.5t82 -9t96.5 -10t82.5 -36.5t34 -81q0 -77 -72.5 -116.5t-211.5 -39.5q-146 0 -220 44t-91 141q-5 30 26 30h185q17 0 29 -4t17 -7.5t18 -15.5q8 -8 23 -8q13 0 22.5 6t9.5 16q0 19 -34 25.5t-82 9t-96.5 10t-82.5 36.5 t-34 81q0 77 72 116.5t210 39.5q145 0 218 -44t90 -141q5 -30 -26 -30h-183q-38 0 -65 27zM179 557l62 114q9 17 30 17h170q19 0 5 -13l-144 -122q-14 -13 -35 -13h-78q-19 0 -10 17z" glyph-name="sacute" horiz-adv-x="619" unicode="ś"/><glyph d="M395 435q-12 25 -39 25q-31 0 -31 -23q0 -19 37.5 -29t91 -18.5t107 -24t91 -57t37.5 -107.5q0 -99 -87 -155t-238 -56q-323 0 -352 274q-3 30 28 30h226q23 0 38 -29q13 -25 45 -25q35 0 35 23q0 19 -37.5 29t-91 18.5t-107 24t-91 57t-37.5 107.5q0 99 85.5 155 t233.5 56q165 0 249.5 -68t98.5 -206q3 -30 -28 -30h-226q-24 0 -38 29zM440 885l111 -130q13 -15 -7 -15h-140q-19 0 -28 18l-15 31q-5 12 -15 12t-15 -11l-15 -32q-9 -18 -29 -18h-140q-21 0 -7 15l111 130q13 15 33 15h123q19 0 33 -15z" glyph-name="Scircumflex" horiz-adv-x="699" unicode="Ŝ"/><glyph d="M331 322q-10 8 -21 8q-30 0 -30 -22q0 -19 34 -25.5t82 -9t96.5 -10t82.5 -36.5t34 -81q0 -77 -72.5 -116.5t-211.5 -39.5q-146 0 -220 44t-91 141q-5 30 26 30h185q17 0 29 -4t17 -7.5t18 -15.5q8 -8 23 -8q13 0 22.5 6t9.5 16q0 19 -34 25.5t-82 9t-96.5 10t-82.5 36.5 t-34 81q0 77 72 116.5t210 39.5q145 0 218 -44t90 -141q5 -30 -26 -30h-183q-38 0 -65 27zM391 685l111 -130q14 -15 -7 -15h-140q-19 0 -28 18l-15 31q-5 12 -15 12t-15 -11l-15 -32q-9 -18 -29 -18h-140q-21 0 -7 15l111 130q14 15 33 15h123q20 0 33 -15z" glyph-name="scircumflex" horiz-adv-x="619" unicode="ŝ"/><glyph d="M395 435q-12 25 -39 25q-31 0 -31 -23q0 -19 37.5 -29t91 -18.5t107 -24t91 -57t37.5 -107.5q0 -99 -87 -155t-238 -56q-323 0 -352 274q-3 30 28 30h226q23 0 38 -29q13 -25 45 -25q35 0 35 23q0 19 -37.5 29t-91 18.5t-107 24t-91 57t-37.5 107.5q0 99 85.5 155 t233.5 56q165 0 249.5 -68t98.5 -206q3 -30 -28 -30h-226q-24 0 -38 29zM395 -9l-6 -18q-4 -10 0 -20q5 -8 20 -11q64 -12 64 -78q0 -47 -41.5 -71.5t-107.5 -24.5q-44 0 -85 7q-20 3 -14 22l26 84q6 17 25 13q12 -3 24 -3q32 0 32 16q0 12 -11.5 15.5t-42.5 4.5 q-20 0 -13 19l16 45q7 19 27 19h74q19 0 13 -19z" glyph-name="Scedilla" horiz-adv-x="699" unicode="Ş"/><glyph d="M331 322q-10 8 -21 8q-30 0 -30 -22q0 -19 34 -25.5t82 -9t96.5 -10t82.5 -36.5t34 -81q0 -77 -72.5 -116.5t-211.5 -39.5q-146 0 -220 44t-91 141q-5 30 26 30h185q17 0 29 -4t17 -7.5t18 -15.5q8 -8 23 -8q13 0 22.5 6t9.5 16q0 19 -34 25.5t-82 9t-96.5 10t-82.5 36.5 t-34 81q0 77 72 116.5t210 39.5q145 0 218 -44t90 -141q5 -30 -26 -30h-183q-38 0 -65 27zM364 -9l-6 -18q-4 -10 0 -20q5 -8 20 -11q64 -12 64 -78q0 -47 -41.5 -71.5t-107.5 -24.5q-44 0 -85 7q-20 3 -14 22l26 84q6 17 25 13q12 -3 24 -3q32 0 32 16q0 12 -11.5 15.5 t-42.5 4.5q-20 0 -13 19l16 45q7 19 27 19h74q19 0 13 -19z" glyph-name="scedilla" horiz-adv-x="619" unicode="ş"/><glyph d="M395 435q-12 25 -39 25q-31 0 -31 -23q0 -19 37.5 -29t91 -18.5t107 -24t91 -57t37.5 -107.5q0 -99 -87 -155t-238 -56q-323 0 -352 274q-3 30 28 30h226q23 0 38 -29q13 -25 45 -25q35 0 35 23q0 19 -37.5 29t-91 18.5t-107 24t-91 57t-37.5 107.5q0 99 85.5 155 t233.5 56q165 0 249.5 -68t98.5 -206q3 -30 -28 -30h-226q-24 0 -38 29zM252 755l-111 130q-13 15 7 15h140q19 0 28 -18l15 -31q5 -12 15 -12t15 11l15 32q9 18 29 18h140q21 0 7 -15l-111 -130q-13 -15 -33 -15h-123q-19 0 -33 15z" glyph-name="Scaron" horiz-adv-x="699" unicode="Š"/><glyph d="M331 322q-10 8 -21 8q-30 0 -30 -22q0 -19 34 -25.5t82 -9t96.5 -10t82.5 -36.5t34 -81q0 -77 -72.5 -116.5t-211.5 -39.5q-146 0 -220 44t-91 141q-5 30 26 30h185q17 0 29 -4t17 -7.5t18 -15.5q8 -8 23 -8q13 0 22.5 6t9.5 16q0 19 -34 25.5t-82 9t-96.5 10t-82.5 36.5 t-34 81q0 77 72 116.5t210 39.5q145 0 218 -44t90 -141q5 -30 -26 -30h-183q-38 0 -65 27zM203 555l-111 130q-14 15 7 15h140q19 0 28 -18l15 -31q5 -12 15 -12t15 11l15 32q9 18 29 18h140q20 0 7 -15l-111 -130q-14 -15 -33 -15h-123q-20 0 -33 15z" glyph-name="scaron" horiz-adv-x="619" unicode="š"/><glyph d="M535 250h-73q-37 0 -37 -37v-183q0 -30 -30 -30h-220q-30 0 -30 30v183q0 37 -37 37h-73q-30 0 -30 30v390q0 30 30 30h500q30 0 30 -30v-390q0 -30 -30 -30zM338 -9l-6 -18q-4 -10 0 -20q5 -8 20 -11q64 -12 64 -78q0 -47 -41.5 -71.5t-107.5 -24.5q-44 0 -85 7 q-20 3 -14 22l26 84q6 17 25 13q12 -3 24 -3q32 0 32 16q0 12 -11.5 15.5t-42.5 4.5q-20 0 -13 19l16 45q7 19 27 19h74q19 0 13 -19z" glyph-name="uni0162" horiz-adv-x="570" unicode="Ţ"/><glyph d="M397 0h-123q-128 0 -176 63t-48 216v91q0 24 -20 29q-30 7 -30 31v40q0 28 30 32q44 7 66 39.5t26 98.5q2 30 31 30h147q30 0 30 -30v-110q0 -30 30 -30h37q30 0 30 -30v-40q0 -30 -30 -30h-37q-30 0 -30 -30v-110q0 -39 9 -49.5t44 -10.5h14q30 0 30 -30v-140 q0 -30 -30 -30zM318 -9l-6 -18q-4 -10 0 -20q5 -8 20 -11q64 -12 64 -78q0 -47 -41.5 -71.5t-107.5 -24.5q-44 0 -85 7q-20 3 -14 22l26 84q6 17 25 13q12 -3 24 -3q32 0 32 16q0 12 -11.5 15.5t-42.5 4.5q-20 0 -13 19l16 45q7 19 27 19h74q19 0 13 -19z" glyph-name="uni0163" horiz-adv-x="432" unicode="ţ"/><glyph d="M535 250h-73q-37 0 -37 -37v-183q0 -30 -30 -30h-220q-30 0 -30 30v183q0 37 -37 37h-73q-30 0 -30 30v390q0 30 30 30h500q30 0 30 -30v-390q0 -30 -30 -30zM191 755l-111 130q-13 15 7 15h140q19 0 28 -18l15 -31q5 -12 15 -12t15 11l15 32q9 18 29 18h140q20 0 7 -15 l-111 -130q-14 -15 -33 -15h-123q-20 0 -33 15z" glyph-name="Tcaron" horiz-adv-x="570" unicode="Ť"/><glyph d="M397 0h-123q-128 0 -176 63t-48 216v91q0 24 -20 29q-30 7 -30 31v40q0 28 30 32q44 7 66 39.5t26 98.5q2 30 31 30h147q30 0 30 -30v-110q0 -30 30 -30h37q30 0 30 -30v-40q0 -30 -30 -30h-37q-30 0 -30 -30v-110q0 -39 9 -49.5t44 -10.5h14q30 0 30 -30v-140 q0 -30 -30 -30zM429 376l52 96q14 26 45 26h150q29 0 7 -19l-128 -110q-22 -19 -53 -19h-58q-29 0 -15 26z" glyph-name="tcaron" horiz-adv-x="665" unicode="ť"/><glyph d="M63 189h52q30 0 30 30q0 18 -8.5 24.5t-28.5 6.5h-73q-30 0 -30 30v390q0 30 30 30h500q30 0 30 -30v-390q0 -30 -30 -30h-73q-20 0 -28.5 -6.5t-8.5 -24.5q0 -30 30 -30h52q30 0 30 -30v-40q0 -30 -30 -30h-52q-30 0 -30 -30v-29q0 -30 -30 -30h-220q-30 0 -30 30v29 q0 30 -30 30h-52q-30 0 -30 30v40q0 30 30 30z" glyph-name="Tbar" horiz-adv-x="570" unicode="Ŧ"/><glyph d="M20 343q32 0 30 30q-2 27 -30 27q-20 0 -20 20v60q0 20 20 21q50 5 75 39.5t28 109.5q0 20 20 20h167q20 0 20 -20v-120q0 -30 30 -30h47q20 0 20 -20v-60q0 -20 -20 -20h-47q-28 0 -30 -27q-2 -30 30 -30h47q20 0 20 -20v-60q0 -20 -20 -20h-47q-17 0 -23.5 -8.5 t0.5 -20.5q9 -14 46 -14h24q20 0 20 -20v-160q0 -20 -20 -20h-133q-114 0 -163.5 49.5t-57.5 163.5q-3 30 -32 30h-1q-20 0 -20 20v60q0 20 20 20z" glyph-name="tbar" horiz-adv-x="432" unicode="ŧ"/><glyph d="M15 293v377q0 30 30 30h220q30 0 30 -30v-166q0 -38 10.5 -51t29.5 -13q20 0 30 12.5t10 51.5v166q0 30 30 30h220q30 0 30 -30v-377q0 -73 -16.5 -127t-44.5 -87.5t-70.5 -53.5t-87 -27.5t-101.5 -7.5t-101.5 7.5t-87 27.5t-70.5 53.5t-44.5 87.5t-16.5 127zM517 873 q-4 -63 -33 -98t-75 -35q-37 0 -66 20.5t-43 20.5q-18 0 -21 -21q-3 -20 -21 -20h-86q-21 0 -19 20q4 63 33 98t75 35q37 0 66 -20.5t43 -20.5q18 0 21 21q3 20 21 20h86q21 0 19 -20z" glyph-name="Utilde" horiz-adv-x="670" unicode="Ũ"/><glyph d="M379 30l-5 44q-2 18 -17 18q-12 0 -21 -16q-54 -86 -153 -86q-166 0 -166 161v319q0 30 30 30h220q30 0 30 -30v-239q0 -40 26 -40q29 0 29 46v233q0 30 30 30h220q30 0 30 -30v-440q0 -30 -30 -30h-190q-30 0 -33 30zM508 673q-4 -63 -33 -98t-75 -35q-29 0 -48.5 10 t-33 20.5t-27.5 10.5q-17 0 -21 -21q-3 -20 -21 -20h-86q-21 0 -19 20q4 63 33 98t75 35q29 0 48.5 -10.5t33 -20.5t27.5 -10q17 0 21 21q3 20 21 20h86q21 0 19 -20z" glyph-name="utilde" horiz-adv-x="652" unicode="ũ"/><glyph d="M15 293v377q0 30 30 30h220q30 0 30 -30v-166q0 -38 10.5 -51t29.5 -13q20 0 30 12.5t10 51.5v166q0 30 30 30h220q30 0 30 -30v-377q0 -73 -16.5 -127t-44.5 -87.5t-70.5 -53.5t-87 -27.5t-101.5 -7.5t-101.5 7.5t-87 27.5t-70.5 53.5t-44.5 87.5t-16.5 127zM163 791v60 q0 20 20 20h304q20 0 20 -20v-60q0 -20 -20 -20h-304q-20 0 -20 20z" glyph-name="Umacron" horiz-adv-x="670" unicode="Ū"/><glyph d="M379 30l-5 44q-2 18 -17 18q-12 0 -21 -16q-54 -86 -153 -86q-166 0 -166 161v319q0 30 30 30h220q30 0 30 -30v-239q0 -40 26 -40q29 0 29 46v233q0 30 30 30h220q30 0 30 -30v-440q0 -30 -30 -30h-190q-30 0 -33 30zM154 591v60q0 20 20 20h304q20 0 20 -20v-60 q0 -20 -20 -20h-304q-20 0 -20 20z" glyph-name="umacron" horiz-adv-x="652" unicode="ū"/><glyph d="M15 293v377q0 30 30 30h220q30 0 30 -30v-166q0 -38 10.5 -51t29.5 -13q20 0 30 12.5t10 51.5v166q0 30 30 30h220q30 0 30 -30v-377q0 -73 -16.5 -127t-44.5 -87.5t-70.5 -53.5t-87 -27.5t-101.5 -7.5t-101.5 7.5t-87 27.5t-70.5 53.5t-44.5 87.5t-16.5 127zM404 902h96 q21 0 19 -20q-11 -141 -184 -141q-172 0 -185 141q-2 20 19 20h97q18 0 22 -20q7 -29 47 -29t47 29q4 20 22 20z" glyph-name="Ubreve" horiz-adv-x="670" unicode="Ŭ"/><glyph d="M379 30l-5 44q-2 18 -17 18q-12 0 -21 -16q-54 -86 -153 -86q-166 0 -166 161v319q0 30 30 30h220q30 0 30 -30v-239q0 -40 26 -40q29 0 29 46v233q0 30 30 30h220q30 0 30 -30v-440q0 -30 -30 -30h-190q-30 0 -33 30zM395 702h96q21 0 19 -20q-11 -141 -184 -141 q-172 0 -185 141q-2 20 19 20h97q18 0 22 -20q7 -29 47 -29t47 29q4 20 22 20z" glyph-name="ubreve" horiz-adv-x="652" unicode="ŭ"/><glyph d="M15 293v377q0 30 30 30h220q30 0 30 -30v-166q0 -38 10.5 -51t29.5 -13q20 0 30 12.5t10 51.5v166q0 30 30 30h220q30 0 30 -30v-377q0 -73 -16.5 -127t-44.5 -87.5t-70.5 -53.5t-87 -27.5t-101.5 -7.5t-101.5 7.5t-87 27.5t-70.5 53.5t-44.5 87.5t-16.5 127zM215 851 q0 55 33.5 87.5t87.5 32.5t87 -32.5t33 -87.5q0 -56 -32.5 -88.5t-87.5 -32.5t-88 32.5t-33 88.5zM312 851q0 -24 24 -24t24 24t-24 24t-24 -24z" glyph-name="Uring" horiz-adv-x="670" unicode="Ů"/><glyph d="M379 30l-5 44q-2 18 -17 18q-12 0 -21 -16q-54 -86 -153 -86q-166 0 -166 161v319q0 30 30 30h220q30 0 30 -30v-239q0 -40 26 -40q29 0 29 46v233q0 30 30 30h220q30 0 30 -30v-440q0 -30 -30 -30h-190q-30 0 -33 30zM206 651q0 55 33.5 87.5t87.5 32.5t87 -32.5 t33 -87.5q0 -56 -32.5 -88.5t-87.5 -32.5t-88 32.5t-33 88.5zM303 651q0 -24 24 -24t24 24t-24 24t-24 -24z" glyph-name="uring" horiz-adv-x="652" unicode="ů"/><glyph d="M15 293v377q0 30 30 30h220q30 0 30 -30v-166q0 -38 10.5 -51t29.5 -13q20 0 30 12.5t10 51.5v166q0 30 30 30h220q30 0 30 -30v-377q0 -73 -16.5 -127t-44.5 -87.5t-70.5 -53.5t-87 -27.5t-101.5 -7.5t-101.5 7.5t-87 27.5t-70.5 53.5t-44.5 87.5t-16.5 127zM147 757 l62 114q9 17 30 17h170q19 0 5 -13l-144 -122q-14 -13 -35 -13h-78q-19 0 -10 17zM377 757l62 114q9 17 30 17h170q19 0 5 -13l-144 -122q-14 -13 -35 -13h-78q-19 0 -10 17z" glyph-name="Uhungarumlaut" horiz-adv-x="670" unicode="Ű"/><glyph d="M379 30l-5 44q-2 18 -17 18q-12 0 -21 -16q-54 -86 -153 -86q-166 0 -166 161v319q0 30 30 30h220q30 0 30 -30v-239q0 -40 26 -40q29 0 29 46v233q0 30 30 30h220q30 0 30 -30v-440q0 -30 -30 -30h-190q-30 0 -33 30zM138 557l62 114q8 17 30 17h170q19 0 5 -13 l-144 -122q-14 -13 -35 -13h-78q-18 0 -10 17zM368 557l62 114q8 17 30 17h170q19 0 5 -13l-144 -122q-14 -13 -35 -13h-78q-18 0 -10 17z" glyph-name="uhungarumlaut" horiz-adv-x="652" unicode="ű"/><glyph d="M15 293v377q0 30 30 30h220q30 0 30 -30v-166q0 -38 10.5 -51t29.5 -13q20 0 30 12.5t10 51.5v166q0 30 30 30h220q30 0 30 -30v-377q0 -73 -16.5 -127t-44.5 -87.5t-70.5 -53.5t-87 -27.5t-101.5 -7.5t-101.5 7.5t-87 27.5t-70.5 53.5t-44.5 87.5t-16.5 127zM378 -9 q-34 -20 -34 -48q0 -34 44 -39q20 -3 20 -21v-85q0 -20 -20 -20h-30q-71 0 -114.5 29t-43.5 92q0 87 98 124q19 6 38 -1l41 -15q17 -7 1 -16z" glyph-name="Uogonek" horiz-adv-x="670" unicode="Ų"/><glyph d="M379 30l-5 44q-2 18 -17 18q-12 0 -21 -16q-54 -86 -153 -86q-166 0 -166 161v319q0 30 30 30h220q30 0 30 -30v-239q0 -40 26 -40q29 0 29 46v233q0 30 30 30h220q30 0 30 -30v-440q0 -30 -30 -30h-190q-30 0 -33 30zM569 -9q-34 -20 -34 -48q0 -34 44 -39q20 -3 20 -21 v-85q0 -20 -20 -20h-30q-71 0 -114.5 29t-43.5 92q0 87 98 124q19 6 38 -1l41 -15q17 -7 1 -16z" glyph-name="uogonek" horiz-adv-x="652" unicode="ų"/><glyph d="M477 162l-35 -133q-7 -29 -37 -29h-268q-31 0 -35 30l-97 640q-4 30 25 30h211q29 0 34 -30l23 -160q4 -23 23 -23t23 23l23 160q5 30 34 30h201q30 0 34 -30l23 -160q4 -23 23 -23t23 23l23 160q5 30 34 30h211q29 0 25 -30l-97 -640q-5 -30 -35 -30h-268q-30 0 -37 29 l-35 133q-5 22 -24 22q-20 0 -25 -22zM596 885l111 -130q14 -15 -7 -15h-140q-19 0 -28 18l-15 31q-5 12 -15 12t-15 -11l-15 -32q-9 -18 -29 -18h-140q-21 0 -7 15l111 130q13 15 33 15h123q19 0 33 -15z" glyph-name="Wcircumflex" horiz-adv-x="1003" unicode="Ŵ"/><glyph d="M431 129l-28 -100q-8 -29 -38 -29h-198q-30 0 -37 29l-103 442q-7 29 23 29h181q31 0 35 -30l21 -124q3 -14 17 -14t17 14l24 125q6 29 36 29h151q30 0 36 -29l23 -125q3 -14 18 -14q13 0 16 14l21 124q4 30 35 30h181q30 0 23 -29l-103 -442q-7 -29 -37 -29h-198 q-30 0 -38 29l-28 100q-6 19 -25 19t-25 -19zM550 685l111 -130q13 -15 -7 -15h-140q-19 0 -28 18l-15 31q-5 12 -15 12t-15 -11l-15 -32q-9 -18 -29 -18h-140q-21 0 -7 15l111 130q13 15 33 15h123q19 0 33 -15z" glyph-name="wcircumflex" horiz-adv-x="912" unicode="ŵ"/><glyph d="M206 30v128q0 35 -14 71l-181 443q-12 28 19 28h251q29 0 32 -30l11 -135q2 -25 22 -25t22 25l11 135q3 30 32 30h251q31 0 19 -28l-181 -443q-14 -36 -14 -71v-128q0 -30 -30 -30h-220q-30 0 -30 30zM437 885l111 -130q14 -15 -7 -15h-140q-19 0 -28 18l-15 31 q-5 12 -15 12t-15 -11l-15 -32q-9 -18 -29 -18h-140q-21 0 -7 15l111 130q14 15 33 15h123q20 0 33 -15z" glyph-name="Ycircumflex" horiz-adv-x="692" unicode="Ŷ"/><glyph d="M95 -20h154q58 0 81.5 28.5t23.5 95.5q0 18 -17 18q-12 0 -21 -16q-54 -86 -144 -86q-155 0 -155 161v289q0 30 30 30h220q30 0 30 -30v-209q0 -40 26 -40q29 0 29 46v203q0 30 30 30h220q30 0 30 -30v-419q0 -145 -65.5 -208t-216.5 -63h-255q-30 0 -30 30v140 q0 30 30 30zM417 685l111 -130q14 -15 -7 -15h-140q-19 0 -28 18l-15 31q-5 12 -15 12t-15 -11l-15 -32q-9 -18 -29 -18h-140q-20 0 -7 15l111 130q14 15 33 15h123q20 0 33 -15z" glyph-name="ycircumflex" horiz-adv-x="652" unicode="ŷ"/><glyph d="M206 30v128q0 35 -14 71l-181 443q-12 28 19 28h251q29 0 32 -30l11 -135q2 -25 22 -25t22 25l11 135q3 30 32 30h251q31 0 19 -28l-181 -443q-14 -36 -14 -71v-128q0 -30 -30 -30h-220q-30 0 -30 30zM128 840q0 41 29.5 71t71.5 30t71 -30t29 -71t-29 -70.5t-71 -29.5 t-71.5 29.5t-29.5 70.5zM356 840q0 41 30 71t71 30q42 0 71 -30t29 -71t-29 -70.5t-71 -29.5q-41 0 -71 29.5t-30 70.5z" glyph-name="Ydieresis" horiz-adv-x="692" unicode="Ÿ"/><glyph d="M40 700h503q29 0 29 -23q0 -18 -15 -42l-163 -247q-13 -20 -9 -40q4 -18 29 -18h129q30 0 30 -30v-270q0 -30 -30 -30h-503q-29 0 -29 23q0 18 15 42l163 247q13 21 9 40q-4 18 -29 18h-129q-30 0 -30 30v270q0 30 30 30zM158 757l62 114q8 17 30 17h170q19 0 5 -13 l-144 -122q-14 -13 -35 -13h-78q-18 0 -10 17z" glyph-name="Zacute" horiz-adv-x="583" unicode="Ź"/><glyph d="M27 35l150 204q12 16 7 30q-3 11 -28 11h-116q-30 0 -30 30v160q0 30 30 30h459q16 0 19 -13q3 -10 -6 -22l-150 -204q-11 -16 -6 -28q6 -13 27 -13h116q30 0 30 -30v-160q0 -30 -30 -30h-459q-16 0 -19 13q-2 13 6 22zM152 557l62 114q8 17 30 17h170q19 0 5 -13 l-144 -122q-14 -13 -35 -13h-78q-18 0 -10 17z" glyph-name="zacute" horiz-adv-x="539" unicode="ź"/><glyph d="M40 700h503q29 0 29 -23q0 -18 -15 -42l-163 -247q-13 -20 -9 -40q4 -18 29 -18h129q30 0 30 -30v-270q0 -30 -30 -30h-503q-29 0 -29 23q0 18 15 42l163 247q13 21 9 40q-4 18 -29 18h-129q-30 0 -30 30v270q0 30 30 30zM174 840q0 41 29.5 71t71.5 30t71 -30t29 -71 t-29 -70.5t-71 -29.5t-71.5 29.5t-29.5 70.5z" glyph-name="Zdotaccent" horiz-adv-x="583" unicode="Ż"/><glyph d="M27 35l150 204q12 16 7 30q-3 11 -28 11h-116q-30 0 -30 30v160q0 30 30 30h459q16 0 19 -13q3 -10 -6 -22l-150 -204q-11 -16 -6 -28q6 -13 27 -13h116q30 0 30 -30v-160q0 -30 -30 -30h-459q-16 0 -19 13q-2 13 6 22zM168 640q0 41 29.5 71t71.5 30t71 -30t29 -71 t-29 -70.5t-71 -29.5t-71.5 29.5t-29.5 70.5z" glyph-name="zdotaccent" horiz-adv-x="539" unicode="ż"/><glyph d="M40 700h503q29 0 29 -23q0 -18 -15 -42l-163 -247q-13 -20 -9 -40q4 -18 29 -18h129q30 0 30 -30v-270q0 -30 -30 -30h-503q-29 0 -29 23q0 18 15 42l163 247q13 21 9 40q-4 18 -29 18h-129q-30 0 -30 30v270q0 30 30 30zM182 755l-111 130q-13 15 7 15h140q19 0 28 -18 l15 -31q5 -12 15 -12t15 11l15 32q9 18 29 18h140q20 0 7 -15l-111 -130q-13 -15 -33 -15h-123q-19 0 -33 15z" glyph-name="Zcaron" horiz-adv-x="583" unicode="Ž"/><glyph d="M27 35l150 204q12 16 7 30q-3 11 -28 11h-116q-30 0 -30 30v160q0 30 30 30h459q16 0 19 -13q3 -10 -6 -22l-150 -204q-11 -16 -6 -28q6 -13 27 -13h116q30 0 30 -30v-160q0 -30 -30 -30h-459q-16 0 -19 13q-2 13 6 22zM176 555l-111 130q-14 15 7 15h140q19 0 28 -18 l15 -31q5 -12 15 -12t15 11l15 32q9 18 29 18h140q21 0 7 -15l-111 -130q-13 -15 -33 -15h-123q-19 0 -33 15z" glyph-name="zcaron" horiz-adv-x="539" unicode="ž"/><glyph d="M-62 -50h39q73 0 73 87v333q0 24 -20 29q-30 7 -30 31v40q0 26 30 31q21 3 26 29q17 106 77.5 153t198.5 47h80q30 0 30 -30v-130q0 -30 -30 -30h-62q-20 0 -20 -20t20 -20h62q30 0 30 -30v-40q0 -30 -30 -30h-52q-30 0 -30 -30v-349q0 -145 -65.5 -208t-216.5 -63h-110 q-30 0 -30 30v140q0 30 30 30z" glyph-name="florin" horiz-adv-x="442" unicode="ƒ"/><glyph d="M166 -23l11 20q14 24 -12 39q-155 87 -155 314q0 179 96.5 269.5t258.5 90.5q27 0 53 -3t41 16q13 17 31 17h65q20 0 9 -17l-12 -20q-14 -24 12 -39q156 -88 156 -314q0 -180 -96 -270t-259 -90q-27 0 -53 3q-27 3 -41 -16q-13 -17 -30 -17h-65q-20 0 -10 17zM295 351 q0 -40 19 -60.5t51 -20.5t51 20.5t19 60.5q0 39 -19.5 59t-50.5 20t-50.5 -20t-19.5 -59zM247 757l62 114q9 17 30 17h170q19 0 5 -13l-144 -122q-14 -13 -35 -13h-78q-19 0 -10 17z" glyph-name="Oslashacute" horiz-adv-x="730" unicode="Ǿ"/><glyph d="M146 -23l7 13q15 25 -12 38q-131 66 -131 222q0 128 87 194t223 66q34 0 50 -2q26 -3 41 15q14 17 31 17h65q20 0 9 -17l-12 -20q-14 -24 12 -40q114 -68 114 -213q0 -128 -87 -194t-223 -66q-20 0 -30 1q-26 2 -39 -14q-14 -17 -30 -17h-65q-20 0 -10 17zM285 250 q0 -70 35 -70t35 70t-35 70t-35 -70zM202 557l62 114q8 17 30 17h170q19 0 5 -13l-144 -122q-14 -13 -35 -13h-78q-18 0 -10 17z" glyph-name="oslashacute" horiz-adv-x="640" unicode="ǿ"/><glyph d="M395 435q-12 25 -39 25q-31 0 -31 -23q0 -19 37.5 -29t91 -18.5t107 -24t91 -57t37.5 -107.5q0 -99 -87 -155t-238 -56q-323 0 -352 274q-3 30 28 30h226q23 0 38 -29q13 -25 45 -25q35 0 35 23q0 19 -37.5 29t-91 18.5t-107 24t-91 57t-37.5 107.5q0 99 85.5 155 t233.5 56q165 0 249.5 -68t98.5 -206q3 -30 -28 -30h-226q-24 0 -38 29zM185 -202l52 96q14 26 45 26h150q29 0 7 -19l-128 -110q-22 -19 -53 -19h-58q-29 0 -15 26z" glyph-name="uni0218" horiz-adv-x="699" unicode="Ș"/><glyph d="M331 322q-10 8 -21 8q-30 0 -30 -22q0 -19 34 -25.5t82 -9t96.5 -10t82.5 -36.5t34 -81q0 -77 -72.5 -116.5t-211.5 -39.5q-146 0 -220 44t-91 141q-5 30 26 30h185q17 0 29 -4t17 -7.5t18 -15.5q8 -8 23 -8q13 0 22.5 6t9.5 16q0 19 -34 25.5t-82 9t-96.5 10t-82.5 36.5 t-34 81q0 77 72 116.5t210 39.5q145 0 218 -44t90 -141q5 -30 -26 -30h-183q-38 0 -65 27zM144 -202l52 96q14 26 45 26h150q29 0 7 -19l-128 -110q-22 -19 -53 -19h-58q-29 0 -15 26z" glyph-name="uni0219" horiz-adv-x="619" unicode="ș"/><glyph d="M535 250h-73q-37 0 -37 -37v-183q0 -30 -30 -30h-220q-30 0 -30 30v183q0 37 -37 37h-73q-30 0 -30 30v390q0 30 30 30h500q30 0 30 -30v-390q0 -30 -30 -30zM114 -202l52 96q14 26 45 26h150q29 0 7 -19l-128 -110q-22 -19 -53 -19h-58q-29 0 -15 26z" glyph-name="uni021A" horiz-adv-x="570" unicode="Ț"/><glyph d="M397 0h-123q-128 0 -176 63t-48 216v91q0 24 -20 29q-30 7 -30 31v40q0 28 30 32q44 7 66 39.5t26 98.5q2 30 31 30h147q30 0 30 -30v-110q0 -30 30 -30h37q30 0 30 -30v-40q0 -30 -30 -30h-37q-30 0 -30 -30v-110q0 -39 9 -49.5t44 -10.5h14q30 0 30 -30v-140 q0 -30 -30 -30zM123 -202l52 96q14 26 45 26h150q29 0 7 -19l-128 -110q-22 -19 -53 -19h-58q-29 0 -15 26z" glyph-name="uni021B" horiz-adv-x="432" unicode="ț"/><glyph d="M50 500h220q30 0 30 -30v-441q0 -150 -65.5 -214.5t-216.5 -64.5h-110q-30 0 -30 30v140q0 30 30 30h39q73 0 73 90v430q0 30 30 30z" glyph-name="uni0237" unicode="ȷ"/><glyph d="M323 845l111 -130q13 -15 -7 -15h-140q-19 0 -28 18l-15 31q-5 12 -15 12t-15 -11l-15 -32q-9 -18 -29 -18h-140q-21 0 -7 15l111 130q14 15 33 15h123q20 0 33 -15z" glyph-name="circumflex" horiz-adv-x="457" unicode="ˆ"/><glyph d="M134 715l-111 130q-14 15 7 15h140q19 0 28 -18l15 -31q5 -12 15 -12t15 11l15 32q9 18 29 18h140q21 0 7 -15l-111 -130q-13 -15 -33 -15h-123q-19 0 -33 15z" glyph-name="caron" horiz-adv-x="457" unicode="ˇ"/><glyph d="M265 861h96q21 0 19 -20q-11 -141 -184 -141q-172 0 -185 141q-2 20 19 20h97q18 0 22 -20q7 -29 47 -29t47 29q4 20 22 20z" glyph-name="breve" horiz-adv-x="391" unicode="˘"/><glyph d="M10 800q0 41 29.5 71t71.5 30t71 -30t29 -71t-29 -70.5t-71 -29.5t-71.5 29.5t-29.5 70.5z" glyph-name="dotaccent" horiz-adv-x="221" unicode="˙"/><glyph d="M10 811q0 55 33.5 87.5t87.5 32.5t87 -32.5t33 -87.5q0 -56 -32.5 -88.5t-87.5 -32.5t-88 32.5t-33 88.5zM107 811q0 -24 24 -24t24 24t-24 24t-24 -24z" glyph-name="ring" horiz-adv-x="261" unicode="˚"/><glyph d="M188 -9q-34 -20 -34 -48q0 -34 44 -39q20 -3 20 -21v-85q0 -20 -20 -20h-30q-71 0 -114.5 29t-43.5 92q0 87 98 124q19 6 38 -1l41 -15q17 -7 1 -16z" glyph-name="ogonek" horiz-adv-x="228" unicode="˛"/><glyph d="M375 833q-4 -63 -33 -98t-75 -35q-37 0 -66 20.5t-43 20.5q-18 0 -21 -21q-3 -20 -21 -20h-86q-21 0 -19 20q4 63 33 98t75 35q37 0 66 -20.5t43 -20.5q18 0 21 21q3 20 21 20h86q21 0 19 -20z" glyph-name="tilde" horiz-adv-x="386" unicode="˜"/><glyph d="M20 717l62 114q8 17 30 17h170q19 0 5 -13l-144 -122q-14 -13 -35 -13h-78q-18 0 -10 17zM250 717l62 114q8 17 30 17h170q19 0 5 -13l-144 -122q-14 -13 -35 -13h-78q-18 0 -10 17z" glyph-name="hungarumlaut" horiz-adv-x="542" unicode="˝"/><glyph d="M25 -202l52 96q14 26 45 26h150q29 0 7 -19l-128 -110q-22 -19 -53 -19h-58q-29 0 -15 26z" glyph-name="uni0326" horiz-adv-x="312" unicode="̦"/><glyph d="M385 30l-3 29q-1 9 -6 11q-6 2 -13 -7q-13 -20 -37 -37q-26 -19 -26 -45v-101q0 -30 -30 -30h-220q-30 0 -30 30v590q0 30 30 30l219 -4q30 0 30 -30l1 -216q0 -46 17 -55q8 -4 20 -4q20 0 31 13t11 33v233q0 30 30 30h220q30 0 30 -30v-440q0 -30 -30 -30h-210 q-31 0 -34 30z" glyph-name="uni03BC" horiz-adv-x="679" unicode="μ"/><glyph d="M477 162l-35 -133q-7 -29 -37 -29h-268q-31 0 -35 30l-97 640q-4 30 25 30h211q29 0 34 -30l23 -160q4 -23 23 -23t23 23l23 160q5 30 34 30h201q30 0 34 -30l23 -160q4 -23 23 -23t23 23l23 160q5 30 34 30h211q29 0 25 -30l-97 -640q-5 -30 -35 -30h-268q-30 0 -37 29 l-35 133q-5 22 -24 22q-20 0 -25 -22zM558 871l62 -114q8 -17 -10 -17h-78q-21 0 -35 13l-144 122q-14 13 5 13h170q22 0 30 -17z" glyph-name="Wgrave" horiz-adv-x="1003" unicode="Ẁ"/><glyph d="M431 129l-28 -100q-8 -29 -38 -29h-198q-30 0 -37 29l-103 442q-7 29 23 29h181q31 0 35 -30l21 -124q3 -14 17 -14t17 14l24 125q6 29 36 29h151q30 0 36 -29l23 -125q3 -14 18 -14q13 0 16 14l21 124q4 30 35 30h181q30 0 23 -29l-103 -442q-7 -29 -37 -29h-198 q-30 0 -38 29l-28 100q-6 19 -25 19t-25 -19zM512 671l62 -114q8 -17 -10 -17h-78q-21 0 -35 13l-144 122q-14 13 5 13h170q22 0 30 -17z" glyph-name="wgrave" horiz-adv-x="912" unicode="ẁ"/><glyph d="M477 162l-35 -133q-7 -29 -37 -29h-268q-31 0 -35 30l-97 640q-4 30 25 30h211q29 0 34 -30l23 -160q4 -23 23 -23t23 23l23 160q5 30 34 30h201q30 0 34 -30l23 -160q4 -23 23 -23t23 23l23 160q5 30 34 30h211q29 0 25 -30l-97 -640q-5 -30 -35 -30h-268q-30 0 -37 29 l-35 133q-5 22 -24 22q-20 0 -25 -22zM384 757l62 114q8 17 30 17h170q19 0 5 -13l-144 -122q-14 -13 -35 -13h-78q-18 0 -10 17z" glyph-name="Wacute" horiz-adv-x="1003" unicode="Ẃ"/><glyph d="M431 129l-28 -100q-8 -29 -38 -29h-198q-30 0 -37 29l-103 442q-7 29 23 29h181q31 0 35 -30l21 -124q3 -14 17 -14t17 14l24 125q6 29 36 29h151q30 0 36 -29l23 -125q3 -14 18 -14q13 0 16 14l21 124q4 30 35 30h181q30 0 23 -29l-103 -442q-7 -29 -37 -29h-198 q-30 0 -38 29l-28 100q-6 19 -25 19t-25 -19zM338 557l62 114q8 17 30 17h170q19 0 5 -13l-144 -122q-14 -13 -35 -13h-78q-18 0 -10 17z" glyph-name="wacute" horiz-adv-x="912" unicode="ẃ"/><glyph d="M477 162l-35 -133q-7 -29 -37 -29h-268q-31 0 -35 30l-97 640q-4 30 25 30h211q29 0 34 -30l23 -160q4 -23 23 -23t23 23l23 160q5 30 34 30h201q30 0 34 -30l23 -160q4 -23 23 -23t23 23l23 160q5 30 34 30h211q29 0 25 -30l-97 -640q-5 -30 -35 -30h-268q-30 0 -37 29 l-35 133q-5 22 -24 22q-20 0 -25 -22zM287 840q0 41 29.5 71t71.5 30t71 -30t29 -71t-29 -70.5t-71 -29.5t-71.5 29.5t-29.5 70.5zM515 840q0 41 30 71t71 30q42 0 71 -30t29 -71t-29 -70.5t-71 -29.5q-41 0 -71 29.5t-30 70.5z" glyph-name="Wdieresis" horiz-adv-x="1003" unicode="Ẅ"/><glyph d="M431 129l-28 -100q-8 -29 -38 -29h-198q-30 0 -37 29l-103 442q-7 29 23 29h181q31 0 35 -30l21 -124q3 -14 17 -14t17 14l24 125q6 29 36 29h151q30 0 36 -29l23 -125q3 -14 18 -14q13 0 16 14l21 124q4 30 35 30h181q30 0 23 -29l-103 -442q-7 -29 -37 -29h-198 q-30 0 -38 29l-28 100q-6 19 -25 19t-25 -19zM241 640q0 41 29.5 71t71.5 30t71 -30t29 -71t-29 -70.5t-71 -29.5t-71.5 29.5t-29.5 70.5zM469 640q0 41 30 71t71 30q42 0 71 -30t29 -71t-29 -70.5t-71 -29.5q-41 0 -71 29.5t-30 70.5z" glyph-name="wdieresis" horiz-adv-x="912" unicode="ẅ"/><glyph d="M10 320v60q0 20 20 20h382q20 0 20 -20v-60q0 -20 -20 -20h-382q-20 0 -20 20z" glyph-name="endash" horiz-adv-x="442" unicode="–"/><glyph d="M10 320v60q0 20 20 20h659q20 0 20 -20v-60q0 -20 -20 -20h-659q-20 0 -20 20z" glyph-name="emdash" horiz-adv-x="719" unicode="—"/><glyph d="M189 605q-18 -10 -26 -16q-11 -8 -9 -18q1 -10 18 -19q51 -29 51 -93q0 -44 -30 -75t-77 -31q-49 0 -77.5 28t-28.5 82q0 60 25.5 112t87.5 114q22 22 40 -3l35 -45q18 -23 -9 -36z" glyph-name="quoteleft" horiz-adv-x="233" unicode="‘"/><glyph d="M44 458q18 10 26 16q11 8 9 18q-1 10 -18 19q-51 29 -51 93q0 44 30 75t77 31q49 0 77.5 -28t28.5 -82q0 -60 -25.5 -112t-87.5 -114q-22 -22 -40 3l-35 45q-18 22 9 36z" glyph-name="quoteright" horiz-adv-x="233" unicode="’"/><glyph d="M44 -40q18 10 26 16q11 8 9 18q-1 10 -18 19q-51 29 -51 93q0 44 30 75t77 31q49 0 77.5 -28t28.5 -82q0 -60 -25.5 -112t-87.5 -114q-22 -22 -40 3l-35 45q-18 22 9 36z" glyph-name="quotesinglbase" horiz-adv-x="233" unicode="‚"/><glyph d="M169 605q-18 -10 -26 -16q-11 -8 -9 -18q1 -10 18 -19q51 -29 51 -93q0 -45 -25 -75.5t-67 -30.5q-45 0 -73 28.5t-28 81.5q0 60 21 111.5t73 112.5q21 24 39 -1l35 -45q18 -23 -9 -36zM372 605q-18 -10 -26 -16q-11 -8 -9 -18q1 -10 18 -19q51 -29 51 -93 q0 -45 -25 -75.5t-67 -30.5q-45 0 -73 28.5t-28 81.5q0 60 21 111.5t73 112.5q21 24 39 -1l35 -45q18 -23 -9 -36z" glyph-name="quotedblleft" horiz-adv-x="416" unicode="“"/><glyph d="M247 458q18 10 26 16q11 8 9 18q-1 10 -18 19q-51 29 -51 93q0 45 25 75.5t67 30.5q45 0 73 -28.5t28 -81.5q0 -60 -21 -111.5t-73 -112.5q-21 -24 -39 1l-35 45q-18 22 9 36zM44 458q18 10 26 16q11 8 9 18q-1 10 -18 19q-51 29 -51 93q0 45 25 75.5t67 30.5 q45 0 73 -28.5t28 -81.5q0 -60 -21 -111.5t-73 -112.5q-21 -24 -39 1l-35 45q-18 22 9 36z" glyph-name="quotedblright" horiz-adv-x="416" unicode="”"/><glyph d="M247 -41q18 10 26 16q11 8 9 18q-1 10 -18 19q-51 29 -51 93q0 45 25 75.5t67 30.5q45 0 73 -28.5t28 -81.5q0 -60 -21 -111.5t-73 -112.5q-21 -24 -39 1l-35 45q-18 23 9 36zM44 -41q18 10 26 16q11 8 9 18q-1 10 -18 19q-51 29 -51 93q0 45 25 75.5t67 30.5 q45 0 73 -28.5t28 -81.5q0 -60 -21 -111.5t-73 -112.5q-21 -24 -39 1l-35 45q-18 23 9 36z" glyph-name="quotedblbase" horiz-adv-x="416" unicode="„"/><glyph d="M432 450h-26q-30 0 -30 -30v-390q0 -30 -30 -30h-220q-30 0 -30 30v390q0 30 -30 30h-26q-30 0 -30 30v40q0 30 30 30h26q30 0 30 30v90q0 30 30 30h220q30 0 30 -30v-90q0 -30 30 -30h26q30 0 30 -30v-40q0 -30 -30 -30z" glyph-name="dagger" horiz-adv-x="472" unicode="†"/><glyph d="M432 150h-26q-30 0 -30 -30v-90q0 -30 -30 -30h-220q-30 0 -30 30v90q0 30 -30 30h-26q-30 0 -30 30v40q0 30 30 30h26q30 0 30 30v140q0 30 -30 30h-26q-30 0 -30 30v40q0 30 30 30h26q30 0 30 30v90q0 30 30 30h220q30 0 30 -30v-90q0 -30 30 -30h26q30 0 30 -30v-40 q0 -30 -30 -30h-26q-30 0 -30 -30v-140q0 -30 30 -30h26q30 0 30 -30v-40q0 -30 -30 -30z" glyph-name="daggerdbl" horiz-adv-x="472" unicode="‡"/><glyph d="M10 350q0 68 40 107.5t108 39.5t107.5 -39.5t39.5 -107.5t-39.5 -107.5t-107.5 -39.5t-108 39.5t-40 107.5z" glyph-name="bullet" horiz-adv-x="315" unicode="•"/><glyph d="M10 106q0 47 29.5 76.5t77.5 29.5t77 -29.5t29 -76.5t-29 -76.5t-77 -29.5t-77.5 29.5t-29.5 76.5zM253 106q0 47 29.5 76.5t77.5 29.5t77 -29.5t29 -76.5t-29 -76.5t-77 -29.5t-77.5 29.5t-29.5 76.5zM496 106q0 47 29.5 76.5t77.5 29.5t77 -29.5t29 -76.5t-29 -76.5 t-77 -29.5t-77.5 29.5t-29.5 76.5z" glyph-name="ellipsis" horiz-adv-x="719" unicode="…"/><glyph d="M274 18l338 664q9 18 29 18h73q20 0 11 -18l-338 -664q-9 -18 -29 -18h-73q-20 0 -11 18zM538 228q0 117 63 177t164 60q100 0 162.5 -60t62.5 -177q0 -118 -62.5 -178t-162.5 -60q-101 0 -164 60t-63 178zM733 228q0 -43 32 -43q31 0 31 43q0 42 -31 42q-32 0 -32 -42z M10 473q0 117 63 177t164 60q100 0 162.5 -60t62.5 -177q0 -118 -62.5 -178t-162.5 -60q-101 0 -164 60t-63 178zM205 473q0 -43 32 -43q31 0 31 43q0 42 -31 42q-32 0 -32 -42zM1000 228q0 117 63 177t164 60q100 0 162.5 -60t62.5 -177q0 -118 -62.5 -178t-162.5 -60 q-101 0 -164 60t-63 178zM1195 228q0 -43 32 -43q31 0 31 43q0 42 -31 42q-32 0 -32 -42z" glyph-name="perthousand" horiz-adv-x="1462" unicode="‰"/><glyph d="M284 406l-113 -113q-10 -10 -10 -21t10 -21l113 -113q14 -14 0 -28l-42 -42q-14 -14 -28 0l-190 190q-14 14 0 28l190 190q14 14 28 0l42 -42q14 -14 0 -28z" glyph-name="guilsinglleft" horiz-adv-x="308" unicode="‹"/><glyph d="M24 138l113 113q11 11 11 21t-11 21l-113 113q-14 14 0 28l42 42q14 14 28 0l190 -190q14 -14 0 -28l-190 -190q-14 -14 -28 0l-42 42q-14 14 0 28z" glyph-name="guilsinglright" horiz-adv-x="308" unicode="›"/><glyph d="M6 -11l222 722q6 19 26 19h65q20 0 14 -19l-222 -722q-6 -19 -26 -19h-65q-20 0 -14 19z" glyph-name="fraction" horiz-adv-x="339" unicode="⁄"/><glyph d="M-20 385v60q0 20 20 20h38q19 0 25 19q31 113 114 169.5t204 56.5q148 0 234.5 -78t98.5 -236q2 -20 -19 -20h-246q-19 0 -24 20q-11 44 -45 44q-22 0 -35.5 -24t-13.5 -65q0 -42 17.5 -66.5t47.5 -24.5q48 0 60 46q6 20 24 20h246q21 0 19 -20q-12 -160 -102.5 -238 t-246.5 -78q-126 0 -213.5 56.5t-119.5 169.5q-6 19 -25 19h-38q-20 0 -20 20v60q0 20 20 20h31q15 0 15 15t-15 15h-31q-20 0 -20 20z" glyph-name="Euro" horiz-adv-x="747" unicode="€"/><glyph d="M235 503h-25q-16 0 -16 -16v-94q0 -20 -20 -20h-83q-20 0 -20 20v94q0 16 -16 16h-25q-20 0 -20 20v157q0 20 20 20h205q20 0 20 -20v-157q0 -20 -20 -20zM497 393l8 137q0 10 -9 10q-8 0 -10 -10l-18 -138q-3 -19 -21 -19t-21 19l-19 138q-2 10 -10 10t-8 -10l7 -137 q2 -20 -19 -20h-93q-20 0 -20 20v287q0 20 20 20h120q20 0 22 -20l11 -103q2 -10 10 -10q7 0 9 10l11 103q2 20 22 20h120q20 0 20 -20v-287q0 -20 -20 -20h-93q-21 0 -19 20z" glyph-name="trademark" horiz-adv-x="639" unicode="™"/><glyph d="M10 320v60q0 20 20 20h382q20 0 20 -20v-60q0 -20 -20 -20h-382q-20 0 -20 20z" glyph-name="minus" horiz-adv-x="442" unicode="−"/><glyph d="M374 0h-340q-20 0 -20 20t18 29q111 60 111 147q0 32 -14 62t-34.5 54.5t-41 49.5t-34.5 59.5t-14 72.5q0 101 105 188q22 18 54 18h340q20 0 20 -20q0 -19 -18 -28q-111 -50 -111 -148q0 -32 14 -62t34.5 -54.5t41 -49.5t34.5 -59.5t14 -72.5q0 -101 -105 -188 q-22 -18 -54 -18z" glyph-name="uniE000" horiz-adv-x="538" unicode=""/><glyph d="M57 200h192q58 0 81.5 28.5t23.5 95.5q0 18 -17 18q-12 0 -21 -16q-54 -86 -144 -86q-155 0 -155 161v269q0 30 30 30h220q30 0 30 -30v-189q0 -40 26 -40q29 0 29 46v183q0 30 30 30h220q30 0 30 -30v-399q0 -145 -65.5 -208t-216.5 -63h-293q-30 0 -30 30v140 q0 30 30 30z" glyph-name="uniE001" horiz-adv-x="649" unicode=""/><glyph d="M329 97l-13 -68q-6 -29 -35 -29h-271q-30 0 -20 28l237 644q10 28 40 28h394q30 0 30 -30v-640q0 -30 -30 -30h-220q-31 0 -29 30l2 67q2 30 -29 30h-21q-29 0 -35 -30zM420 257l4 125q0 24 -19 24q-20 0 -24 -23l-23 -126q-6 -30 25 -30h6q29 0 31 30z" glyph-name="uniE002" horiz-adv-x="711" unicode=""/><glyph d="M407 405q-12 45 -52 45q-28 0 -44 -27t-16 -72q0 -47 16 -74t44 -27q39 0 53 47q8 29 36 29h226q31 0 28 -30q-15 -155 -103.5 -230.5t-239.5 -75.5q-158 0 -251.5 90t-93.5 270q0 179 93.5 269.5t251.5 90.5q150 0 238.5 -75.5t103.5 -228.5q3 -30 -28 -30h-226 q-28 0 -36 29z" glyph-name="uniE004" horiz-adv-x="710" unicode=""/><glyph d="M310 210h200q30 0 30 -30v-150q0 -30 -30 -30h-480q-30 0 -27 30l64 640q3 30 33 30h410q30 0 30 -30v-150q0 -30 -30 -30h-175q-25 0 -28 -25t23 -25h150q30 0 30 -30v-120q0 -30 -30 -30h-165q-26 0 -29 -25t24 -25z" glyph-name="uniE005" horiz-adv-x="560" unicode=""/><glyph d="M55 200h242q38 0 55.5 19.5t17.5 64.5q0 13 -8 15q-9 2 -18 -8q-48 -51 -119 -51q-98 0 -154 58t-56 176q0 115 57 175.5t155 60.5q50 0 77 -17.5t49 -53.5q9 -16 22 -16q15 0 17 18l4 29q4 30 34 30h190q30 0 30 -30v-399q0 -145 -65.5 -208t-216.5 -63h-313 q-30 0 -30 30v140q0 30 30 30zM334 509q-34 0 -34 -49t34 -49q17 0 26.5 11.5t9.5 27.5v20q0 16 -9.5 27.5t-26.5 11.5z" glyph-name="uniE006" horiz-adv-x="667" unicode=""/><glyph d="M1 30l70 420q5 30 35 30h220q30 0 25 -30l-70 -420q-5 -30 -35 -30h-220q-29 0 -25 30zM30 622q0 52 37 85t109 33t109 -33t37 -85q0 -53 -37 -86t-109 -33t-109 33t-37 86z" glyph-name="uniE007" horiz-adv-x="356" unicode=""/><glyph d="M101 700h230q150 0 232.5 -68t82.5 -207q0 -140 -82.5 -207.5t-232.5 -67.5h-4q-30 0 -33 -30l-11 -90q-3 -30 -33 -30h-220q-30 0 -27 30l65 640q3 30 33 30zM350 400h14q15 0 22.5 7.5t7.5 18.5q0 24 -30 24h-8q-25 0 -28 -25t22 -25z" glyph-name="uniE008" horiz-adv-x="651" unicode=""/><glyph d="M555 250h-90q-30 0 -24 -29l38 -192q6 -29 -24 -29h-220q-30 0 -36 29l-38 192q-6 29 -36 29h-90q-30 0 -30 30v390q0 30 30 30h520q30 0 30 -30v-390q0 -30 -30 -30z" glyph-name="uniE009" horiz-adv-x="590" unicode=""/><glyph d="M330 317l65 353q6 30 35 30h271q30 0 20 -28l-237 -644q-10 -28 -40 -28h-394q-30 0 -30 30v640q0 30 30 30h220q30 0 29 -30l-12 -352q0 -23 18 -23q22 0 25 22z" glyph-name="uniE010" horiz-adv-x="711" unicode=""/><glyph d="M351 317l91 354q8 29 38 29h51q31 0 29 -30l-12 -352q0 -23 19 -23q20 0 25 22l91 354q8 29 38 29h271q29 0 19 -28l-255 -644q-10 -28 -41 -28h-220q-31 0 -29 30l8 219q0 22 -19 22t-24 -21l-50 -221q-6 -29 -37 -29h-294q-30 0 -30 30v640q0 30 30 30h240q30 0 29 -30 l-12 -352q0 -23 19 -23q20 0 25 22z" glyph-name="uniE011" horiz-adv-x="1002" unicode=""/><glyph d="M356 670l-27 -190q-5 -30 26 -30h125q30 0 30 -30v-390q0 -30 -30 -30h-450q-30 0 -26 30l92 640q4 30 34 30h200q30 0 26 -30z" glyph-name="uniE012" horiz-adv-x="515" unicode=""/><glyph d="M455 30l-12 67q-4 18 -18 18q-12 0 -20 -17q-23 -60 -60 -84t-96 -24q-100 0 -169.5 92t-69.5 268q0 179 93.5 269.5t251.5 90.5q150 0 238.5 -75.5t103.5 -228.5q3 -30 -28 -30h-226q-28 0 -36 29q-12 45 -52 45q-29 0 -44.5 -25t-15.5 -65q0 -90 60 -90q47 0 55 34 q6 22 31 22h229q30 0 30 -30v-266q0 -30 -30 -30h-180q-30 0 -35 30z" glyph-name="uniE013" horiz-adv-x="715" unicode=""/><glyph d="M980 260h-175q-25 0 -25 -25t25 -25h205q30 0 30 -30v-150q0 -30 -30 -30h-960q-30 0 -30 30v640q0 30 30 30h960q30 0 30 -30v-150q0 -30 -30 -30h-205q-25 0 -25 -25t25 -25h175q30 0 30 -30v-120q0 -30 -30 -30zM500 465q0 25 -25 25h-150q-25 0 -25 -25t25 -25h150 q25 0 25 25zM475 260h-150q-25 0 -25 -25t25 -25h150q25 0 25 25t-25 25z" glyph-name="uniE014" horiz-adv-x="1057" unicode=""/><glyph d="M365 30v160q0 30 -30 30t-30 -30v-160q0 -30 -30 -30h-225q-30 0 -30 30v640q0 30 30 30h225q30 0 30 -30v-160q0 -30 30 -30t30 30v160q0 30 30 30h225q30 0 30 -30v-160q0 -30 30 -30t30 30v160q0 30 30 30h225q30 0 30 -30v-640q0 -30 -30 -30h-225q-30 0 -30 30v160 q0 30 -30 30t-30 -30v-160q0 -30 -30 -30h-225q-30 0 -30 30z" glyph-name="uniE015" horiz-adv-x="1015" unicode=""/><glyph d="M764 0h-167q-30 0 -27 30l12 141q2 24 -16 24q-21 0 -30 -22l-67 -146q-12 -27 -42 -27h-27q-30 0 -42 27l-67 146q-9 22 -30 22q-18 0 -16 -24l12 -141q3 -30 -27 -30h-180q-30 0 -30 30v640q0 30 30 30h193q30 0 45 -26l96 -158q12 -19 30 -19t30 19l95 158 q15 26 45 26h193q30 0 45 -26l96 -158q12 -19 30 -19t30 19l95 158q15 26 45 26h193q30 0 30 -30v-640q0 -30 -30 -30h-180q-30 0 -27 30l12 141q2 24 -16 24q-21 0 -30 -22l-67 -146q-12 -27 -42 -27h-27q-30 0 -42 27l-67 146q-9 22 -30 22q-18 0 -16 -24l12 -141 q3 -30 -27 -30z" glyph-name="uniE016" horiz-adv-x="1361" unicode=""/><glyph d="M652 0h-159q-28 0 -49 23l-116 132q-15 19 -30 19q-23 0 -21 -25l10 -119q3 -30 -27 -30h-210q-30 0 -30 30v640q0 30 30 30h159q27 0 48 -24l118 -141q16 -20 30 -20q22 0 20 25l-11 130q-3 30 28 30h159q27 0 48 -24l118 -141q16 -20 30 -20q22 0 20 25l-11 130 q-3 30 28 30h210q30 0 30 -30v-640q0 -30 -30 -30h-159q-28 0 -49 23l-116 132q-15 19 -30 19q-23 0 -21 -25l10 -119q3 -30 -27 -30z" glyph-name="uniE017" horiz-adv-x="1094" unicode=""/><glyph d="M558 65q-88 -75 -208 -75q-156 0 -248 90t-92 270q0 179 92.5 269.5t247.5 90.5q122 0 209 -75q12 -9 24 -9q13 0 24 9q86 75 208 75q155 0 247.5 -90.5t92.5 -269.5q0 -180 -92 -270t-248 -90q-123 0 -209 75q-9 9 -24 9q-14 0 -24 -9zM295 351q0 -40 19 -60.5t51 -20.5 t51 20.5t19 60.5q0 39 -19.5 59t-50.5 20t-50.5 -20t-19.5 -59zM730 351q0 -40 19 -60.5t51 -20.5t51 20.5t19 60.5q0 39 -19.5 59t-50.5 20t-50.5 -20t-19.5 -59z" glyph-name="uniE018" horiz-adv-x="1165" unicode=""/><glyph d="M550 667q75 43 190 43q148 0 224.5 -68t88.5 -206q3 -30 -28 -30h-226q-24 0 -38 29q-12 25 -39 25q-31 0 -31 -23q0 -19 37.5 -29t91 -18.5t107 -24t91 -57t37.5 -107.5q0 -99 -79 -155t-216 -56q-114 0 -188 41q-25 14 -50 0q-76 -41 -193 -41q-291 0 -317 274 q-3 30 28 30h226q23 0 38 -29q13 -25 45 -25q35 0 35 23q0 19 -37.5 29t-91 18.5t-107 24t-91 57t-37.5 107.5q0 99 77.5 155t212.5 56q118 0 190 -42q26 -15 50 -1zM428 423q-22 37 -65 37q-38 0 -38 -23q0 -21 85 -36q15 -2 20 3.5t-2 18.5zM644 275q18 -35 63 -35 q43 0 43 23q0 21 -85 36q-16 2 -22 -4.5t1 -19.5z" glyph-name="uniE019" horiz-adv-x="1065" unicode=""/><glyph d="M889 250h-73q-37 0 -37 -37v-183q0 -30 -30 -30h-220q-30 0 -30 30v183q0 37 -37 37t-37 -37v-183q0 -30 -30 -30h-220q-30 0 -30 30v183q0 37 -37 37h-73q-30 0 -30 30v390q0 30 30 30h854q30 0 30 -30v-390q0 -30 -30 -30z" glyph-name="uniE01A" horiz-adv-x="924" unicode=""/><glyph d="M40 700h950q29 0 29 -23q0 -18 -15 -42l-163 -247q-13 -20 -9 -40q4 -18 29 -18h129q30 0 30 -30v-270q0 -30 -30 -30h-950q-29 0 -29 23q0 18 15 42l163 247q13 21 9 40q-4 18 -29 18h-129q-30 0 -30 30v270q0 30 30 30zM553 112l123 200q13 21 9 40q-4 18 -29 18h-99 q-30 0 -30 30v185q0 23 -20 23q-17 0 -30 -20l-123 -200q-13 -20 -9 -40q4 -18 29 -18h99q30 0 30 -30v-185q0 -23 20 -23q17 0 30 20z" glyph-name="uniE01B" horiz-adv-x="1030" unicode=""/><glyph d="M387 0h-113q-128 0 -176 63t-48 216v91q0 24 -20 29q-30 7 -30 31v40q0 28 30 32q44 7 66 39.5t26 98.5q2 30 31 30h147q30 0 30 -30v-110q0 -30 30 -30h37q60 0 81.5 32t25.5 108q2 30 31 30h147q30 0 30 -30v-110q0 -30 30 -30h37q30 0 30 -30v-40q0 -30 -30 -30h-37 q-30 0 -30 -30v-110q0 -39 9 -49.5t44 -10.5h14q30 0 30 -30v-140q0 -30 -30 -30h-123q-128 0 -176 63t-48 216v91q0 30 -31 30h-41q-30 0 -30 -30v-110q0 -39 9 -49.5t44 -10.5h4q30 0 30 -30v-140q0 -30 -30 -30z" glyph-name="uniE01D" horiz-adv-x="814" unicode=""/><glyph d="M280 261q0 -60 25 -60t25 60q0 59 -25 59t-25 -59zM311 539q19 76 67 108.5t155 32.5h62q30 0 30 -30v-130q0 -33 -30 -30l-131 15q-15 1 -20 -2t-7 -12q-2 -14 24 -25q144 -59 144 -214q0 -119 -81.5 -180t-209.5 -61q-24 0 -24 -23q0 -22 26 -20l262 12q30 2 30 -29 v-151q0 -30 -30 -30h-532q-30 0 -30 26v129q0 31 28 40l140 45q19 6 19 20q0 7 -3 11t-6 5t-10 3q-83 24 -131 80.5t-48 142.5q0 110 75 170t195 67q29 1 36 30z" glyph-name="uniE01E" horiz-adv-x="615" unicode=""/><glyph d="M60 700h281q147 0 216 -46t69 -149q0 -43 -19.5 -70.5t-62.5 -50.5q-15 -8 -14 -21q2 -15 16 -16q170 -14 170 -147q0 -103 -73.5 -151.5t-221.5 -48.5h-361q-30 0 -30 30v640q0 30 30 30zM335 400h36q15 0 22.5 7.5t7.5 18.5q0 24 -30 24h-36q-25 0 -25 -25t25 -25z M335 250h66q30 0 30 24q0 11 -7.5 18.5t-22.5 7.5h-66q-25 0 -25 -25t25 -25z" glyph-name="B.aalt" horiz-adv-x="716"/><glyph d="M86 -20l189 -5q27 0 27 20t-27 20h-137q-30 0 -36 29l-95 427q-6 29 24 29h231q30 0 32 -30l17 -245q2 -19 16 -19t16 19l17 245q2 30 32 30h231q30 0 24 -29l-95 -427q-19 -85 -39.5 -134.5t-56 -79.5t-80.5 -40t-120 -10h-172q-28 0 -28 30v140q0 15 7.5 23t22.5 7z " glyph-name="y.aalt" horiz-adv-x="654"/></font>
</defs>
</svg>
